<svg width="338" height="198" viewBox="0 0 338 198" fill="none" xmlns="http://www.w3.org/2000/svg">
<rect width="338" height="198" fill="#0A466A"/>
<path d="M311.164 153H307.328V174H311.164V153Z" fill="white"/>
<path d="M315 160.778H307.328V166.222H315V160.778Z" fill="white"/>
<path d="M312.172 153H304.5V158.444H312.172V153Z" fill="white"/>
<path d="M312.172 168.556H304.5V174H312.172V168.556Z" fill="white"/>
<path d="M298.351 153H294.675V174H298.351V153Z" fill="white"/>
<path d="M301.06 168.556H293.709V174H301.06V168.556Z" fill="white"/>
<path d="M301.06 153H293.709V158.444H301.06V153Z" fill="white"/>
<path d="M298.351 160.778H291V166.222H298.351V160.778Z" fill="white"/>
<rect x="20" y="40" width="79" height="6" fill="#1B6BFF"/>
<path d="M33.4 54.96V69H29.98V63.22H24.66V69H21.24V54.96H24.66V60.46H29.98V54.96H33.4ZM46.3889 63.24C46.3889 63.56 46.3689 63.8933 46.3289 64.24H38.5889C38.6422 64.9333 38.8622 65.4667 39.2489 65.84C39.6489 66.2 40.1356 66.38 40.7089 66.38C41.5622 66.38 42.1556 66.02 42.4889 65.3H46.1289C45.9422 66.0333 45.6022 66.6933 45.1089 67.28C44.6289 67.8667 44.0222 68.3267 43.2889 68.66C42.5556 68.9933 41.7356 69.16 40.8289 69.16C39.7356 69.16 38.7622 68.9267 37.9089 68.46C37.0556 67.9933 36.3889 67.3267 35.9089 66.46C35.4289 65.5933 35.1889 64.58 35.1889 63.42C35.1889 62.26 35.4222 61.2467 35.8889 60.38C36.3689 59.5133 37.0356 58.8467 37.8889 58.38C38.7422 57.9133 39.7222 57.68 40.8289 57.68C41.9089 57.68 42.8689 57.9067 43.7089 58.36C44.5489 58.8133 45.2022 59.46 45.6689 60.3C46.1489 61.14 46.3889 62.12 46.3889 63.24ZM42.8889 62.34C42.8889 61.7533 42.6889 61.2867 42.2889 60.94C41.8889 60.5933 41.3889 60.42 40.7889 60.42C40.2156 60.42 39.7289 60.5867 39.3289 60.92C38.9422 61.2533 38.7022 61.7267 38.6089 62.34H42.8889ZM51.6131 54.2V69H48.1931V54.2H51.6131ZM57.5116 59.42C57.8449 58.9 58.3049 58.48 58.8916 58.16C59.4782 57.84 60.1649 57.68 60.9516 57.68C61.8716 57.68 62.7049 57.9133 63.4516 58.38C64.1982 58.8467 64.7849 59.5133 65.2116 60.38C65.6516 61.2467 65.8716 62.2533 65.8716 63.4C65.8716 64.5467 65.6516 65.56 65.2116 66.44C64.7849 67.3067 64.1982 67.98 63.4516 68.46C62.7049 68.9267 61.8716 69.16 60.9516 69.16C60.1782 69.16 59.4916 69 58.8916 68.68C58.3049 68.36 57.8449 67.9467 57.5116 67.44V74.32H54.0916V57.84H57.5116V59.42ZM62.3916 63.4C62.3916 62.5467 62.1516 61.88 61.6716 61.4C61.2049 60.9067 60.6249 60.66 59.9316 60.66C59.2516 60.66 58.6716 60.9067 58.1916 61.4C57.7249 61.8933 57.4916 62.5667 57.4916 63.42C57.4916 64.2733 57.7249 64.9467 58.1916 65.44C58.6716 65.9333 59.2516 66.18 59.9316 66.18C60.6116 66.18 61.1916 65.9333 61.6716 65.44C62.1516 64.9333 62.3916 64.2533 62.3916 63.4ZM82.9241 57.84V69H79.5041V67.48C79.1574 67.9733 78.6841 68.3733 78.0841 68.68C77.4974 68.9733 76.8441 69.12 76.1241 69.12C75.2707 69.12 74.5174 68.9333 73.8641 68.56C73.2107 68.1733 72.7041 67.62 72.3441 66.9C71.9841 66.18 71.8041 65.3333 71.8041 64.36V57.84H75.2041V63.9C75.2041 64.6467 75.3974 65.2267 75.7841 65.64C76.1707 66.0533 76.6907 66.26 77.3441 66.26C78.0107 66.26 78.5374 66.0533 78.9241 65.64C79.3107 65.2267 79.5041 64.6467 79.5041 63.9V57.84H82.9241ZM89.9206 69.16C88.9473 69.16 88.0806 68.9933 87.3206 68.66C86.5606 68.3267 85.9606 67.8733 85.5206 67.3C85.0806 66.7133 84.834 66.06 84.7806 65.34H88.1606C88.2006 65.7267 88.3806 66.04 88.7006 66.28C89.0206 66.52 89.414 66.64 89.8806 66.64C90.3073 66.64 90.634 66.56 90.8606 66.4C91.1006 66.2267 91.2206 66.0067 91.2206 65.74C91.2206 65.42 91.054 65.1867 90.7206 65.04C90.3873 64.88 89.8473 64.7067 89.1006 64.52C88.3006 64.3333 87.634 64.14 87.1006 63.94C86.5673 63.7267 86.1073 63.4 85.7206 62.96C85.334 62.5067 85.1406 61.9 85.1406 61.14C85.1406 60.5 85.314 59.92 85.6606 59.4C86.0206 58.8667 86.5406 58.4467 87.2206 58.14C87.914 57.8333 88.734 57.68 89.6806 57.68C91.0806 57.68 92.1806 58.0267 92.9806 58.72C93.794 59.4133 94.2606 60.3333 94.3806 61.48H91.2206C91.1673 61.0933 90.994 60.7867 90.7006 60.56C90.4206 60.3333 90.0473 60.22 89.5806 60.22C89.1806 60.22 88.874 60.3 88.6606 60.46C88.4473 60.6067 88.3406 60.8133 88.3406 61.08C88.3406 61.4 88.5073 61.64 88.8406 61.8C89.1873 61.96 89.7206 62.12 90.4406 62.28C91.2673 62.4933 91.9406 62.7067 92.4606 62.92C92.9806 63.12 93.434 63.4533 93.8206 63.92C94.2206 64.3733 94.4273 64.9867 94.4406 65.76C94.4406 66.4133 94.254 67 93.8806 67.52C93.5206 68.0267 92.994 68.4267 92.3006 68.72C91.6206 69.0133 90.8273 69.16 89.9206 69.16ZM105.011 57.68C105.798 57.68 106.485 57.84 107.071 58.16C107.671 58.48 108.131 58.9 108.451 59.42V57.84H111.871V68.98C111.871 70.0067 111.665 70.9333 111.251 71.76C110.851 72.6 110.231 73.2667 109.391 73.76C108.565 74.2533 107.531 74.5 106.291 74.5C104.638 74.5 103.298 74.1067 102.271 73.32C101.245 72.5467 100.658 71.4933 100.511 70.16H103.891C103.998 70.5867 104.251 70.92 104.651 71.16C105.051 71.4133 105.545 71.54 106.131 71.54C106.838 71.54 107.398 71.3333 107.811 70.92C108.238 70.52 108.451 69.8733 108.451 68.98V67.4C108.118 67.92 107.658 68.3467 107.071 68.68C106.485 69 105.798 69.16 105.011 69.16C104.091 69.16 103.258 68.9267 102.511 68.46C101.765 67.98 101.171 67.3067 100.731 66.44C100.305 65.56 100.091 64.5467 100.091 63.4C100.091 62.2533 100.305 61.2467 100.731 60.38C101.171 59.5133 101.765 58.8467 102.511 58.38C103.258 57.9133 104.091 57.68 105.011 57.68ZM108.451 63.42C108.451 62.5667 108.211 61.8933 107.731 61.4C107.265 60.9067 106.691 60.66 106.011 60.66C105.331 60.66 104.751 60.9067 104.271 61.4C103.805 61.88 103.571 62.5467 103.571 63.4C103.571 64.2533 103.805 64.9333 104.271 65.44C104.751 65.9333 105.331 66.18 106.011 66.18C106.691 66.18 107.265 65.9333 107.731 65.44C108.211 64.9467 108.451 64.2733 108.451 63.42ZM117.765 59.7C118.165 59.0867 118.665 58.6067 119.265 58.26C119.865 57.9 120.532 57.72 121.265 57.72V61.34H120.325C119.472 61.34 118.832 61.5267 118.405 61.9C117.979 62.26 117.765 62.9 117.765 63.82V69H114.345V57.84H117.765V59.7ZM127.98 69.16C126.887 69.16 125.9 68.9267 125.02 68.46C124.153 67.9933 123.467 67.3267 122.96 66.46C122.467 65.5933 122.22 64.58 122.22 63.42C122.22 62.2733 122.473 61.2667 122.98 60.4C123.487 59.52 124.18 58.8467 125.06 58.38C125.94 57.9133 126.927 57.68 128.02 57.68C129.113 57.68 130.1 57.9133 130.98 58.38C131.86 58.8467 132.553 59.52 133.06 60.4C133.567 61.2667 133.82 62.2733 133.82 63.42C133.82 64.5667 133.56 65.58 133.04 66.46C132.533 67.3267 131.833 67.9933 130.94 68.46C130.06 68.9267 129.073 69.16 127.98 69.16ZM127.98 66.2C128.633 66.2 129.187 65.96 129.64 65.48C130.107 65 130.34 64.3133 130.34 63.42C130.34 62.5267 130.113 61.84 129.66 61.36C129.22 60.88 128.673 60.64 128.02 60.64C127.353 60.64 126.8 60.88 126.36 61.36C125.92 61.8267 125.7 62.5133 125.7 63.42C125.7 64.3133 125.913 65 126.34 65.48C126.78 65.96 127.327 66.2 127.98 66.2ZM151.655 57.84L148.635 69H144.855L143.095 61.76L141.275 69H137.515L134.475 57.84H137.895L139.475 65.82L141.355 57.84H144.975L146.875 65.78L148.435 57.84H151.655ZM154.679 56.68C154.079 56.68 153.585 56.5067 153.199 56.16C152.825 55.8 152.639 55.36 152.639 54.84C152.639 54.3067 152.825 53.8667 153.199 53.52C153.585 53.16 154.079 52.98 154.679 52.98C155.265 52.98 155.745 53.16 156.119 53.52C156.505 53.8667 156.699 54.3067 156.699 54.84C156.699 55.36 156.505 55.8 156.119 56.16C155.745 56.5067 155.265 56.68 154.679 56.68ZM156.379 57.84V69H152.959V57.84H156.379ZM165.657 57.72C166.964 57.72 168.004 58.1467 168.777 59C169.564 59.84 169.957 61 169.957 62.48V69H166.557V62.94C166.557 62.1933 166.364 61.6133 165.977 61.2C165.591 60.7867 165.071 60.58 164.417 60.58C163.764 60.58 163.244 60.7867 162.857 61.2C162.471 61.6133 162.277 62.1933 162.277 62.94V69H158.857V57.84H162.277V59.32C162.624 58.8267 163.091 58.44 163.677 58.16C164.264 57.8667 164.924 57.72 165.657 57.72ZM176.574 57.68C177.36 57.68 178.047 57.84 178.634 58.16C179.234 58.48 179.694 58.9 180.014 59.42V57.84H183.434V68.98C183.434 70.0067 183.227 70.9333 182.814 71.76C182.414 72.6 181.794 73.2667 180.954 73.76C180.127 74.2533 179.094 74.5 177.854 74.5C176.2 74.5 174.86 74.1067 173.834 73.32C172.807 72.5467 172.22 71.4933 172.074 70.16H175.454C175.56 70.5867 175.814 70.92 176.214 71.16C176.614 71.4133 177.107 71.54 177.694 71.54C178.4 71.54 178.96 71.3333 179.374 70.92C179.8 70.52 180.014 69.8733 180.014 68.98V67.4C179.68 67.92 179.22 68.3467 178.634 68.68C178.047 69 177.36 69.16 176.574 69.16C175.654 69.16 174.82 68.9267 174.074 68.46C173.327 67.98 172.734 67.3067 172.294 66.44C171.867 65.56 171.654 64.5467 171.654 63.4C171.654 62.2533 171.867 61.2467 172.294 60.38C172.734 59.5133 173.327 58.8467 174.074 58.38C174.82 57.9133 175.654 57.68 176.574 57.68ZM180.014 63.42C180.014 62.5667 179.774 61.8933 179.294 61.4C178.827 60.9067 178.254 60.66 177.574 60.66C176.894 60.66 176.314 60.9067 175.834 61.4C175.367 61.88 175.134 62.5467 175.134 63.4C175.134 64.2533 175.367 64.9333 175.834 65.44C176.314 65.9333 176.894 66.18 177.574 66.18C178.254 66.18 178.827 65.9333 179.294 65.44C179.774 64.9467 180.014 64.2733 180.014 63.42ZM196.366 66.1V69H194.626C193.386 69 192.42 68.7 191.726 68.1C191.033 67.4867 190.686 66.4933 190.686 65.12V60.68H189.326V57.84H190.686V55.12H194.106V57.84H196.346V60.68H194.106V65.16C194.106 65.4933 194.186 65.7333 194.346 65.88C194.506 66.0267 194.773 66.1 195.146 66.1H196.366ZM205.131 57.72C206.411 57.72 207.438 58.1467 208.211 59C208.985 59.84 209.371 61 209.371 62.48V69H205.971V62.94C205.971 62.1933 205.778 61.6133 205.391 61.2C205.005 60.7867 204.485 60.58 203.831 60.58C203.178 60.58 202.658 60.7867 202.271 61.2C201.885 61.6133 201.691 62.1933 201.691 62.94V69H198.271V54.2H201.691V59.34C202.038 58.8467 202.511 58.4533 203.111 58.16C203.711 57.8667 204.385 57.72 205.131 57.72ZM213.468 56.68C212.868 56.68 212.374 56.5067 211.988 56.16C211.614 55.8 211.428 55.36 211.428 54.84C211.428 54.3067 211.614 53.8667 211.988 53.52C212.374 53.16 212.868 52.98 213.468 52.98C214.054 52.98 214.534 53.16 214.908 53.52C215.294 53.8667 215.488 54.3067 215.488 54.84C215.488 55.36 215.294 55.8 214.908 56.16C214.534 56.5067 214.054 56.68 213.468 56.68ZM215.168 57.84V69H211.748V57.84H215.168ZM222.186 69.16C221.213 69.16 220.346 68.9933 219.586 68.66C218.826 68.3267 218.226 67.8733 217.786 67.3C217.346 66.7133 217.1 66.06 217.046 65.34H220.426C220.466 65.7267 220.646 66.04 220.966 66.28C221.286 66.52 221.68 66.64 222.146 66.64C222.573 66.64 222.9 66.56 223.126 66.4C223.366 66.2267 223.486 66.0067 223.486 65.74C223.486 65.42 223.32 65.1867 222.986 65.04C222.653 64.88 222.113 64.7067 221.366 64.52C220.566 64.3333 219.9 64.14 219.366 63.94C218.833 63.7267 218.373 63.4 217.986 62.96C217.6 62.5067 217.406 61.9 217.406 61.14C217.406 60.5 217.58 59.92 217.926 59.4C218.286 58.8667 218.806 58.4467 219.486 58.14C220.18 57.8333 221 57.68 221.946 57.68C223.346 57.68 224.446 58.0267 225.246 58.72C226.06 59.4133 226.526 60.3333 226.646 61.48H223.486C223.433 61.0933 223.26 60.7867 222.966 60.56C222.686 60.3333 222.313 60.22 221.846 60.22C221.446 60.22 221.14 60.3 220.926 60.46C220.713 60.6067 220.606 60.8133 220.606 61.08C220.606 61.4 220.773 61.64 221.106 61.8C221.453 61.96 221.986 62.12 222.706 62.28C223.533 62.4933 224.206 62.7067 224.726 62.92C225.246 63.12 225.7 63.4533 226.086 63.92C226.486 64.3733 226.693 64.9867 226.706 65.76C226.706 66.4133 226.52 67 226.146 67.52C225.786 68.0267 225.26 68.4267 224.566 68.72C223.886 69.0133 223.093 69.16 222.186 69.16ZM249.057 57.84L246.037 69H242.257L240.497 61.76L238.677 69H234.917L231.877 57.84H235.297L236.877 65.82L238.757 57.84H242.377L244.277 65.78L245.837 57.84H249.057ZM260.881 63.24C260.881 63.56 260.861 63.8933 260.821 64.24H253.081C253.134 64.9333 253.354 65.4667 253.741 65.84C254.141 66.2 254.628 66.38 255.201 66.38C256.054 66.38 256.648 66.02 256.981 65.3H260.621C260.434 66.0333 260.094 66.6933 259.601 67.28C259.121 67.8667 258.514 68.3267 257.781 68.66C257.048 68.9933 256.228 69.16 255.321 69.16C254.228 69.16 253.254 68.9267 252.401 68.46C251.548 67.9933 250.881 67.3267 250.401 66.46C249.921 65.5933 249.681 64.58 249.681 63.42C249.681 62.26 249.914 61.2467 250.381 60.38C250.861 59.5133 251.528 58.8467 252.381 58.38C253.234 57.9133 254.214 57.68 255.321 57.68C256.401 57.68 257.361 57.9067 258.201 58.36C259.041 58.8133 259.694 59.46 260.161 60.3C260.641 61.14 260.881 62.12 260.881 63.24ZM257.381 62.34C257.381 61.7533 257.181 61.2867 256.781 60.94C256.381 60.5933 255.881 60.42 255.281 60.42C254.708 60.42 254.221 60.5867 253.821 60.92C253.434 61.2533 253.194 61.7267 253.101 62.34H257.381ZM266.105 59.42C266.425 58.9 266.885 58.48 267.485 58.16C268.085 57.84 268.772 57.68 269.545 57.68C270.465 57.68 271.299 57.9133 272.045 58.38C272.792 58.8467 273.379 59.5133 273.805 60.38C274.245 61.2467 274.465 62.2533 274.465 63.4C274.465 64.5467 274.245 65.56 273.805 66.44C273.379 67.3067 272.792 67.98 272.045 68.46C271.299 68.9267 270.465 69.16 269.545 69.16C268.759 69.16 268.072 69.0067 267.485 68.7C266.899 68.38 266.439 67.96 266.105 67.44V69H262.685V54.2H266.105V59.42ZM270.985 63.4C270.985 62.5467 270.745 61.88 270.265 61.4C269.799 60.9067 269.219 60.66 268.525 60.66C267.845 60.66 267.265 60.9067 266.785 61.4C266.319 61.8933 266.085 62.5667 266.085 63.42C266.085 64.2733 266.319 64.9467 266.785 65.44C267.265 65.9333 267.845 66.18 268.525 66.18C269.205 66.18 269.785 65.9333 270.265 65.44C270.745 64.9333 270.985 64.2533 270.985 63.4ZM280.8 69.16C279.826 69.16 278.96 68.9933 278.2 68.66C277.44 68.3267 276.84 67.8733 276.4 67.3C275.96 66.7133 275.713 66.06 275.66 65.34H279.04C279.08 65.7267 279.26 66.04 279.58 66.28C279.9 66.52 280.293 66.64 280.76 66.64C281.186 66.64 281.513 66.56 281.74 66.4C281.98 66.2267 282.1 66.0067 282.1 65.74C282.1 65.42 281.933 65.1867 281.6 65.04C281.266 64.88 280.726 64.7067 279.98 64.52C279.18 64.3333 278.513 64.14 277.98 63.94C277.446 63.7267 276.986 63.4 276.6 62.96C276.213 62.5067 276.02 61.9 276.02 61.14C276.02 60.5 276.193 59.92 276.54 59.4C276.9 58.8667 277.42 58.4467 278.1 58.14C278.793 57.8333 279.613 57.68 280.56 57.68C281.96 57.68 283.06 58.0267 283.86 58.72C284.673 59.4133 285.14 60.3333 285.26 61.48H282.1C282.046 61.0933 281.873 60.7867 281.58 60.56C281.3 60.3333 280.926 60.22 280.46 60.22C280.06 60.22 279.753 60.3 279.54 60.46C279.326 60.6067 279.22 60.8133 279.22 61.08C279.22 61.4 279.386 61.64 279.72 61.8C280.066 61.96 280.6 62.12 281.32 62.28C282.146 62.4933 282.82 62.7067 283.34 62.92C283.86 63.12 284.313 63.4533 284.7 63.92C285.1 64.3733 285.306 64.9867 285.32 65.76C285.32 66.4133 285.133 67 284.76 67.52C284.4 68.0267 283.873 68.4267 283.18 68.72C282.5 69.0133 281.706 69.16 280.8 69.16ZM289.132 56.68C288.532 56.68 288.039 56.5067 287.652 56.16C287.279 55.8 287.092 55.36 287.092 54.84C287.092 54.3067 287.279 53.8667 287.652 53.52C288.039 53.16 288.532 52.98 289.132 52.98C289.719 52.98 290.199 53.16 290.572 53.52C290.959 53.8667 291.152 54.3067 291.152 54.84C291.152 55.36 290.959 55.8 290.572 56.16C290.199 56.5067 289.719 56.68 289.132 56.68ZM290.832 57.84V69H287.412V57.84H290.832ZM299.53 66.1V69H297.79C296.55 69 295.584 68.7 294.89 68.1C294.197 67.4867 293.85 66.4933 293.85 65.12V60.68H292.49V57.84H293.85V55.12H297.27V57.84H299.51V60.68H297.27V65.16C297.27 65.4933 297.35 65.7333 297.51 65.88C297.67 66.0267 297.937 66.1 298.31 66.1H299.53ZM311.955 63.24C311.955 63.56 311.935 63.8933 311.895 64.24H304.155C304.209 64.9333 304.429 65.4667 304.815 65.84C305.215 66.2 305.702 66.38 306.275 66.38C307.129 66.38 307.722 66.02 308.055 65.3H311.695C311.509 66.0333 311.169 66.6933 310.675 67.28C310.195 67.8667 309.589 68.3267 308.855 68.66C308.122 68.9933 307.302 69.16 306.395 69.16C305.302 69.16 304.329 68.9267 303.475 68.46C302.622 67.9933 301.955 67.3267 301.475 66.46C300.995 65.5933 300.755 64.58 300.755 63.42C300.755 62.26 300.989 61.2467 301.455 60.38C301.935 59.5133 302.602 58.8467 303.455 58.38C304.309 57.9133 305.289 57.68 306.395 57.68C307.475 57.68 308.435 57.9067 309.275 58.36C310.115 58.8133 310.769 59.46 311.235 60.3C311.715 61.14 311.955 62.12 311.955 63.24ZM308.455 62.34C308.455 61.7533 308.255 61.2867 307.855 60.94C307.455 60.5933 306.955 60.42 306.355 60.42C305.782 60.42 305.295 60.5867 304.895 60.92C304.509 61.2533 304.269 61.7267 304.175 62.34H308.455ZM24.66 85.42C24.98 84.9 25.44 84.48 26.04 84.16C26.64 83.84 27.3267 83.68 28.1 83.68C29.02 83.68 29.8533 83.9133 30.6 84.38C31.3467 84.8467 31.9333 85.5133 32.36 86.38C32.8 87.2467 33.02 88.2533 33.02 89.4C33.02 90.5467 32.8 91.56 32.36 92.44C31.9333 93.3067 31.3467 93.98 30.6 94.46C29.8533 94.9267 29.02 95.16 28.1 95.16C27.3133 95.16 26.6267 95.0067 26.04 94.7C25.4533 94.38 24.9933 93.96 24.66 93.44V95H21.24V80.2H24.66V85.42ZM29.54 89.4C29.54 88.5467 29.3 87.88 28.82 87.4C28.3533 86.9067 27.7733 86.66 27.08 86.66C26.4 86.66 25.82 86.9067 25.34 87.4C24.8733 87.8933 24.64 88.5667 24.64 89.42C24.64 90.2733 24.8733 90.9467 25.34 91.44C25.82 91.9333 26.4 92.18 27.08 92.18C27.76 92.18 28.34 91.9333 28.82 91.44C29.3 90.9333 29.54 90.2533 29.54 89.4ZM46.2142 83.84L39.2142 100.3H35.5342L38.0942 94.62L33.5542 83.84H37.3742L39.9542 90.82L42.5142 83.84H46.2142ZM51.0092 89.4C51.0092 88.2533 51.2226 87.2467 51.6492 86.38C52.0892 85.5133 52.6826 84.8467 53.4292 84.38C54.1759 83.9133 55.0092 83.68 55.9292 83.68C56.7159 83.68 57.4026 83.84 57.9892 84.16C58.5892 84.48 59.0492 84.9 59.3692 85.42V83.84H62.7892V95H59.3692V93.42C59.0359 93.94 58.5692 94.36 57.9692 94.68C57.3826 95 56.6959 95.16 55.9092 95.16C55.0026 95.16 54.1759 94.9267 53.4292 94.46C52.6826 93.98 52.0892 93.3067 51.6492 92.44C51.2226 91.56 51.0092 90.5467 51.0092 89.4ZM59.3692 89.42C59.3692 88.5667 59.1292 87.8933 58.6492 87.4C58.1826 86.9067 57.6092 86.66 56.9292 86.66C56.2492 86.66 55.6692 86.9067 55.1892 87.4C54.7226 87.88 54.4892 88.5467 54.4892 89.4C54.4892 90.2533 54.7226 90.9333 55.1892 91.44C55.6692 91.9333 56.2492 92.18 56.9292 92.18C57.6092 92.18 58.1826 91.9333 58.6492 91.44C59.1292 90.9467 59.3692 90.2733 59.3692 89.42ZM64.5834 89.4C64.5834 88.2533 64.7968 87.2467 65.2234 86.38C65.6634 85.5133 66.2568 84.8467 67.0034 84.38C67.7501 83.9133 68.5834 83.68 69.5034 83.68C70.2368 83.68 70.9034 83.8333 71.5034 84.14C72.1168 84.4467 72.5968 84.86 72.9434 85.38V80.2H76.3634V95H72.9434V93.4C72.6234 93.9333 72.1634 94.36 71.5634 94.68C70.9768 95 70.2901 95.16 69.5034 95.16C68.5834 95.16 67.7501 94.9267 67.0034 94.46C66.2568 93.98 65.6634 93.3067 65.2234 92.44C64.7968 91.56 64.5834 90.5467 64.5834 89.4ZM72.9434 89.42C72.9434 88.5667 72.7034 87.8933 72.2234 87.4C71.7568 86.9067 71.1834 86.66 70.5034 86.66C69.8234 86.66 69.2434 86.9067 68.7634 87.4C68.2968 87.88 68.0634 88.5467 68.0634 89.4C68.0634 90.2533 68.2968 90.9333 68.7634 91.44C69.2434 91.9333 69.8234 92.18 70.5034 92.18C71.1834 92.18 71.7568 91.9333 72.2234 91.44C72.7034 90.9467 72.9434 90.2733 72.9434 89.42ZM78.1577 89.4C78.1577 88.2533 78.371 87.2467 78.7977 86.38C79.2377 85.5133 79.831 84.8467 80.5777 84.38C81.3243 83.9133 82.1577 83.68 83.0777 83.68C83.811 83.68 84.4777 83.8333 85.0777 84.14C85.691 84.4467 86.171 84.86 86.5177 85.38V80.2H89.9377V95H86.5177V93.4C86.1977 93.9333 85.7377 94.36 85.1377 94.68C84.551 95 83.8643 95.16 83.0777 95.16C82.1577 95.16 81.3243 94.9267 80.5777 94.46C79.831 93.98 79.2377 93.3067 78.7977 92.44C78.371 91.56 78.1577 90.5467 78.1577 89.4ZM86.5177 89.42C86.5177 88.5667 86.2777 87.8933 85.7977 87.4C85.331 86.9067 84.7577 86.66 84.0777 86.66C83.3977 86.66 82.8177 86.9067 82.3377 87.4C81.871 87.88 81.6377 88.5467 81.6377 89.4C81.6377 90.2533 81.871 90.9333 82.3377 91.44C82.8177 91.9333 83.3977 92.18 84.0777 92.18C84.7577 92.18 85.331 91.9333 85.7977 91.44C86.2777 90.9467 86.5177 90.2733 86.5177 89.42ZM94.1319 82.68C93.5319 82.68 93.0385 82.5067 92.6519 82.16C92.2785 81.8 92.0919 81.36 92.0919 80.84C92.0919 80.3067 92.2785 79.8667 92.6519 79.52C93.0385 79.16 93.5319 78.98 94.1319 78.98C94.7185 78.98 95.1985 79.16 95.5719 79.52C95.9585 79.8667 96.1519 80.3067 96.1519 80.84C96.1519 81.36 95.9585 81.8 95.5719 82.16C95.1985 82.5067 94.7185 82.68 94.1319 82.68ZM95.8319 83.84V95H92.4119V83.84H95.8319ZM105.11 83.72C106.417 83.72 107.457 84.1467 108.23 85C109.017 85.84 109.41 87 109.41 88.48V95H106.01V88.94C106.01 88.1933 105.817 87.6133 105.43 87.2C105.044 86.7867 104.524 86.58 103.87 86.58C103.217 86.58 102.697 86.7867 102.31 87.2C101.924 87.6133 101.73 88.1933 101.73 88.94V95H98.3103V83.84H101.73V85.32C102.077 84.8267 102.544 84.44 103.13 84.16C103.717 83.8667 104.377 83.72 105.11 83.72ZM116.027 83.68C116.814 83.68 117.5 83.84 118.087 84.16C118.687 84.48 119.147 84.9 119.467 85.42V83.84H122.887V94.98C122.887 96.0067 122.68 96.9333 122.267 97.76C121.867 98.6 121.247 99.2667 120.407 99.76C119.58 100.253 118.547 100.5 117.307 100.5C115.654 100.5 114.314 100.107 113.287 99.32C112.26 98.5467 111.674 97.4933 111.527 96.16H114.907C115.014 96.5867 115.267 96.92 115.667 97.16C116.067 97.4133 116.56 97.54 117.147 97.54C117.854 97.54 118.414 97.3333 118.827 96.92C119.254 96.52 119.467 95.8733 119.467 94.98V93.4C119.134 93.92 118.674 94.3467 118.087 94.68C117.5 95 116.814 95.16 116.027 95.16C115.107 95.16 114.274 94.9267 113.527 94.46C112.78 93.98 112.187 93.3067 111.747 92.44C111.32 91.56 111.107 90.5467 111.107 89.4C111.107 88.2533 111.32 87.2467 111.747 86.38C112.187 85.5133 112.78 84.8467 113.527 84.38C114.274 83.9133 115.107 83.68 116.027 83.68ZM119.467 89.42C119.467 88.5667 119.227 87.8933 118.747 87.4C118.28 86.9067 117.707 86.66 117.027 86.66C116.347 86.66 115.767 86.9067 115.287 87.4C114.82 87.88 114.587 88.5467 114.587 89.4C114.587 90.2533 114.82 90.9333 115.287 91.44C115.767 91.9333 116.347 92.18 117.027 92.18C117.707 92.18 118.28 91.9333 118.747 91.44C119.227 90.9467 119.467 90.2733 119.467 89.42ZM133.019 85.7C133.419 85.0867 133.919 84.6067 134.519 84.26C135.119 83.9 135.786 83.72 136.519 83.72V87.34H135.579C134.726 87.34 134.086 87.5267 133.659 87.9C133.233 88.26 133.019 88.9 133.019 89.82V95H129.599V83.84H133.019V85.7ZM148.674 89.24C148.674 89.56 148.654 89.8933 148.614 90.24H140.874C140.927 90.9333 141.147 91.4667 141.534 91.84C141.934 92.2 142.421 92.38 142.994 92.38C143.847 92.38 144.441 92.02 144.774 91.3H148.414C148.227 92.0333 147.887 92.6933 147.394 93.28C146.914 93.8667 146.307 94.3267 145.574 94.66C144.841 94.9933 144.021 95.16 143.114 95.16C142.021 95.16 141.047 94.9267 140.194 94.46C139.341 93.9933 138.674 93.3267 138.194 92.46C137.714 91.5933 137.474 90.58 137.474 89.42C137.474 88.26 137.707 87.2467 138.174 86.38C138.654 85.5133 139.321 84.8467 140.174 84.38C141.027 83.9133 142.007 83.68 143.114 83.68C144.194 83.68 145.154 83.9067 145.994 84.36C146.834 84.8133 147.487 85.46 147.954 86.3C148.434 87.14 148.674 88.12 148.674 89.24ZM145.174 88.34C145.174 87.7533 144.974 87.2867 144.574 86.94C144.174 86.5933 143.674 86.42 143.074 86.42C142.501 86.42 142.014 86.5867 141.614 86.92C141.227 87.2533 140.987 87.7267 140.894 88.34H145.174ZM155.018 95.16C154.045 95.16 153.178 94.9933 152.418 94.66C151.658 94.3267 151.058 93.8733 150.618 93.3C150.178 92.7133 149.932 92.06 149.878 91.34H153.258C153.298 91.7267 153.478 92.04 153.798 92.28C154.118 92.52 154.512 92.64 154.978 92.64C155.405 92.64 155.732 92.56 155.958 92.4C156.198 92.2267 156.318 92.0067 156.318 91.74C156.318 91.42 156.152 91.1867 155.818 91.04C155.485 90.88 154.945 90.7067 154.198 90.52C153.398 90.3333 152.732 90.14 152.198 89.94C151.665 89.7267 151.205 89.4 150.818 88.96C150.432 88.5067 150.238 87.9 150.238 87.14C150.238 86.5 150.412 85.92 150.758 85.4C151.118 84.8667 151.638 84.4467 152.318 84.14C153.012 83.8333 153.832 83.68 154.778 83.68C156.178 83.68 157.278 84.0267 158.078 84.72C158.892 85.4133 159.358 86.3333 159.478 87.48H156.318C156.265 87.0933 156.092 86.7867 155.798 86.56C155.518 86.3333 155.145 86.22 154.678 86.22C154.278 86.22 153.972 86.3 153.758 86.46C153.545 86.6067 153.438 86.8133 153.438 87.08C153.438 87.4 153.605 87.64 153.938 87.8C154.285 87.96 154.818 88.12 155.538 88.28C156.365 88.4933 157.038 88.7067 157.558 88.92C158.078 89.12 158.532 89.4533 158.918 89.92C159.318 90.3733 159.525 90.9867 159.538 91.76C159.538 92.4133 159.352 93 158.978 93.52C158.618 94.0267 158.092 94.4267 157.398 94.72C156.718 95.0133 155.925 95.16 155.018 95.16ZM166.711 95.16C165.617 95.16 164.631 94.9267 163.751 94.46C162.884 93.9933 162.197 93.3267 161.691 92.46C161.197 91.5933 160.951 90.58 160.951 89.42C160.951 88.2733 161.204 87.2667 161.711 86.4C162.217 85.52 162.911 84.8467 163.791 84.38C164.671 83.9133 165.657 83.68 166.751 83.68C167.844 83.68 168.831 83.9133 169.711 84.38C170.591 84.8467 171.284 85.52 171.791 86.4C172.297 87.2667 172.551 88.2733 172.551 89.42C172.551 90.5667 172.291 91.58 171.771 92.46C171.264 93.3267 170.564 93.9933 169.671 94.46C168.791 94.9267 167.804 95.16 166.711 95.16ZM166.711 92.2C167.364 92.2 167.917 91.96 168.371 91.48C168.837 91 169.071 90.3133 169.071 89.42C169.071 88.5267 168.844 87.84 168.391 87.36C167.951 86.88 167.404 86.64 166.751 86.64C166.084 86.64 165.531 86.88 165.091 87.36C164.651 87.8267 164.431 88.5133 164.431 89.42C164.431 90.3133 164.644 91 165.071 91.48C165.511 91.96 166.057 92.2 166.711 92.2ZM185.385 83.84V95H181.965V93.48C181.618 93.9733 181.145 94.3733 180.545 94.68C179.958 94.9733 179.305 95.12 178.585 95.12C177.732 95.12 176.978 94.9333 176.325 94.56C175.672 94.1733 175.165 93.62 174.805 92.9C174.445 92.18 174.265 91.3333 174.265 90.36V83.84H177.665V89.9C177.665 90.6467 177.858 91.2267 178.245 91.64C178.632 92.0533 179.152 92.26 179.805 92.26C180.472 92.26 180.998 92.0533 181.385 91.64C181.772 91.2267 181.965 90.6467 181.965 89.9V83.84H185.385ZM191.262 85.7C191.662 85.0867 192.162 84.6067 192.762 84.26C193.362 83.9 194.028 83.72 194.762 83.72V87.34H193.822C192.968 87.34 192.328 87.5267 191.902 87.9C191.475 88.26 191.262 88.9 191.262 89.82V95H187.842V83.84H191.262V85.7ZM195.716 89.42C195.716 88.26 195.95 87.2467 196.416 86.38C196.896 85.5133 197.556 84.8467 198.396 84.38C199.25 83.9133 200.223 83.68 201.316 83.68C202.716 83.68 203.883 84.0467 204.816 84.78C205.763 85.5133 206.383 86.5467 206.676 87.88H203.036C202.73 87.0267 202.136 86.6 201.256 86.6C200.63 86.6 200.13 86.8467 199.756 87.34C199.383 87.82 199.196 88.5133 199.196 89.42C199.196 90.3267 199.383 91.0267 199.756 91.52C200.13 92 200.63 92.24 201.256 92.24C202.136 92.24 202.73 91.8133 203.036 90.96H206.676C206.383 92.2667 205.763 93.2933 204.816 94.04C203.87 94.7867 202.703 95.16 201.316 95.16C200.223 95.16 199.25 94.9267 198.396 94.46C197.556 93.9933 196.896 93.3267 196.416 92.46C195.95 91.5933 195.716 90.58 195.716 89.42ZM219.026 89.24C219.026 89.56 219.006 89.8933 218.966 90.24H211.226C211.279 90.9333 211.499 91.4667 211.886 91.84C212.286 92.2 212.772 92.38 213.346 92.38C214.199 92.38 214.792 92.02 215.126 91.3H218.766C218.579 92.0333 218.239 92.6933 217.746 93.28C217.266 93.8667 216.659 94.3267 215.926 94.66C215.192 94.9933 214.372 95.16 213.466 95.16C212.372 95.16 211.399 94.9267 210.546 94.46C209.692 93.9933 209.026 93.3267 208.546 92.46C208.066 91.5933 207.826 90.58 207.826 89.42C207.826 88.26 208.059 87.2467 208.526 86.38C209.006 85.5133 209.672 84.8467 210.526 84.38C211.379 83.9133 212.359 83.68 213.466 83.68C214.546 83.68 215.506 83.9067 216.346 84.36C217.186 84.8133 217.839 85.46 218.306 86.3C218.786 87.14 219.026 88.12 219.026 89.24ZM215.526 88.34C215.526 87.7533 215.326 87.2867 214.926 86.94C214.526 86.5933 214.026 86.42 213.426 86.42C212.852 86.42 212.366 86.5867 211.966 86.92C211.579 87.2533 211.339 87.7267 211.246 88.34H215.526ZM225.37 95.16C224.397 95.16 223.53 94.9933 222.77 94.66C222.01 94.3267 221.41 93.8733 220.97 93.3C220.53 92.7133 220.283 92.06 220.23 91.34H223.61C223.65 91.7267 223.83 92.04 224.15 92.28C224.47 92.52 224.863 92.64 225.33 92.64C225.757 92.64 226.083 92.56 226.31 92.4C226.55 92.2267 226.67 92.0067 226.67 91.74C226.67 91.42 226.503 91.1867 226.17 91.04C225.837 90.88 225.297 90.7067 224.55 90.52C223.75 90.3333 223.083 90.14 222.55 89.94C222.017 89.7267 221.557 89.4 221.17 88.96C220.783 88.5067 220.59 87.9 220.59 87.14C220.59 86.5 220.763 85.92 221.11 85.4C221.47 84.8667 221.99 84.4467 222.67 84.14C223.363 83.8333 224.183 83.68 225.13 83.68C226.53 83.68 227.63 84.0267 228.43 84.72C229.243 85.4133 229.71 86.3333 229.83 87.48H226.67C226.617 87.0933 226.443 86.7867 226.15 86.56C225.87 86.3333 225.497 86.22 225.03 86.22C224.63 86.22 224.323 86.3 224.11 86.46C223.897 86.6067 223.79 86.8133 223.79 87.08C223.79 87.4 223.957 87.64 224.29 87.8C224.637 87.96 225.17 88.12 225.89 88.28C226.717 88.4933 227.39 88.7067 227.91 88.92C228.43 89.12 228.883 89.4533 229.27 89.92C229.67 90.3733 229.877 90.9867 229.89 91.76C229.89 92.4133 229.703 93 229.33 93.52C228.97 94.0267 228.443 94.4267 227.75 94.72C227.07 95.0133 226.277 95.16 225.37 95.16ZM242.44 92.1V95H240.7C239.46 95 238.494 94.7 237.8 94.1C237.107 93.4867 236.76 92.4933 236.76 91.12V86.68H235.4V83.84H236.76V81.12H240.18V83.84H242.42V86.68H240.18V91.16C240.18 91.4933 240.26 91.7333 240.42 91.88C240.58 92.0267 240.847 92.1 241.22 92.1H242.44ZM251.205 83.72C252.485 83.72 253.512 84.1467 254.285 85C255.059 85.84 255.445 87 255.445 88.48V95H252.045V88.94C252.045 88.1933 251.852 87.6133 251.465 87.2C251.079 86.7867 250.559 86.58 249.905 86.58C249.252 86.58 248.732 86.7867 248.345 87.2C247.959 87.6133 247.765 88.1933 247.765 88.94V95H244.345V80.2H247.765V85.34C248.112 84.8467 248.585 84.4533 249.185 84.16C249.785 83.8667 250.459 83.72 251.205 83.72ZM257.142 89.4C257.142 88.2533 257.355 87.2467 257.782 86.38C258.222 85.5133 258.815 84.8467 259.562 84.38C260.309 83.9133 261.142 83.68 262.062 83.68C262.849 83.68 263.535 83.84 264.122 84.16C264.722 84.48 265.182 84.9 265.502 85.42V83.84H268.922V95H265.502V93.42C265.169 93.94 264.702 94.36 264.102 94.68C263.515 95 262.829 95.16 262.042 95.16C261.135 95.16 260.309 94.9267 259.562 94.46C258.815 93.98 258.222 93.3067 257.782 92.44C257.355 91.56 257.142 90.5467 257.142 89.4ZM265.502 89.42C265.502 88.5667 265.262 87.8933 264.782 87.4C264.315 86.9067 263.742 86.66 263.062 86.66C262.382 86.66 261.802 86.9067 261.322 87.4C260.855 87.88 260.622 88.5467 260.622 89.4C260.622 90.2533 260.855 90.9333 261.322 91.44C261.802 91.9333 262.382 92.18 263.062 92.18C263.742 92.18 264.315 91.9333 264.782 91.44C265.262 90.9467 265.502 90.2733 265.502 89.42ZM277.616 92.1V95H275.876C274.636 95 273.67 94.7 272.976 94.1C272.283 93.4867 271.936 92.4933 271.936 91.12V86.68H270.576V83.84H271.936V81.12H275.356V83.84H277.596V86.68H275.356V91.16C275.356 91.4933 275.436 91.7333 275.596 91.88C275.756 92.0267 276.023 92.1 276.396 92.1H277.616ZM25.48 109.68C26.2667 109.68 26.9533 109.84 27.54 110.16C28.14 110.48 28.6 110.9 28.92 111.42V109.84H32.34V120.98C32.34 122.007 32.1333 122.933 31.72 123.76C31.32 124.6 30.7 125.267 29.86 125.76C29.0333 126.253 28 126.5 26.76 126.5C25.1067 126.5 23.7667 126.107 22.74 125.32C21.7133 124.547 21.1267 123.493 20.98 122.16H24.36C24.4667 122.587 24.72 122.92 25.12 123.16C25.52 123.413 26.0133 123.54 26.6 123.54C27.3067 123.54 27.8667 123.333 28.28 122.92C28.7067 122.52 28.92 121.873 28.92 120.98V119.4C28.5867 119.92 28.1267 120.347 27.54 120.68C26.9533 121 26.2667 121.16 25.48 121.16C24.56 121.16 23.7267 120.927 22.98 120.46C22.2333 119.98 21.64 119.307 21.2 118.44C20.7733 117.56 20.56 116.547 20.56 115.4C20.56 114.253 20.7733 113.247 21.2 112.38C21.64 111.513 22.2333 110.847 22.98 110.38C23.7267 109.913 24.56 109.68 25.48 109.68ZM28.92 115.42C28.92 114.567 28.68 113.893 28.2 113.4C27.7333 112.907 27.16 112.66 26.48 112.66C25.8 112.66 25.22 112.907 24.74 113.4C24.2733 113.88 24.04 114.547 24.04 115.4C24.04 116.253 24.2733 116.933 24.74 117.44C25.22 117.933 25.8 118.18 26.48 118.18C27.16 118.18 27.7333 117.933 28.2 117.44C28.68 116.947 28.92 116.273 28.92 115.42ZM39.8942 121.16C38.8009 121.16 37.8142 120.927 36.9342 120.46C36.0676 119.993 35.3809 119.327 34.8742 118.46C34.3809 117.593 34.1342 116.58 34.1342 115.42C34.1342 114.273 34.3876 113.267 34.8942 112.4C35.4009 111.52 36.0942 110.847 36.9742 110.38C37.8542 109.913 38.8409 109.68 39.9342 109.68C41.0276 109.68 42.0142 109.913 42.8942 110.38C43.7742 110.847 44.4676 111.52 44.9742 112.4C45.4809 113.267 45.7342 114.273 45.7342 115.42C45.7342 116.567 45.4742 117.58 44.9542 118.46C44.4476 119.327 43.7476 119.993 42.8542 120.46C41.9742 120.927 40.9876 121.16 39.8942 121.16ZM39.8942 118.2C40.5476 118.2 41.1009 117.96 41.5542 117.48C42.0209 117 42.2542 116.313 42.2542 115.42C42.2542 114.527 42.0276 113.84 41.5742 113.36C41.1342 112.88 40.5876 112.64 39.9342 112.64C39.2676 112.64 38.7142 112.88 38.2742 113.36C37.8342 113.827 37.6142 114.513 37.6142 115.42C37.6142 116.313 37.8276 117 38.2542 117.48C38.6942 117.96 39.2409 118.2 39.8942 118.2ZM53.7686 118.1V121H52.0286C50.7886 121 49.8219 120.7 49.1286 120.1C48.4353 119.487 48.0886 118.493 48.0886 117.12V112.68H46.7286V109.84H48.0886V107.12H51.5086V109.84H53.7486V112.68H51.5086V117.16C51.5086 117.493 51.5886 117.733 51.7486 117.88C51.9086 118.027 52.1753 118.1 52.5486 118.1H53.7686ZM71.3119 109.84L64.3119 126.3H60.6319L63.1919 120.62L58.6519 109.84H62.4719L65.0519 116.82L67.6119 109.84H71.3119ZM77.6286 121.16C76.5353 121.16 75.5486 120.927 74.6686 120.46C73.8019 119.993 73.1153 119.327 72.6086 118.46C72.1153 117.593 71.8686 116.58 71.8686 115.42C71.8686 114.273 72.1219 113.267 72.6286 112.4C73.1353 111.52 73.8286 110.847 74.7086 110.38C75.5886 109.913 76.5753 109.68 77.6686 109.68C78.7619 109.68 79.7486 109.913 80.6286 110.38C81.5086 110.847 82.2019 111.52 82.7086 112.4C83.2153 113.267 83.4686 114.273 83.4686 115.42C83.4686 116.567 83.2086 117.58 82.6886 118.46C82.1819 119.327 81.4819 119.993 80.5886 120.46C79.7086 120.927 78.7219 121.16 77.6286 121.16ZM77.6286 118.2C78.2819 118.2 78.8353 117.96 79.2886 117.48C79.7553 117 79.9886 116.313 79.9886 115.42C79.9886 114.527 79.7619 113.84 79.3086 113.36C78.8686 112.88 78.3219 112.64 77.6686 112.64C77.0019 112.64 76.4486 112.88 76.0086 113.36C75.5686 113.827 75.3486 114.513 75.3486 115.42C75.3486 116.313 75.5619 117 75.9886 117.48C76.4286 117.96 76.9753 118.2 77.6286 118.2ZM96.303 109.84V121H92.883V119.48C92.5363 119.973 92.063 120.373 91.463 120.68C90.8763 120.973 90.223 121.12 89.503 121.12C88.6496 121.12 87.8963 120.933 87.243 120.56C86.5896 120.173 86.083 119.62 85.723 118.9C85.363 118.18 85.183 117.333 85.183 116.36V109.84H88.583V115.9C88.583 116.647 88.7763 117.227 89.163 117.64C89.5496 118.053 90.0696 118.26 90.723 118.26C91.3896 118.26 91.9163 118.053 92.303 117.64C92.6896 117.227 92.883 116.647 92.883 115.9V109.84H96.303ZM107.538 121.16C106.564 121.16 105.698 120.993 104.938 120.66C104.178 120.327 103.578 119.873 103.138 119.3C102.698 118.713 102.451 118.06 102.398 117.34H105.778C105.818 117.727 105.998 118.04 106.318 118.28C106.638 118.52 107.031 118.64 107.498 118.64C107.924 118.64 108.251 118.56 108.478 118.4C108.718 118.227 108.838 118.007 108.838 117.74C108.838 117.42 108.671 117.187 108.338 117.04C108.004 116.88 107.464 116.707 106.718 116.52C105.918 116.333 105.251 116.14 104.718 115.94C104.184 115.727 103.724 115.4 103.338 114.96C102.951 114.507 102.758 113.9 102.758 113.14C102.758 112.5 102.931 111.92 103.278 111.4C103.638 110.867 104.158 110.447 104.838 110.14C105.531 109.833 106.351 109.68 107.298 109.68C108.698 109.68 109.798 110.027 110.598 110.72C111.411 111.413 111.878 112.333 111.998 113.48H108.838C108.784 113.093 108.611 112.787 108.318 112.56C108.038 112.333 107.664 112.22 107.198 112.22C106.798 112.22 106.491 112.3 106.278 112.46C106.064 112.607 105.958 112.813 105.958 113.08C105.958 113.4 106.124 113.64 106.458 113.8C106.804 113.96 107.338 114.12 108.058 114.28C108.884 114.493 109.558 114.707 110.078 114.92C110.598 115.12 111.051 115.453 111.438 115.92C111.838 116.373 112.044 116.987 112.058 117.76C112.058 118.413 111.871 119 111.498 119.52C111.138 120.027 110.611 120.427 109.918 120.72C109.238 121.013 108.444 121.16 107.538 121.16ZM120.97 121L117.57 116.32V121H114.15V106.2H117.57V114.38L120.95 109.84H125.17L120.53 115.44L125.21 121H120.97ZM128.233 108.68C127.633 108.68 127.14 108.507 126.753 108.16C126.38 107.8 126.193 107.36 126.193 106.84C126.193 106.307 126.38 105.867 126.753 105.52C127.14 105.16 127.633 104.98 128.233 104.98C128.82 104.98 129.3 105.16 129.673 105.52C130.06 105.867 130.253 106.307 130.253 106.84C130.253 107.36 130.06 107.8 129.673 108.16C129.3 108.507 128.82 108.68 128.233 108.68ZM129.933 109.84V121H126.513V109.84H129.933ZM135.832 106.2V121H132.412V106.2H135.832ZM141.73 106.2V121H138.31V106.2H141.73ZM154.729 115.24C154.729 115.56 154.709 115.893 154.669 116.24H146.929C146.982 116.933 147.202 117.467 147.589 117.84C147.989 118.2 148.475 118.38 149.049 118.38C149.902 118.38 150.495 118.02 150.829 117.3H154.469C154.282 118.033 153.942 118.693 153.449 119.28C152.969 119.867 152.362 120.327 151.629 120.66C150.895 120.993 150.075 121.16 149.169 121.16C148.075 121.16 147.102 120.927 146.249 120.46C145.395 119.993 144.729 119.327 144.249 118.46C143.769 117.593 143.529 116.58 143.529 115.42C143.529 114.26 143.762 113.247 144.229 112.38C144.709 111.513 145.375 110.847 146.229 110.38C147.082 109.913 148.062 109.68 149.169 109.68C150.249 109.68 151.209 109.907 152.049 110.36C152.889 110.813 153.542 111.46 154.009 112.3C154.489 113.14 154.729 114.12 154.729 115.24ZM151.229 114.34C151.229 113.753 151.029 113.287 150.629 112.94C150.229 112.593 149.729 112.42 149.129 112.42C148.555 112.42 148.069 112.587 147.669 112.92C147.282 113.253 147.042 113.727 146.949 114.34H151.229ZM155.853 115.4C155.853 114.253 156.066 113.247 156.493 112.38C156.933 111.513 157.526 110.847 158.273 110.38C159.02 109.913 159.853 109.68 160.773 109.68C161.506 109.68 162.173 109.833 162.773 110.14C163.386 110.447 163.866 110.86 164.213 111.38V106.2H167.633V121H164.213V119.4C163.893 119.933 163.433 120.36 162.833 120.68C162.246 121 161.56 121.16 160.773 121.16C159.853 121.16 159.02 120.927 158.273 120.46C157.526 119.98 156.933 119.307 156.493 118.44C156.066 117.56 155.853 116.547 155.853 115.4ZM164.213 115.42C164.213 114.567 163.973 113.893 163.493 113.4C163.026 112.907 162.453 112.66 161.773 112.66C161.093 112.66 160.513 112.907 160.033 113.4C159.566 113.88 159.333 114.547 159.333 115.4C159.333 116.253 159.566 116.933 160.033 117.44C160.513 117.933 161.093 118.18 161.773 118.18C162.453 118.18 163.026 117.933 163.493 117.44C163.973 116.947 164.213 116.273 164.213 115.42ZM173.665 115.4C173.665 114.253 173.879 113.247 174.305 112.38C174.745 111.513 175.339 110.847 176.085 110.38C176.832 109.913 177.665 109.68 178.585 109.68C179.372 109.68 180.059 109.84 180.645 110.16C181.245 110.48 181.705 110.9 182.025 111.42V109.84H185.445V121H182.025V119.42C181.692 119.94 181.225 120.36 180.625 120.68C180.039 121 179.352 121.16 178.565 121.16C177.659 121.16 176.832 120.927 176.085 120.46C175.339 119.98 174.745 119.307 174.305 118.44C173.879 117.56 173.665 116.547 173.665 115.4ZM182.025 115.42C182.025 114.567 181.785 113.893 181.305 113.4C180.839 112.907 180.265 112.66 179.585 112.66C178.905 112.66 178.325 112.907 177.845 113.4C177.379 113.88 177.145 114.547 177.145 115.4C177.145 116.253 177.379 116.933 177.845 117.44C178.325 117.933 178.905 118.18 179.585 118.18C180.265 118.18 180.839 117.933 181.305 117.44C181.785 116.947 182.025 116.273 182.025 115.42ZM194.14 118.1V121H192.4C191.16 121 190.193 120.7 189.5 120.1C188.806 119.487 188.46 118.493 188.46 117.12V112.68H187.1V109.84H188.46V107.12H191.88V109.84H194.12V112.68H191.88V117.16C191.88 117.493 191.96 117.733 192.12 117.88C192.28 118.027 192.546 118.1 192.92 118.1H194.14ZM25.78 147.16C24.8067 147.16 23.94 146.993 23.18 146.66C22.42 146.327 21.82 145.873 21.38 145.3C20.94 144.713 20.6933 144.06 20.64 143.34H24.02C24.06 143.727 24.24 144.04 24.56 144.28C24.88 144.52 25.2733 144.64 25.74 144.64C26.1667 144.64 26.4933 144.56 26.72 144.4C26.96 144.227 27.08 144.007 27.08 143.74C27.08 143.42 26.9133 143.187 26.58 143.04C26.2467 142.88 25.7067 142.707 24.96 142.52C24.16 142.333 23.4933 142.14 22.96 141.94C22.4267 141.727 21.9667 141.4 21.58 140.96C21.1933 140.507 21 139.9 21 139.14C21 138.5 21.1733 137.92 21.52 137.4C21.88 136.867 22.4 136.447 23.08 136.14C23.7733 135.833 24.5933 135.68 25.54 135.68C26.94 135.68 28.04 136.027 28.84 136.72C29.6533 137.413 30.12 138.333 30.24 139.48H27.08C27.0267 139.093 26.8533 138.787 26.56 138.56C26.28 138.333 25.9067 138.22 25.44 138.22C25.04 138.22 24.7333 138.3 24.52 138.46C24.3067 138.607 24.2 138.813 24.2 139.08C24.2 139.4 24.3667 139.64 24.7 139.8C25.0467 139.96 25.58 140.12 26.3 140.28C27.1267 140.493 27.8 140.707 28.32 140.92C28.84 141.12 29.2933 141.453 29.68 141.92C30.08 142.373 30.2867 142.987 30.3 143.76C30.3 144.413 30.1133 145 29.74 145.52C29.38 146.027 28.8533 146.427 28.16 146.72C27.48 147.013 26.6867 147.16 25.78 147.16ZM37.4723 147.16C36.379 147.16 35.3923 146.927 34.5123 146.46C33.6457 145.993 32.959 145.327 32.4523 144.46C31.959 143.593 31.7123 142.58 31.7123 141.42C31.7123 140.273 31.9657 139.267 32.4723 138.4C32.979 137.52 33.6723 136.847 34.5523 136.38C35.4323 135.913 36.419 135.68 37.5123 135.68C38.6057 135.68 39.5923 135.913 40.4723 136.38C41.3523 136.847 42.0457 137.52 42.5523 138.4C43.059 139.267 43.3123 140.273 43.3123 141.42C43.3123 142.567 43.0523 143.58 42.5323 144.46C42.0257 145.327 41.3257 145.993 40.4323 146.46C39.5523 146.927 38.5657 147.16 37.4723 147.16ZM37.4723 144.2C38.1257 144.2 38.679 143.96 39.1323 143.48C39.599 143 39.8323 142.313 39.8323 141.42C39.8323 140.527 39.6057 139.84 39.1523 139.36C38.7123 138.88 38.1657 138.64 37.5123 138.64C36.8457 138.64 36.2923 138.88 35.8523 139.36C35.4123 139.827 35.1923 140.513 35.1923 141.42C35.1923 142.313 35.4057 143 35.8323 143.48C36.2723 143.96 36.819 144.2 37.4723 144.2ZM59.3667 135.72C60.7534 135.72 61.8534 136.14 62.6667 136.98C63.4934 137.82 63.9067 138.987 63.9067 140.48V147H60.5067V140.94C60.5067 140.22 60.3134 139.667 59.9267 139.28C59.5534 138.88 59.0334 138.68 58.3667 138.68C57.7001 138.68 57.1734 138.88 56.7867 139.28C56.4134 139.667 56.2267 140.22 56.2267 140.94V147H52.8267V140.94C52.8267 140.22 52.6334 139.667 52.2467 139.28C51.8734 138.88 51.3534 138.68 50.6867 138.68C50.0201 138.68 49.4934 138.88 49.1067 139.28C48.7334 139.667 48.5467 140.22 48.5467 140.94V147H45.1267V135.84H48.5467V137.24C48.8934 136.773 49.3467 136.407 49.9067 136.14C50.4667 135.86 51.1001 135.72 51.8067 135.72C52.6467 135.72 53.3934 135.9 54.0467 136.26C54.7134 136.62 55.2334 137.133 55.6067 137.8C55.9934 137.187 56.5201 136.687 57.1867 136.3C57.8534 135.913 58.5801 135.72 59.3667 135.72ZM76.8186 141.24C76.8186 141.56 76.7986 141.893 76.7586 142.24H69.0186C69.0719 142.933 69.2919 143.467 69.6786 143.84C70.0786 144.2 70.5653 144.38 71.1386 144.38C71.9919 144.38 72.5853 144.02 72.9186 143.3H76.5586C76.3719 144.033 76.0319 144.693 75.5386 145.28C75.0586 145.867 74.4519 146.327 73.7186 146.66C72.9853 146.993 72.1653 147.16 71.2586 147.16C70.1653 147.16 69.1919 146.927 68.3386 146.46C67.4853 145.993 66.8186 145.327 66.3386 144.46C65.8586 143.593 65.6186 142.58 65.6186 141.42C65.6186 140.26 65.8519 139.247 66.3186 138.38C66.7986 137.513 67.4653 136.847 68.3186 136.38C69.1719 135.913 70.1519 135.68 71.2586 135.68C72.3386 135.68 73.2986 135.907 74.1386 136.36C74.9786 136.813 75.6319 137.46 76.0986 138.3C76.5786 139.14 76.8186 140.12 76.8186 141.24ZM73.3186 140.34C73.3186 139.753 73.1186 139.287 72.7186 138.94C72.3186 138.593 71.8186 138.42 71.2186 138.42C70.6453 138.42 70.1586 138.587 69.7586 138.92C69.3719 139.253 69.1319 139.727 69.0386 140.34H73.3186ZM84.8428 144.1V147H83.1028C81.8628 147 80.8961 146.7 80.2028 146.1C79.5095 145.487 79.1628 144.493 79.1628 143.12V138.68H77.8028V135.84H79.1628V133.12H82.5828V135.84H84.8228V138.68H82.5828V143.16C82.5828 143.493 82.6628 143.733 82.8228 143.88C82.9828 144.027 83.2495 144.1 83.6228 144.1H84.8428ZM93.6078 135.72C94.8878 135.72 95.9145 136.147 96.6878 137C97.4611 137.84 97.8478 139 97.8478 140.48V147H94.4478V140.94C94.4478 140.193 94.2545 139.613 93.8678 139.2C93.4811 138.787 92.9611 138.58 92.3078 138.58C91.6545 138.58 91.1345 138.787 90.7478 139.2C90.3611 139.613 90.1678 140.193 90.1678 140.94V147H86.7478V132.2H90.1678V137.34C90.5145 136.847 90.9878 136.453 91.5878 136.16C92.1878 135.867 92.8611 135.72 93.6078 135.72ZM101.944 134.68C101.344 134.68 100.851 134.507 100.464 134.16C100.091 133.8 99.9044 133.36 99.9044 132.84C99.9044 132.307 100.091 131.867 100.464 131.52C100.851 131.16 101.344 130.98 101.944 130.98C102.531 130.98 103.011 131.16 103.384 131.52C103.771 131.867 103.964 132.307 103.964 132.84C103.964 133.36 103.771 133.8 103.384 134.16C103.011 134.507 102.531 134.68 101.944 134.68ZM103.644 135.84V147H100.224V135.84H103.644ZM112.923 135.72C114.229 135.72 115.269 136.147 116.043 137C116.829 137.84 117.223 139 117.223 140.48V147H113.823V140.94C113.823 140.193 113.629 139.613 113.243 139.2C112.856 138.787 112.336 138.58 111.683 138.58C111.029 138.58 110.509 138.787 110.123 139.2C109.736 139.613 109.543 140.193 109.543 140.94V147H106.123V135.84H109.543V137.32C109.889 136.827 110.356 136.44 110.943 136.16C111.529 135.867 112.189 135.72 112.923 135.72ZM123.839 135.68C124.626 135.68 125.313 135.84 125.899 136.16C126.499 136.48 126.959 136.9 127.279 137.42V135.84H130.699V146.98C130.699 148.007 130.493 148.933 130.079 149.76C129.679 150.6 129.059 151.267 128.219 151.76C127.393 152.253 126.359 152.5 125.119 152.5C123.466 152.5 122.126 152.107 121.099 151.32C120.073 150.547 119.486 149.493 119.339 148.16H122.719C122.826 148.587 123.079 148.92 123.479 149.16C123.879 149.413 124.373 149.54 124.959 149.54C125.666 149.54 126.226 149.333 126.639 148.92C127.066 148.52 127.279 147.873 127.279 146.98V145.4C126.946 145.92 126.486 146.347 125.899 146.68C125.313 147 124.626 147.16 123.839 147.16C122.919 147.16 122.086 146.927 121.339 146.46C120.593 145.98 119.999 145.307 119.559 144.44C119.133 143.56 118.919 142.547 118.919 141.4C118.919 140.253 119.133 139.247 119.559 138.38C119.999 137.513 120.593 136.847 121.339 136.38C122.086 135.913 122.919 135.68 123.839 135.68ZM127.279 141.42C127.279 140.567 127.039 139.893 126.559 139.4C126.093 138.907 125.519 138.66 124.839 138.66C124.159 138.66 123.579 138.907 123.099 139.4C122.633 139.88 122.399 140.547 122.399 141.4C122.399 142.253 122.633 142.933 123.099 143.44C123.579 143.933 124.159 144.18 124.839 144.18C125.519 144.18 126.093 143.933 126.559 143.44C127.039 142.947 127.279 142.273 127.279 141.42ZM137.674 132.46L137.274 142.04H134.374L133.974 132.46H137.674ZM135.874 147.16C135.274 147.16 134.78 146.987 134.394 146.64C134.02 146.28 133.834 145.84 133.834 145.32C133.834 144.787 134.02 144.34 134.394 143.98C134.78 143.62 135.274 143.44 135.874 143.44C136.46 143.44 136.94 143.62 137.314 143.98C137.7 144.34 137.894 144.787 137.894 145.32C137.894 145.84 137.7 146.28 137.314 146.64C136.94 146.987 136.46 147.16 135.874 147.16Z" fill="white"/>
</svg>
