<svg width="338" height="200" viewBox="0 0 338 200" fill="none" xmlns="http://www.w3.org/2000/svg">
<rect width="338" height="200" fill="#0A466A"/>
<path d="M311.164 154.545H307.328V175.758H311.164V154.545Z" fill="white"/>
<path d="M315 162.402H307.328V167.901H315V162.402Z" fill="white"/>
<path d="M312.172 154.545H304.5V160.045H312.172V154.545Z" fill="white"/>
<path d="M312.172 170.258H304.5V175.758H312.172V170.258Z" fill="white"/>
<path d="M298.351 154.545H294.675V175.758H298.351V154.545Z" fill="white"/>
<path d="M301.06 170.258H293.709V175.758H301.06V170.258Z" fill="white"/>
<path d="M301.06 154.545H293.709V160.045H301.06V154.545Z" fill="white"/>
<path d="M298.351 162.402H291V167.901H298.351V162.402Z" fill="white"/>
<rect x="20" y="40.404" width="79" height="4" fill="#1B6BFF"/>
<path d="M33.4 55.4549V69.4949H29.98V63.7149H24.66V69.4949H21.24V55.4549H24.66V60.9549H29.98V55.4549H33.4ZM46.3889 63.7349C46.3889 64.0549 46.3689 64.3883 46.3289 64.7349H38.5889C38.6422 65.4283 38.8622 65.9616 39.2489 66.3349C39.6489 66.6949 40.1356 66.8749 40.7089 66.8749C41.5622 66.8749 42.1556 66.5149 42.4889 65.7949H46.1289C45.9422 66.5283 45.6022 67.1883 45.1089 67.7749C44.6289 68.3616 44.0222 68.8216 43.2889 69.1549C42.5556 69.4883 41.7356 69.6549 40.8289 69.6549C39.7356 69.6549 38.7622 69.4216 37.9089 68.9549C37.0556 68.4883 36.3889 67.8216 35.9089 66.9549C35.4289 66.0883 35.1889 65.0749 35.1889 63.9149C35.1889 62.7549 35.4222 61.7416 35.8889 60.8749C36.3689 60.0083 37.0356 59.3416 37.8889 58.8749C38.7422 58.4083 39.7222 58.1749 40.8289 58.1749C41.9089 58.1749 42.8689 58.4016 43.7089 58.8549C44.5489 59.3083 45.2022 59.9549 45.6689 60.7949C46.1489 61.6349 46.3889 62.6149 46.3889 63.7349ZM42.8889 62.8349C42.8889 62.2483 42.6889 61.7816 42.2889 61.4349C41.8889 61.0883 41.3889 60.9149 40.7889 60.9149C40.2156 60.9149 39.7289 61.0816 39.3289 61.4149C38.9422 61.7483 38.7022 62.2216 38.6089 62.8349H42.8889ZM51.6131 54.6949V69.4949H48.1931V54.6949H51.6131ZM57.5116 59.9149C57.8449 59.3949 58.3049 58.9749 58.8916 58.6549C59.4782 58.3349 60.1649 58.1749 60.9516 58.1749C61.8716 58.1749 62.7049 58.4083 63.4516 58.8749C64.1982 59.3416 64.7849 60.0083 65.2116 60.8749C65.6516 61.7416 65.8716 62.7483 65.8716 63.8949C65.8716 65.0416 65.6516 66.0549 65.2116 66.9349C64.7849 67.8016 64.1982 68.4749 63.4516 68.9549C62.7049 69.4216 61.8716 69.6549 60.9516 69.6549C60.1782 69.6549 59.4916 69.4949 58.8916 69.1749C58.3049 68.8549 57.8449 68.4416 57.5116 67.9349V74.8149H54.0916V58.3349H57.5116V59.9149ZM62.3916 63.8949C62.3916 63.0416 62.1516 62.3749 61.6716 61.8949C61.2049 61.4016 60.6249 61.1549 59.9316 61.1549C59.2516 61.1549 58.6716 61.4016 58.1916 61.8949C57.7249 62.3883 57.4916 63.0616 57.4916 63.9149C57.4916 64.7683 57.7249 65.4416 58.1916 65.9349C58.6716 66.4283 59.2516 66.6749 59.9316 66.6749C60.6116 66.6749 61.1916 66.4283 61.6716 65.9349C62.1516 65.4283 62.3916 64.7483 62.3916 63.8949ZM82.9241 58.3349V69.4949H79.5041V67.9749C79.1574 68.4683 78.6841 68.8683 78.0841 69.1749C77.4974 69.4683 76.8441 69.6149 76.1241 69.6149C75.2707 69.6149 74.5174 69.4283 73.8641 69.0549C73.2107 68.6683 72.7041 68.1149 72.3441 67.3949C71.9841 66.6749 71.8041 65.8283 71.8041 64.8549V58.3349H75.2041V64.3949C75.2041 65.1416 75.3974 65.7216 75.7841 66.1349C76.1707 66.5483 76.6907 66.7549 77.3441 66.7549C78.0107 66.7549 78.5374 66.5483 78.9241 66.1349C79.3107 65.7216 79.5041 65.1416 79.5041 64.3949V58.3349H82.9241ZM89.9206 69.6549C88.9473 69.6549 88.0806 69.4883 87.3206 69.1549C86.5606 68.8216 85.9606 68.3683 85.5206 67.7949C85.0806 67.2083 84.834 66.5549 84.7806 65.8349H88.1606C88.2006 66.2216 88.3806 66.5349 88.7006 66.7749C89.0206 67.0149 89.414 67.1349 89.8806 67.1349C90.3073 67.1349 90.634 67.0549 90.8606 66.8949C91.1006 66.7216 91.2206 66.5016 91.2206 66.2349C91.2206 65.9149 91.054 65.6816 90.7206 65.5349C90.3873 65.3749 89.8473 65.2016 89.1006 65.0149C88.3006 64.8283 87.634 64.6349 87.1006 64.4349C86.5673 64.2216 86.1073 63.8949 85.7206 63.4549C85.334 63.0016 85.1406 62.3949 85.1406 61.6349C85.1406 60.9949 85.314 60.4149 85.6606 59.8949C86.0206 59.3616 86.5406 58.9416 87.2206 58.6349C87.914 58.3283 88.734 58.1749 89.6806 58.1749C91.0806 58.1749 92.1806 58.5216 92.9806 59.2149C93.794 59.9083 94.2606 60.8283 94.3806 61.9749H91.2206C91.1673 61.5883 90.994 61.2816 90.7006 61.0549C90.4206 60.8283 90.0473 60.7149 89.5806 60.7149C89.1806 60.7149 88.874 60.7949 88.6606 60.9549C88.4473 61.1016 88.3406 61.3083 88.3406 61.5749C88.3406 61.8949 88.5073 62.1349 88.8406 62.2949C89.1873 62.4549 89.7206 62.6149 90.4406 62.7749C91.2673 62.9883 91.9406 63.2016 92.4606 63.4149C92.9806 63.6149 93.434 63.9483 93.8206 64.4149C94.2206 64.8683 94.4273 65.4816 94.4406 66.2549C94.4406 66.9083 94.254 67.4949 93.8806 68.0149C93.5206 68.5216 92.994 68.9216 92.3006 69.2149C91.6206 69.5083 90.8273 69.6549 89.9206 69.6549ZM105.011 58.1749C105.798 58.1749 106.485 58.3349 107.071 58.6549C107.671 58.9749 108.131 59.3949 108.451 59.9149V58.3349H111.871V69.4749C111.871 70.5016 111.665 71.4283 111.251 72.2549C110.851 73.0949 110.231 73.7616 109.391 74.2549C108.565 74.7483 107.531 74.9949 106.291 74.9949C104.638 74.9949 103.298 74.6016 102.271 73.8149C101.245 73.0416 100.658 71.9883 100.511 70.6549H103.891C103.998 71.0816 104.251 71.4149 104.651 71.6549C105.051 71.9083 105.545 72.0349 106.131 72.0349C106.838 72.0349 107.398 71.8283 107.811 71.4149C108.238 71.0149 108.451 70.3683 108.451 69.4749V67.8949C108.118 68.4149 107.658 68.8416 107.071 69.1749C106.485 69.4949 105.798 69.6549 105.011 69.6549C104.091 69.6549 103.258 69.4216 102.511 68.9549C101.765 68.4749 101.171 67.8016 100.731 66.9349C100.305 66.0549 100.091 65.0416 100.091 63.8949C100.091 62.7483 100.305 61.7416 100.731 60.8749C101.171 60.0083 101.765 59.3416 102.511 58.8749C103.258 58.4083 104.091 58.1749 105.011 58.1749ZM108.451 63.9149C108.451 63.0616 108.211 62.3883 107.731 61.8949C107.265 61.4016 106.691 61.1549 106.011 61.1549C105.331 61.1549 104.751 61.4016 104.271 61.8949C103.805 62.3749 103.571 63.0416 103.571 63.8949C103.571 64.7483 103.805 65.4283 104.271 65.9349C104.751 66.4283 105.331 66.6749 106.011 66.6749C106.691 66.6749 107.265 66.4283 107.731 65.9349C108.211 65.4416 108.451 64.7683 108.451 63.9149ZM117.765 60.1949C118.165 59.5816 118.665 59.1016 119.265 58.7549C119.865 58.3949 120.532 58.2149 121.265 58.2149V61.8349H120.325C119.472 61.8349 118.832 62.0216 118.405 62.3949C117.979 62.7549 117.765 63.3949 117.765 64.3149V69.4949H114.345V58.3349H117.765V60.1949ZM127.98 69.6549C126.887 69.6549 125.9 69.4216 125.02 68.9549C124.153 68.4883 123.467 67.8216 122.96 66.9549C122.467 66.0883 122.22 65.0749 122.22 63.9149C122.22 62.7683 122.473 61.7616 122.98 60.8949C123.487 60.0149 124.18 59.3416 125.06 58.8749C125.94 58.4083 126.927 58.1749 128.02 58.1749C129.113 58.1749 130.1 58.4083 130.98 58.8749C131.86 59.3416 132.553 60.0149 133.06 60.8949C133.567 61.7616 133.82 62.7683 133.82 63.9149C133.82 65.0616 133.56 66.0749 133.04 66.9549C132.533 67.8216 131.833 68.4883 130.94 68.9549C130.06 69.4216 129.073 69.6549 127.98 69.6549ZM127.98 66.6949C128.633 66.6949 129.187 66.4549 129.64 65.9749C130.107 65.4949 130.34 64.8083 130.34 63.9149C130.34 63.0216 130.113 62.3349 129.66 61.8549C129.22 61.3749 128.673 61.1349 128.02 61.1349C127.353 61.1349 126.8 61.3749 126.36 61.8549C125.92 62.3216 125.7 63.0083 125.7 63.9149C125.7 64.8083 125.913 65.4949 126.34 65.9749C126.78 66.4549 127.327 66.6949 127.98 66.6949ZM151.655 58.3349L148.635 69.4949H144.855L143.095 62.2549L141.275 69.4949H137.515L134.475 58.3349H137.895L139.475 66.3149L141.355 58.3349H144.975L146.875 66.2749L148.435 58.3349H151.655ZM154.679 57.1749C154.079 57.1749 153.585 57.0016 153.199 56.6549C152.825 56.2949 152.639 55.8549 152.639 55.3349C152.639 54.8016 152.825 54.3616 153.199 54.0149C153.585 53.6549 154.079 53.4749 154.679 53.4749C155.265 53.4749 155.745 53.6549 156.119 54.0149C156.505 54.3616 156.699 54.8016 156.699 55.3349C156.699 55.8549 156.505 56.2949 156.119 56.6549C155.745 57.0016 155.265 57.1749 154.679 57.1749ZM156.379 58.3349V69.4949H152.959V58.3349H156.379ZM165.657 58.2149C166.964 58.2149 168.004 58.6416 168.777 59.4949C169.564 60.3349 169.957 61.4949 169.957 62.9749V69.4949H166.557V63.4349C166.557 62.6883 166.364 62.1083 165.977 61.6949C165.591 61.2816 165.071 61.0749 164.417 61.0749C163.764 61.0749 163.244 61.2816 162.857 61.6949C162.471 62.1083 162.277 62.6883 162.277 63.4349V69.4949H158.857V58.3349H162.277V59.8149C162.624 59.3216 163.091 58.9349 163.677 58.6549C164.264 58.3616 164.924 58.2149 165.657 58.2149ZM176.574 58.1749C177.36 58.1749 178.047 58.3349 178.634 58.6549C179.234 58.9749 179.694 59.3949 180.014 59.9149V58.3349H183.434V69.4749C183.434 70.5016 183.227 71.4283 182.814 72.2549C182.414 73.0949 181.794 73.7616 180.954 74.2549C180.127 74.7483 179.094 74.9949 177.854 74.9949C176.2 74.9949 174.86 74.6016 173.834 73.8149C172.807 73.0416 172.22 71.9883 172.074 70.6549H175.454C175.56 71.0816 175.814 71.4149 176.214 71.6549C176.614 71.9083 177.107 72.0349 177.694 72.0349C178.4 72.0349 178.96 71.8283 179.374 71.4149C179.8 71.0149 180.014 70.3683 180.014 69.4749V67.8949C179.68 68.4149 179.22 68.8416 178.634 69.1749C178.047 69.4949 177.36 69.6549 176.574 69.6549C175.654 69.6549 174.82 69.4216 174.074 68.9549C173.327 68.4749 172.734 67.8016 172.294 66.9349C171.867 66.0549 171.654 65.0416 171.654 63.8949C171.654 62.7483 171.867 61.7416 172.294 60.8749C172.734 60.0083 173.327 59.3416 174.074 58.8749C174.82 58.4083 175.654 58.1749 176.574 58.1749ZM180.014 63.9149C180.014 63.0616 179.774 62.3883 179.294 61.8949C178.827 61.4016 178.254 61.1549 177.574 61.1549C176.894 61.1549 176.314 61.4016 175.834 61.8949C175.367 62.3749 175.134 63.0416 175.134 63.8949C175.134 64.7483 175.367 65.4283 175.834 65.9349C176.314 66.4283 176.894 66.6749 177.574 66.6749C178.254 66.6749 178.827 66.4283 179.294 65.9349C179.774 65.4416 180.014 64.7683 180.014 63.9149ZM196.366 66.5949V69.4949H194.626C193.386 69.4949 192.42 69.1949 191.726 68.5949C191.033 67.9816 190.686 66.9883 190.686 65.6149V61.1749H189.326V58.3349H190.686V55.6149H194.106V58.3349H196.346V61.1749H194.106V65.6549C194.106 65.9883 194.186 66.2283 194.346 66.3749C194.506 66.5216 194.773 66.5949 195.146 66.5949H196.366ZM205.131 58.2149C206.411 58.2149 207.438 58.6416 208.211 59.4949C208.985 60.3349 209.371 61.4949 209.371 62.9749V69.4949H205.971V63.4349C205.971 62.6883 205.778 62.1083 205.391 61.6949C205.005 61.2816 204.485 61.0749 203.831 61.0749C203.178 61.0749 202.658 61.2816 202.271 61.6949C201.885 62.1083 201.691 62.6883 201.691 63.4349V69.4949H198.271V54.6949H201.691V59.8349C202.038 59.3416 202.511 58.9483 203.111 58.6549C203.711 58.3616 204.385 58.2149 205.131 58.2149ZM213.468 57.1749C212.868 57.1749 212.374 57.0016 211.988 56.6549C211.614 56.2949 211.428 55.8549 211.428 55.3349C211.428 54.8016 211.614 54.3616 211.988 54.0149C212.374 53.6549 212.868 53.4749 213.468 53.4749C214.054 53.4749 214.534 53.6549 214.908 54.0149C215.294 54.3616 215.488 54.8016 215.488 55.3349C215.488 55.8549 215.294 56.2949 214.908 56.6549C214.534 57.0016 214.054 57.1749 213.468 57.1749ZM215.168 58.3349V69.4949H211.748V58.3349H215.168ZM222.186 69.6549C221.213 69.6549 220.346 69.4883 219.586 69.1549C218.826 68.8216 218.226 68.3683 217.786 67.7949C217.346 67.2083 217.1 66.5549 217.046 65.8349H220.426C220.466 66.2216 220.646 66.5349 220.966 66.7749C221.286 67.0149 221.68 67.1349 222.146 67.1349C222.573 67.1349 222.9 67.0549 223.126 66.8949C223.366 66.7216 223.486 66.5016 223.486 66.2349C223.486 65.9149 223.32 65.6816 222.986 65.5349C222.653 65.3749 222.113 65.2016 221.366 65.0149C220.566 64.8283 219.9 64.6349 219.366 64.4349C218.833 64.2216 218.373 63.8949 217.986 63.4549C217.6 63.0016 217.406 62.3949 217.406 61.6349C217.406 60.9949 217.58 60.4149 217.926 59.8949C218.286 59.3616 218.806 58.9416 219.486 58.6349C220.18 58.3283 221 58.1749 221.946 58.1749C223.346 58.1749 224.446 58.5216 225.246 59.2149C226.06 59.9083 226.526 60.8283 226.646 61.9749H223.486C223.433 61.5883 223.26 61.2816 222.966 61.0549C222.686 60.8283 222.313 60.7149 221.846 60.7149C221.446 60.7149 221.14 60.7949 220.926 60.9549C220.713 61.1016 220.606 61.3083 220.606 61.5749C220.606 61.8949 220.773 62.1349 221.106 62.2949C221.453 62.4549 221.986 62.6149 222.706 62.7749C223.533 62.9883 224.206 63.2016 224.726 63.4149C225.246 63.6149 225.7 63.9483 226.086 64.4149C226.486 64.8683 226.693 65.4816 226.706 66.2549C226.706 66.9083 226.52 67.4949 226.146 68.0149C225.786 68.5216 225.26 68.9216 224.566 69.2149C223.886 69.5083 223.093 69.6549 222.186 69.6549ZM249.057 58.3349L246.037 69.4949H242.257L240.497 62.2549L238.677 69.4949H234.917L231.877 58.3349H235.297L236.877 66.3149L238.757 58.3349H242.377L244.277 66.2749L245.837 58.3349H249.057ZM260.881 63.7349C260.881 64.0549 260.861 64.3883 260.821 64.7349H253.081C253.134 65.4283 253.354 65.9616 253.741 66.3349C254.141 66.6949 254.628 66.8749 255.201 66.8749C256.054 66.8749 256.648 66.5149 256.981 65.7949H260.621C260.434 66.5283 260.094 67.1883 259.601 67.7749C259.121 68.3616 258.514 68.8216 257.781 69.1549C257.048 69.4883 256.228 69.6549 255.321 69.6549C254.228 69.6549 253.254 69.4216 252.401 68.9549C251.548 68.4883 250.881 67.8216 250.401 66.9549C249.921 66.0883 249.681 65.0749 249.681 63.9149C249.681 62.7549 249.914 61.7416 250.381 60.8749C250.861 60.0083 251.528 59.3416 252.381 58.8749C253.234 58.4083 254.214 58.1749 255.321 58.1749C256.401 58.1749 257.361 58.4016 258.201 58.8549C259.041 59.3083 259.694 59.9549 260.161 60.7949C260.641 61.6349 260.881 62.6149 260.881 63.7349ZM257.381 62.8349C257.381 62.2483 257.181 61.7816 256.781 61.4349C256.381 61.0883 255.881 60.9149 255.281 60.9149C254.708 60.9149 254.221 61.0816 253.821 61.4149C253.434 61.7483 253.194 62.2216 253.101 62.8349H257.381ZM266.105 59.9149C266.425 59.3949 266.885 58.9749 267.485 58.6549C268.085 58.3349 268.772 58.1749 269.545 58.1749C270.465 58.1749 271.299 58.4083 272.045 58.8749C272.792 59.3416 273.379 60.0083 273.805 60.8749C274.245 61.7416 274.465 62.7483 274.465 63.8949C274.465 65.0416 274.245 66.0549 273.805 66.9349C273.379 67.8016 272.792 68.4749 272.045 68.9549C271.299 69.4216 270.465 69.6549 269.545 69.6549C268.759 69.6549 268.072 69.5016 267.485 69.1949C266.899 68.8749 266.439 68.4549 266.105 67.9349V69.4949H262.685V54.6949H266.105V59.9149ZM270.985 63.8949C270.985 63.0416 270.745 62.3749 270.265 61.8949C269.799 61.4016 269.219 61.1549 268.525 61.1549C267.845 61.1549 267.265 61.4016 266.785 61.8949C266.319 62.3883 266.085 63.0616 266.085 63.9149C266.085 64.7683 266.319 65.4416 266.785 65.9349C267.265 66.4283 267.845 66.6749 268.525 66.6749C269.205 66.6749 269.785 66.4283 270.265 65.9349C270.745 65.4283 270.985 64.7483 270.985 63.8949ZM280.8 69.6549C279.826 69.6549 278.96 69.4883 278.2 69.1549C277.44 68.8216 276.84 68.3683 276.4 67.7949C275.96 67.2083 275.713 66.5549 275.66 65.8349H279.04C279.08 66.2216 279.26 66.5349 279.58 66.7749C279.9 67.0149 280.293 67.1349 280.76 67.1349C281.186 67.1349 281.513 67.0549 281.74 66.8949C281.98 66.7216 282.1 66.5016 282.1 66.2349C282.1 65.9149 281.933 65.6816 281.6 65.5349C281.266 65.3749 280.726 65.2016 279.98 65.0149C279.18 64.8283 278.513 64.6349 277.98 64.4349C277.446 64.2216 276.986 63.8949 276.6 63.4549C276.213 63.0016 276.02 62.3949 276.02 61.6349C276.02 60.9949 276.193 60.4149 276.54 59.8949C276.9 59.3616 277.42 58.9416 278.1 58.6349C278.793 58.3283 279.613 58.1749 280.56 58.1749C281.96 58.1749 283.06 58.5216 283.86 59.2149C284.673 59.9083 285.14 60.8283 285.26 61.9749H282.1C282.046 61.5883 281.873 61.2816 281.58 61.0549C281.3 60.8283 280.926 60.7149 280.46 60.7149C280.06 60.7149 279.753 60.7949 279.54 60.9549C279.326 61.1016 279.22 61.3083 279.22 61.5749C279.22 61.8949 279.386 62.1349 279.72 62.2949C280.066 62.4549 280.6 62.6149 281.32 62.7749C282.146 62.9883 282.82 63.2016 283.34 63.4149C283.86 63.6149 284.313 63.9483 284.7 64.4149C285.1 64.8683 285.306 65.4816 285.32 66.2549C285.32 66.9083 285.133 67.4949 284.76 68.0149C284.4 68.5216 283.873 68.9216 283.18 69.2149C282.5 69.5083 281.706 69.6549 280.8 69.6549ZM289.132 57.1749C288.532 57.1749 288.039 57.0016 287.652 56.6549C287.279 56.2949 287.092 55.8549 287.092 55.3349C287.092 54.8016 287.279 54.3616 287.652 54.0149C288.039 53.6549 288.532 53.4749 289.132 53.4749C289.719 53.4749 290.199 53.6549 290.572 54.0149C290.959 54.3616 291.152 54.8016 291.152 55.3349C291.152 55.8549 290.959 56.2949 290.572 56.6549C290.199 57.0016 289.719 57.1749 289.132 57.1749ZM290.832 58.3349V69.4949H287.412V58.3349H290.832ZM299.53 66.5949V69.4949H297.79C296.55 69.4949 295.584 69.1949 294.89 68.5949C294.197 67.9816 293.85 66.9883 293.85 65.6149V61.1749H292.49V58.3349H293.85V55.6149H297.27V58.3349H299.51V61.1749H297.27V65.6549C297.27 65.9883 297.35 66.2283 297.51 66.3749C297.67 66.5216 297.937 66.5949 298.31 66.5949H299.53ZM311.955 63.7349C311.955 64.0549 311.935 64.3883 311.895 64.7349H304.155C304.209 65.4283 304.429 65.9616 304.815 66.3349C305.215 66.6949 305.702 66.8749 306.275 66.8749C307.129 66.8749 307.722 66.5149 308.055 65.7949H311.695C311.509 66.5283 311.169 67.1883 310.675 67.7749C310.195 68.3616 309.589 68.8216 308.855 69.1549C308.122 69.4883 307.302 69.6549 306.395 69.6549C305.302 69.6549 304.329 69.4216 303.475 68.9549C302.622 68.4883 301.955 67.8216 301.475 66.9549C300.995 66.0883 300.755 65.0749 300.755 63.9149C300.755 62.7549 300.989 61.7416 301.455 60.8749C301.935 60.0083 302.602 59.3416 303.455 58.8749C304.309 58.4083 305.289 58.1749 306.395 58.1749C307.475 58.1749 308.435 58.4016 309.275 58.8549C310.115 59.3083 310.769 59.9549 311.235 60.7949C311.715 61.6349 311.955 62.6149 311.955 63.7349ZM308.455 62.8349C308.455 62.2483 308.255 61.7816 307.855 61.4349C307.455 61.0883 306.955 60.9149 306.355 60.9149C305.782 60.9149 305.295 61.0816 304.895 61.4149C304.509 61.7483 304.269 62.2216 304.175 62.8349H308.455ZM24.66 85.9149C24.98 85.3949 25.44 84.9749 26.04 84.6549C26.64 84.3349 27.3267 84.1749 28.1 84.1749C29.02 84.1749 29.8533 84.4083 30.6 84.8749C31.3467 85.3416 31.9333 86.0083 32.36 86.8749C32.8 87.7416 33.02 88.7483 33.02 89.8949C33.02 91.0416 32.8 92.0549 32.36 92.9349C31.9333 93.8016 31.3467 94.4749 30.6 94.9549C29.8533 95.4216 29.02 95.6549 28.1 95.6549C27.3133 95.6549 26.6267 95.5016 26.04 95.1949C25.4533 94.8749 24.9933 94.4549 24.66 93.9349V95.4949H21.24V80.6949H24.66V85.9149ZM29.54 89.8949C29.54 89.0416 29.3 88.3749 28.82 87.8949C28.3533 87.4016 27.7733 87.1549 27.08 87.1549C26.4 87.1549 25.82 87.4016 25.34 87.8949C24.8733 88.3883 24.64 89.0616 24.64 89.9149C24.64 90.7683 24.8733 91.4416 25.34 91.9349C25.82 92.4283 26.4 92.6749 27.08 92.6749C27.76 92.6749 28.34 92.4283 28.82 91.9349C29.3 91.4283 29.54 90.7483 29.54 89.8949ZM46.2142 84.3349L39.2142 100.795H35.5342L38.0942 95.1149L33.5542 84.3349H37.3742L39.9542 91.3149L42.5142 84.3349H46.2142ZM51.0092 89.8949C51.0092 88.7483 51.2226 87.7416 51.6492 86.8749C52.0892 86.0083 52.6826 85.3416 53.4292 84.8749C54.1759 84.4083 55.0092 84.1749 55.9292 84.1749C56.7159 84.1749 57.4026 84.3349 57.9892 84.6549C58.5892 84.9749 59.0492 85.3949 59.3692 85.9149V84.3349H62.7892V95.4949H59.3692V93.9149C59.0359 94.4349 58.5692 94.8549 57.9692 95.1749C57.3826 95.4949 56.6959 95.6549 55.9092 95.6549C55.0026 95.6549 54.1759 95.4216 53.4292 94.9549C52.6826 94.4749 52.0892 93.8016 51.6492 92.9349C51.2226 92.0549 51.0092 91.0416 51.0092 89.8949ZM59.3692 89.9149C59.3692 89.0616 59.1292 88.3883 58.6492 87.8949C58.1826 87.4016 57.6092 87.1549 56.9292 87.1549C56.2492 87.1549 55.6692 87.4016 55.1892 87.8949C54.7226 88.3749 54.4892 89.0416 54.4892 89.8949C54.4892 90.7483 54.7226 91.4283 55.1892 91.9349C55.6692 92.4283 56.2492 92.6749 56.9292 92.6749C57.6092 92.6749 58.1826 92.4283 58.6492 91.9349C59.1292 91.4416 59.3692 90.7683 59.3692 89.9149ZM64.5834 89.8949C64.5834 88.7483 64.7968 87.7416 65.2234 86.8749C65.6634 86.0083 66.2568 85.3416 67.0034 84.8749C67.7501 84.4083 68.5834 84.1749 69.5034 84.1749C70.2368 84.1749 70.9034 84.3283 71.5034 84.6349C72.1168 84.9416 72.5968 85.3549 72.9434 85.8749V80.6949H76.3634V95.4949H72.9434V93.8949C72.6234 94.4283 72.1634 94.8549 71.5634 95.1749C70.9768 95.4949 70.2901 95.6549 69.5034 95.6549C68.5834 95.6549 67.7501 95.4216 67.0034 94.9549C66.2568 94.4749 65.6634 93.8016 65.2234 92.9349C64.7968 92.0549 64.5834 91.0416 64.5834 89.8949ZM72.9434 89.9149C72.9434 89.0616 72.7034 88.3883 72.2234 87.8949C71.7568 87.4016 71.1834 87.1549 70.5034 87.1549C69.8234 87.1549 69.2434 87.4016 68.7634 87.8949C68.2968 88.3749 68.0634 89.0416 68.0634 89.8949C68.0634 90.7483 68.2968 91.4283 68.7634 91.9349C69.2434 92.4283 69.8234 92.6749 70.5034 92.6749C71.1834 92.6749 71.7568 92.4283 72.2234 91.9349C72.7034 91.4416 72.9434 90.7683 72.9434 89.9149ZM78.1577 89.8949C78.1577 88.7483 78.371 87.7416 78.7977 86.8749C79.2377 86.0083 79.831 85.3416 80.5777 84.8749C81.3243 84.4083 82.1577 84.1749 83.0777 84.1749C83.811 84.1749 84.4777 84.3283 85.0777 84.6349C85.691 84.9416 86.171 85.3549 86.5177 85.8749V80.6949H89.9377V95.4949H86.5177V93.8949C86.1977 94.4283 85.7377 94.8549 85.1377 95.1749C84.551 95.4949 83.8643 95.6549 83.0777 95.6549C82.1577 95.6549 81.3243 95.4216 80.5777 94.9549C79.831 94.4749 79.2377 93.8016 78.7977 92.9349C78.371 92.0549 78.1577 91.0416 78.1577 89.8949ZM86.5177 89.9149C86.5177 89.0616 86.2777 88.3883 85.7977 87.8949C85.331 87.4016 84.7577 87.1549 84.0777 87.1549C83.3977 87.1549 82.8177 87.4016 82.3377 87.8949C81.871 88.3749 81.6377 89.0416 81.6377 89.8949C81.6377 90.7483 81.871 91.4283 82.3377 91.9349C82.8177 92.4283 83.3977 92.6749 84.0777 92.6749C84.7577 92.6749 85.331 92.4283 85.7977 91.9349C86.2777 91.4416 86.5177 90.7683 86.5177 89.9149ZM94.1319 83.1749C93.5319 83.1749 93.0385 83.0016 92.6519 82.6549C92.2785 82.2949 92.0919 81.8549 92.0919 81.3349C92.0919 80.8016 92.2785 80.3616 92.6519 80.0149C93.0385 79.6549 93.5319 79.4749 94.1319 79.4749C94.7185 79.4749 95.1985 79.6549 95.5719 80.0149C95.9585 80.3616 96.1519 80.8016 96.1519 81.3349C96.1519 81.8549 95.9585 82.2949 95.5719 82.6549C95.1985 83.0016 94.7185 83.1749 94.1319 83.1749ZM95.8319 84.3349V95.4949H92.4119V84.3349H95.8319ZM105.11 84.2149C106.417 84.2149 107.457 84.6416 108.23 85.4949C109.017 86.3349 109.41 87.4949 109.41 88.9749V95.4949H106.01V89.4349C106.01 88.6883 105.817 88.1083 105.43 87.6949C105.044 87.2816 104.524 87.0749 103.87 87.0749C103.217 87.0749 102.697 87.2816 102.31 87.6949C101.924 88.1083 101.73 88.6883 101.73 89.4349V95.4949H98.3103V84.3349H101.73V85.8149C102.077 85.3216 102.544 84.9349 103.13 84.6549C103.717 84.3616 104.377 84.2149 105.11 84.2149ZM116.027 84.1749C116.814 84.1749 117.5 84.3349 118.087 84.6549C118.687 84.9749 119.147 85.3949 119.467 85.9149V84.3349H122.887V95.4749C122.887 96.5016 122.68 97.4283 122.267 98.2549C121.867 99.0949 121.247 99.7616 120.407 100.255C119.58 100.748 118.547 100.995 117.307 100.995C115.654 100.995 114.314 100.602 113.287 99.8149C112.26 99.0416 111.674 97.9883 111.527 96.6549H114.907C115.014 97.0816 115.267 97.4149 115.667 97.6549C116.067 97.9083 116.56 98.0349 117.147 98.0349C117.854 98.0349 118.414 97.8283 118.827 97.4149C119.254 97.0149 119.467 96.3683 119.467 95.4749V93.8949C119.134 94.4149 118.674 94.8416 118.087 95.1749C117.5 95.4949 116.814 95.6549 116.027 95.6549C115.107 95.6549 114.274 95.4216 113.527 94.9549C112.78 94.4749 112.187 93.8016 111.747 92.9349C111.32 92.0549 111.107 91.0416 111.107 89.8949C111.107 88.7483 111.32 87.7416 111.747 86.8749C112.187 86.0083 112.78 85.3416 113.527 84.8749C114.274 84.4083 115.107 84.1749 116.027 84.1749ZM119.467 89.9149C119.467 89.0616 119.227 88.3883 118.747 87.8949C118.28 87.4016 117.707 87.1549 117.027 87.1549C116.347 87.1549 115.767 87.4016 115.287 87.8949C114.82 88.3749 114.587 89.0416 114.587 89.8949C114.587 90.7483 114.82 91.4283 115.287 91.9349C115.767 92.4283 116.347 92.6749 117.027 92.6749C117.707 92.6749 118.28 92.4283 118.747 91.9349C119.227 91.4416 119.467 90.7683 119.467 89.9149ZM133.019 86.1949C133.419 85.5816 133.919 85.1016 134.519 84.7549C135.119 84.3949 135.786 84.2149 136.519 84.2149V87.8349H135.579C134.726 87.8349 134.086 88.0216 133.659 88.3949C133.233 88.7549 133.019 89.3949 133.019 90.3149V95.4949H129.599V84.3349H133.019V86.1949ZM148.674 89.7349C148.674 90.0549 148.654 90.3883 148.614 90.7349H140.874C140.927 91.4283 141.147 91.9616 141.534 92.3349C141.934 92.6949 142.421 92.8749 142.994 92.8749C143.847 92.8749 144.441 92.5149 144.774 91.7949H148.414C148.227 92.5283 147.887 93.1883 147.394 93.7749C146.914 94.3616 146.307 94.8216 145.574 95.1549C144.841 95.4883 144.021 95.6549 143.114 95.6549C142.021 95.6549 141.047 95.4216 140.194 94.9549C139.341 94.4883 138.674 93.8216 138.194 92.9549C137.714 92.0883 137.474 91.0749 137.474 89.9149C137.474 88.7549 137.707 87.7416 138.174 86.8749C138.654 86.0083 139.321 85.3416 140.174 84.8749C141.027 84.4083 142.007 84.1749 143.114 84.1749C144.194 84.1749 145.154 84.4016 145.994 84.8549C146.834 85.3083 147.487 85.9549 147.954 86.7949C148.434 87.6349 148.674 88.6149 148.674 89.7349ZM145.174 88.8349C145.174 88.2483 144.974 87.7816 144.574 87.4349C144.174 87.0883 143.674 86.9149 143.074 86.9149C142.501 86.9149 142.014 87.0816 141.614 87.4149C141.227 87.7483 140.987 88.2216 140.894 88.8349H145.174ZM155.018 95.6549C154.045 95.6549 153.178 95.4883 152.418 95.1549C151.658 94.8216 151.058 94.3683 150.618 93.7949C150.178 93.2083 149.932 92.5549 149.878 91.8349H153.258C153.298 92.2216 153.478 92.5349 153.798 92.7749C154.118 93.0149 154.512 93.1349 154.978 93.1349C155.405 93.1349 155.732 93.0549 155.958 92.8949C156.198 92.7216 156.318 92.5016 156.318 92.2349C156.318 91.9149 156.152 91.6816 155.818 91.5349C155.485 91.3749 154.945 91.2016 154.198 91.0149C153.398 90.8283 152.732 90.6349 152.198 90.4349C151.665 90.2216 151.205 89.8949 150.818 89.4549C150.432 89.0016 150.238 88.3949 150.238 87.6349C150.238 86.9949 150.412 86.4149 150.758 85.8949C151.118 85.3616 151.638 84.9416 152.318 84.6349C153.012 84.3283 153.832 84.1749 154.778 84.1749C156.178 84.1749 157.278 84.5216 158.078 85.2149C158.892 85.9083 159.358 86.8283 159.478 87.9749H156.318C156.265 87.5883 156.092 87.2816 155.798 87.0549C155.518 86.8283 155.145 86.7149 154.678 86.7149C154.278 86.7149 153.972 86.7949 153.758 86.9549C153.545 87.1016 153.438 87.3083 153.438 87.5749C153.438 87.8949 153.605 88.1349 153.938 88.2949C154.285 88.4549 154.818 88.6149 155.538 88.7749C156.365 88.9883 157.038 89.2016 157.558 89.4149C158.078 89.6149 158.532 89.9483 158.918 90.4149C159.318 90.8683 159.525 91.4816 159.538 92.2549C159.538 92.9083 159.352 93.4949 158.978 94.0149C158.618 94.5216 158.092 94.9216 157.398 95.2149C156.718 95.5083 155.925 95.6549 155.018 95.6549ZM166.711 95.6549C165.617 95.6549 164.631 95.4216 163.751 94.9549C162.884 94.4883 162.197 93.8216 161.691 92.9549C161.197 92.0883 160.951 91.0749 160.951 89.9149C160.951 88.7683 161.204 87.7616 161.711 86.8949C162.217 86.0149 162.911 85.3416 163.791 84.8749C164.671 84.4083 165.657 84.1749 166.751 84.1749C167.844 84.1749 168.831 84.4083 169.711 84.8749C170.591 85.3416 171.284 86.0149 171.791 86.8949C172.297 87.7616 172.551 88.7683 172.551 89.9149C172.551 91.0616 172.291 92.0749 171.771 92.9549C171.264 93.8216 170.564 94.4883 169.671 94.9549C168.791 95.4216 167.804 95.6549 166.711 95.6549ZM166.711 92.6949C167.364 92.6949 167.917 92.4549 168.371 91.9749C168.837 91.4949 169.071 90.8083 169.071 89.9149C169.071 89.0216 168.844 88.3349 168.391 87.8549C167.951 87.3749 167.404 87.1349 166.751 87.1349C166.084 87.1349 165.531 87.3749 165.091 87.8549C164.651 88.3216 164.431 89.0083 164.431 89.9149C164.431 90.8083 164.644 91.4949 165.071 91.9749C165.511 92.4549 166.057 92.6949 166.711 92.6949ZM185.385 84.3349V95.4949H181.965V93.9749C181.618 94.4683 181.145 94.8683 180.545 95.1749C179.958 95.4683 179.305 95.6149 178.585 95.6149C177.732 95.6149 176.978 95.4283 176.325 95.0549C175.672 94.6683 175.165 94.1149 174.805 93.3949C174.445 92.6749 174.265 91.8283 174.265 90.8549V84.3349H177.665V90.3949C177.665 91.1416 177.858 91.7216 178.245 92.1349C178.632 92.5483 179.152 92.7549 179.805 92.7549C180.472 92.7549 180.998 92.5483 181.385 92.1349C181.772 91.7216 181.965 91.1416 181.965 90.3949V84.3349H185.385ZM191.262 86.1949C191.662 85.5816 192.162 85.1016 192.762 84.7549C193.362 84.3949 194.028 84.2149 194.762 84.2149V87.8349H193.822C192.968 87.8349 192.328 88.0216 191.902 88.3949C191.475 88.7549 191.262 89.3949 191.262 90.3149V95.4949H187.842V84.3349H191.262V86.1949ZM195.716 89.9149C195.716 88.7549 195.95 87.7416 196.416 86.8749C196.896 86.0083 197.556 85.3416 198.396 84.8749C199.25 84.4083 200.223 84.1749 201.316 84.1749C202.716 84.1749 203.883 84.5416 204.816 85.2749C205.763 86.0083 206.383 87.0416 206.676 88.3749H203.036C202.73 87.5216 202.136 87.0949 201.256 87.0949C200.63 87.0949 200.13 87.3416 199.756 87.8349C199.383 88.3149 199.196 89.0083 199.196 89.9149C199.196 90.8216 199.383 91.5216 199.756 92.0149C200.13 92.4949 200.63 92.7349 201.256 92.7349C202.136 92.7349 202.73 92.3083 203.036 91.4549H206.676C206.383 92.7616 205.763 93.7883 204.816 94.5349C203.87 95.2816 202.703 95.6549 201.316 95.6549C200.223 95.6549 199.25 95.4216 198.396 94.9549C197.556 94.4883 196.896 93.8216 196.416 92.9549C195.95 92.0883 195.716 91.0749 195.716 89.9149ZM219.026 89.7349C219.026 90.0549 219.006 90.3883 218.966 90.7349H211.226C211.279 91.4283 211.499 91.9616 211.886 92.3349C212.286 92.6949 212.772 92.8749 213.346 92.8749C214.199 92.8749 214.792 92.5149 215.126 91.7949H218.766C218.579 92.5283 218.239 93.1883 217.746 93.7749C217.266 94.3616 216.659 94.8216 215.926 95.1549C215.192 95.4883 214.372 95.6549 213.466 95.6549C212.372 95.6549 211.399 95.4216 210.546 94.9549C209.692 94.4883 209.026 93.8216 208.546 92.9549C208.066 92.0883 207.826 91.0749 207.826 89.9149C207.826 88.7549 208.059 87.7416 208.526 86.8749C209.006 86.0083 209.672 85.3416 210.526 84.8749C211.379 84.4083 212.359 84.1749 213.466 84.1749C214.546 84.1749 215.506 84.4016 216.346 84.8549C217.186 85.3083 217.839 85.9549 218.306 86.7949C218.786 87.6349 219.026 88.6149 219.026 89.7349ZM215.526 88.8349C215.526 88.2483 215.326 87.7816 214.926 87.4349C214.526 87.0883 214.026 86.9149 213.426 86.9149C212.852 86.9149 212.366 87.0816 211.966 87.4149C211.579 87.7483 211.339 88.2216 211.246 88.8349H215.526ZM225.37 95.6549C224.397 95.6549 223.53 95.4883 222.77 95.1549C222.01 94.8216 221.41 94.3683 220.97 93.7949C220.53 93.2083 220.283 92.5549 220.23 91.8349H223.61C223.65 92.2216 223.83 92.5349 224.15 92.7749C224.47 93.0149 224.863 93.1349 225.33 93.1349C225.757 93.1349 226.083 93.0549 226.31 92.8949C226.55 92.7216 226.67 92.5016 226.67 92.2349C226.67 91.9149 226.503 91.6816 226.17 91.5349C225.837 91.3749 225.297 91.2016 224.55 91.0149C223.75 90.8283 223.083 90.6349 222.55 90.4349C222.017 90.2216 221.557 89.8949 221.17 89.4549C220.783 89.0016 220.59 88.3949 220.59 87.6349C220.59 86.9949 220.763 86.4149 221.11 85.8949C221.47 85.3616 221.99 84.9416 222.67 84.6349C223.363 84.3283 224.183 84.1749 225.13 84.1749C226.53 84.1749 227.63 84.5216 228.43 85.2149C229.243 85.9083 229.71 86.8283 229.83 87.9749H226.67C226.617 87.5883 226.443 87.2816 226.15 87.0549C225.87 86.8283 225.497 86.7149 225.03 86.7149C224.63 86.7149 224.323 86.7949 224.11 86.9549C223.897 87.1016 223.79 87.3083 223.79 87.5749C223.79 87.8949 223.957 88.1349 224.29 88.2949C224.637 88.4549 225.17 88.6149 225.89 88.7749C226.717 88.9883 227.39 89.2016 227.91 89.4149C228.43 89.6149 228.883 89.9483 229.27 90.4149C229.67 90.8683 229.877 91.4816 229.89 92.2549C229.89 92.9083 229.703 93.4949 229.33 94.0149C228.97 94.5216 228.443 94.9216 227.75 95.2149C227.07 95.5083 226.277 95.6549 225.37 95.6549ZM242.44 92.5949V95.4949H240.7C239.46 95.4949 238.494 95.1949 237.8 94.5949C237.107 93.9816 236.76 92.9883 236.76 91.6149V87.1749H235.4V84.3349H236.76V81.6149H240.18V84.3349H242.42V87.1749H240.18V91.6549C240.18 91.9883 240.26 92.2283 240.42 92.3749C240.58 92.5216 240.847 92.5949 241.22 92.5949H242.44ZM251.205 84.2149C252.485 84.2149 253.512 84.6416 254.285 85.4949C255.059 86.3349 255.445 87.4949 255.445 88.9749V95.4949H252.045V89.4349C252.045 88.6883 251.852 88.1083 251.465 87.6949C251.079 87.2816 250.559 87.0749 249.905 87.0749C249.252 87.0749 248.732 87.2816 248.345 87.6949C247.959 88.1083 247.765 88.6883 247.765 89.4349V95.4949H244.345V80.6949H247.765V85.8349C248.112 85.3416 248.585 84.9483 249.185 84.6549C249.785 84.3616 250.459 84.2149 251.205 84.2149ZM257.142 89.8949C257.142 88.7483 257.355 87.7416 257.782 86.8749C258.222 86.0083 258.815 85.3416 259.562 84.8749C260.309 84.4083 261.142 84.1749 262.062 84.1749C262.849 84.1749 263.535 84.3349 264.122 84.6549C264.722 84.9749 265.182 85.3949 265.502 85.9149V84.3349H268.922V95.4949H265.502V93.9149C265.169 94.4349 264.702 94.8549 264.102 95.1749C263.515 95.4949 262.829 95.6549 262.042 95.6549C261.135 95.6549 260.309 95.4216 259.562 94.9549C258.815 94.4749 258.222 93.8016 257.782 92.9349C257.355 92.0549 257.142 91.0416 257.142 89.8949ZM265.502 89.9149C265.502 89.0616 265.262 88.3883 264.782 87.8949C264.315 87.4016 263.742 87.1549 263.062 87.1549C262.382 87.1549 261.802 87.4016 261.322 87.8949C260.855 88.3749 260.622 89.0416 260.622 89.8949C260.622 90.7483 260.855 91.4283 261.322 91.9349C261.802 92.4283 262.382 92.6749 263.062 92.6749C263.742 92.6749 264.315 92.4283 264.782 91.9349C265.262 91.4416 265.502 90.7683 265.502 89.9149ZM277.616 92.5949V95.4949H275.876C274.636 95.4949 273.67 95.1949 272.976 94.5949C272.283 93.9816 271.936 92.9883 271.936 91.6149V87.1749H270.576V84.3349H271.936V81.6149H275.356V84.3349H277.596V87.1749H275.356V91.6549C275.356 91.9883 275.436 92.2283 275.596 92.3749C275.756 92.5216 276.023 92.5949 276.396 92.5949H277.616ZM25.48 110.175C26.2667 110.175 26.9533 110.335 27.54 110.655C28.14 110.975 28.6 111.395 28.92 111.915V110.335H32.34V121.475C32.34 122.502 32.1333 123.428 31.72 124.255C31.32 125.095 30.7 125.762 29.86 126.255C29.0333 126.748 28 126.995 26.76 126.995C25.1067 126.995 23.7667 126.602 22.74 125.815C21.7133 125.042 21.1267 123.988 20.98 122.655H24.36C24.4667 123.082 24.72 123.415 25.12 123.655C25.52 123.908 26.0133 124.035 26.6 124.035C27.3067 124.035 27.8667 123.828 28.28 123.415C28.7067 123.015 28.92 122.368 28.92 121.475V119.895C28.5867 120.415 28.1267 120.842 27.54 121.175C26.9533 121.495 26.2667 121.655 25.48 121.655C24.56 121.655 23.7267 121.422 22.98 120.955C22.2333 120.475 21.64 119.802 21.2 118.935C20.7733 118.055 20.56 117.042 20.56 115.895C20.56 114.748 20.7733 113.742 21.2 112.875C21.64 112.008 22.2333 111.342 22.98 110.875C23.7267 110.408 24.56 110.175 25.48 110.175ZM28.92 115.915C28.92 115.062 28.68 114.388 28.2 113.895C27.7333 113.402 27.16 113.155 26.48 113.155C25.8 113.155 25.22 113.402 24.74 113.895C24.2733 114.375 24.04 115.042 24.04 115.895C24.04 116.748 24.2733 117.428 24.74 117.935C25.22 118.428 25.8 118.675 26.48 118.675C27.16 118.675 27.7333 118.428 28.2 117.935C28.68 117.442 28.92 116.768 28.92 115.915ZM39.8942 121.655C38.8009 121.655 37.8142 121.422 36.9342 120.955C36.0676 120.488 35.3809 119.822 34.8742 118.955C34.3809 118.088 34.1342 117.075 34.1342 115.915C34.1342 114.768 34.3876 113.762 34.8942 112.895C35.4009 112.015 36.0942 111.342 36.9742 110.875C37.8542 110.408 38.8409 110.175 39.9342 110.175C41.0276 110.175 42.0142 110.408 42.8942 110.875C43.7742 111.342 44.4676 112.015 44.9742 112.895C45.4809 113.762 45.7342 114.768 45.7342 115.915C45.7342 117.062 45.4742 118.075 44.9542 118.955C44.4476 119.822 43.7476 120.488 42.8542 120.955C41.9742 121.422 40.9876 121.655 39.8942 121.655ZM39.8942 118.695C40.5476 118.695 41.1009 118.455 41.5542 117.975C42.0209 117.495 42.2542 116.808 42.2542 115.915C42.2542 115.022 42.0276 114.335 41.5742 113.855C41.1342 113.375 40.5876 113.135 39.9342 113.135C39.2676 113.135 38.7142 113.375 38.2742 113.855C37.8342 114.322 37.6142 115.008 37.6142 115.915C37.6142 116.808 37.8276 117.495 38.2542 117.975C38.6942 118.455 39.2409 118.695 39.8942 118.695ZM53.7686 118.595V121.495H52.0286C50.7886 121.495 49.8219 121.195 49.1286 120.595C48.4353 119.982 48.0886 118.988 48.0886 117.615V113.175H46.7286V110.335H48.0886V107.615H51.5086V110.335H53.7486V113.175H51.5086V117.655C51.5086 117.988 51.5886 118.228 51.7486 118.375C51.9086 118.522 52.1753 118.595 52.5486 118.595H53.7686ZM71.3119 110.335L64.3119 126.795H60.6319L63.1919 121.115L58.6519 110.335H62.4719L65.0519 117.315L67.6119 110.335H71.3119ZM77.6286 121.655C76.5353 121.655 75.5486 121.422 74.6686 120.955C73.8019 120.488 73.1153 119.822 72.6086 118.955C72.1153 118.088 71.8686 117.075 71.8686 115.915C71.8686 114.768 72.1219 113.762 72.6286 112.895C73.1353 112.015 73.8286 111.342 74.7086 110.875C75.5886 110.408 76.5753 110.175 77.6686 110.175C78.7619 110.175 79.7486 110.408 80.6286 110.875C81.5086 111.342 82.2019 112.015 82.7086 112.895C83.2153 113.762 83.4686 114.768 83.4686 115.915C83.4686 117.062 83.2086 118.075 82.6886 118.955C82.1819 119.822 81.4819 120.488 80.5886 120.955C79.7086 121.422 78.7219 121.655 77.6286 121.655ZM77.6286 118.695C78.2819 118.695 78.8353 118.455 79.2886 117.975C79.7553 117.495 79.9886 116.808 79.9886 115.915C79.9886 115.022 79.7619 114.335 79.3086 113.855C78.8686 113.375 78.3219 113.135 77.6686 113.135C77.0019 113.135 76.4486 113.375 76.0086 113.855C75.5686 114.322 75.3486 115.008 75.3486 115.915C75.3486 116.808 75.5619 117.495 75.9886 117.975C76.4286 118.455 76.9753 118.695 77.6286 118.695ZM96.303 110.335V121.495H92.883V119.975C92.5363 120.468 92.063 120.868 91.463 121.175C90.8763 121.468 90.223 121.615 89.503 121.615C88.6496 121.615 87.8963 121.428 87.243 121.055C86.5896 120.668 86.083 120.115 85.723 119.395C85.363 118.675 85.183 117.828 85.183 116.855V110.335H88.583V116.395C88.583 117.142 88.7763 117.722 89.163 118.135C89.5496 118.548 90.0696 118.755 90.723 118.755C91.3896 118.755 91.9163 118.548 92.303 118.135C92.6896 117.722 92.883 117.142 92.883 116.395V110.335H96.303ZM107.538 121.655C106.564 121.655 105.698 121.488 104.938 121.155C104.178 120.822 103.578 120.368 103.138 119.795C102.698 119.208 102.451 118.555 102.398 117.835H105.778C105.818 118.222 105.998 118.535 106.318 118.775C106.638 119.015 107.031 119.135 107.498 119.135C107.924 119.135 108.251 119.055 108.478 118.895C108.718 118.722 108.838 118.502 108.838 118.235C108.838 117.915 108.671 117.682 108.338 117.535C108.004 117.375 107.464 117.202 106.718 117.015C105.918 116.828 105.251 116.635 104.718 116.435C104.184 116.222 103.724 115.895 103.338 115.455C102.951 115.002 102.758 114.395 102.758 113.635C102.758 112.995 102.931 112.415 103.278 111.895C103.638 111.362 104.158 110.942 104.838 110.635C105.531 110.328 106.351 110.175 107.298 110.175C108.698 110.175 109.798 110.522 110.598 111.215C111.411 111.908 111.878 112.828 111.998 113.975H108.838C108.784 113.588 108.611 113.282 108.318 113.055C108.038 112.828 107.664 112.715 107.198 112.715C106.798 112.715 106.491 112.795 106.278 112.955C106.064 113.102 105.958 113.308 105.958 113.575C105.958 113.895 106.124 114.135 106.458 114.295C106.804 114.455 107.338 114.615 108.058 114.775C108.884 114.988 109.558 115.202 110.078 115.415C110.598 115.615 111.051 115.948 111.438 116.415C111.838 116.868 112.044 117.482 112.058 118.255C112.058 118.908 111.871 119.495 111.498 120.015C111.138 120.522 110.611 120.922 109.918 121.215C109.238 121.508 108.444 121.655 107.538 121.655ZM120.97 121.495L117.57 116.815V121.495H114.15V106.695H117.57V114.875L120.95 110.335H125.17L120.53 115.935L125.21 121.495H120.97ZM128.233 109.175C127.633 109.175 127.14 109.002 126.753 108.655C126.38 108.295 126.193 107.855 126.193 107.335C126.193 106.802 126.38 106.362 126.753 106.015C127.14 105.655 127.633 105.475 128.233 105.475C128.82 105.475 129.3 105.655 129.673 106.015C130.06 106.362 130.253 106.802 130.253 107.335C130.253 107.855 130.06 108.295 129.673 108.655C129.3 109.002 128.82 109.175 128.233 109.175ZM129.933 110.335V121.495H126.513V110.335H129.933ZM135.832 106.695V121.495H132.412V106.695H135.832ZM141.73 106.695V121.495H138.31V106.695H141.73ZM154.729 115.735C154.729 116.055 154.709 116.388 154.669 116.735H146.929C146.982 117.428 147.202 117.962 147.589 118.335C147.989 118.695 148.475 118.875 149.049 118.875C149.902 118.875 150.495 118.515 150.829 117.795H154.469C154.282 118.528 153.942 119.188 153.449 119.775C152.969 120.362 152.362 120.822 151.629 121.155C150.895 121.488 150.075 121.655 149.169 121.655C148.075 121.655 147.102 121.422 146.249 120.955C145.395 120.488 144.729 119.822 144.249 118.955C143.769 118.088 143.529 117.075 143.529 115.915C143.529 114.755 143.762 113.742 144.229 112.875C144.709 112.008 145.375 111.342 146.229 110.875C147.082 110.408 148.062 110.175 149.169 110.175C150.249 110.175 151.209 110.402 152.049 110.855C152.889 111.308 153.542 111.955 154.009 112.795C154.489 113.635 154.729 114.615 154.729 115.735ZM151.229 114.835C151.229 114.248 151.029 113.782 150.629 113.435C150.229 113.088 149.729 112.915 149.129 112.915C148.555 112.915 148.069 113.082 147.669 113.415C147.282 113.748 147.042 114.222 146.949 114.835H151.229ZM155.853 115.895C155.853 114.748 156.066 113.742 156.493 112.875C156.933 112.008 157.526 111.342 158.273 110.875C159.02 110.408 159.853 110.175 160.773 110.175C161.506 110.175 162.173 110.328 162.773 110.635C163.386 110.942 163.866 111.355 164.213 111.875V106.695H167.633V121.495H164.213V119.895C163.893 120.428 163.433 120.855 162.833 121.175C162.246 121.495 161.56 121.655 160.773 121.655C159.853 121.655 159.02 121.422 158.273 120.955C157.526 120.475 156.933 119.802 156.493 118.935C156.066 118.055 155.853 117.042 155.853 115.895ZM164.213 115.915C164.213 115.062 163.973 114.388 163.493 113.895C163.026 113.402 162.453 113.155 161.773 113.155C161.093 113.155 160.513 113.402 160.033 113.895C159.566 114.375 159.333 115.042 159.333 115.895C159.333 116.748 159.566 117.428 160.033 117.935C160.513 118.428 161.093 118.675 161.773 118.675C162.453 118.675 163.026 118.428 163.493 117.935C163.973 117.442 164.213 116.768 164.213 115.915ZM173.665 115.895C173.665 114.748 173.879 113.742 174.305 112.875C174.745 112.008 175.339 111.342 176.085 110.875C176.832 110.408 177.665 110.175 178.585 110.175C179.372 110.175 180.059 110.335 180.645 110.655C181.245 110.975 181.705 111.395 182.025 111.915V110.335H185.445V121.495H182.025V119.915C181.692 120.435 181.225 120.855 180.625 121.175C180.039 121.495 179.352 121.655 178.565 121.655C177.659 121.655 176.832 121.422 176.085 120.955C175.339 120.475 174.745 119.802 174.305 118.935C173.879 118.055 173.665 117.042 173.665 115.895ZM182.025 115.915C182.025 115.062 181.785 114.388 181.305 113.895C180.839 113.402 180.265 113.155 179.585 113.155C178.905 113.155 178.325 113.402 177.845 113.895C177.379 114.375 177.145 115.042 177.145 115.895C177.145 116.748 177.379 117.428 177.845 117.935C178.325 118.428 178.905 118.675 179.585 118.675C180.265 118.675 180.839 118.428 181.305 117.935C181.785 117.442 182.025 116.768 182.025 115.915ZM194.14 118.595V121.495H192.4C191.16 121.495 190.193 121.195 189.5 120.595C188.806 119.982 188.46 118.988 188.46 117.615V113.175H187.1V110.335H188.46V107.615H191.88V110.335H194.12V113.175H191.88V117.655C191.88 117.988 191.96 118.228 192.12 118.375C192.28 118.522 192.546 118.595 192.92 118.595H194.14ZM25.78 147.655C24.8067 147.655 23.94 147.488 23.18 147.155C22.42 146.822 21.82 146.368 21.38 145.795C20.94 145.208 20.6933 144.555 20.64 143.835H24.02C24.06 144.222 24.24 144.535 24.56 144.775C24.88 145.015 25.2733 145.135 25.74 145.135C26.1667 145.135 26.4933 145.055 26.72 144.895C26.96 144.722 27.08 144.502 27.08 144.235C27.08 143.915 26.9133 143.682 26.58 143.535C26.2467 143.375 25.7067 143.202 24.96 143.015C24.16 142.828 23.4933 142.635 22.96 142.435C22.4267 142.222 21.9667 141.895 21.58 141.455C21.1933 141.002 21 140.395 21 139.635C21 138.995 21.1733 138.415 21.52 137.895C21.88 137.362 22.4 136.942 23.08 136.635C23.7733 136.328 24.5933 136.175 25.54 136.175C26.94 136.175 28.04 136.522 28.84 137.215C29.6533 137.908 30.12 138.828 30.24 139.975H27.08C27.0267 139.588 26.8533 139.282 26.56 139.055C26.28 138.828 25.9067 138.715 25.44 138.715C25.04 138.715 24.7333 138.795 24.52 138.955C24.3067 139.102 24.2 139.308 24.2 139.575C24.2 139.895 24.3667 140.135 24.7 140.295C25.0467 140.455 25.58 140.615 26.3 140.775C27.1267 140.988 27.8 141.202 28.32 141.415C28.84 141.615 29.2933 141.948 29.68 142.415C30.08 142.868 30.2867 143.482 30.3 144.255C30.3 144.908 30.1133 145.495 29.74 146.015C29.38 146.522 28.8533 146.922 28.16 147.215C27.48 147.508 26.6867 147.655 25.78 147.655ZM37.4723 147.655C36.379 147.655 35.3923 147.422 34.5123 146.955C33.6457 146.488 32.959 145.822 32.4523 144.955C31.959 144.088 31.7123 143.075 31.7123 141.915C31.7123 140.768 31.9657 139.762 32.4723 138.895C32.979 138.015 33.6723 137.342 34.5523 136.875C35.4323 136.408 36.419 136.175 37.5123 136.175C38.6057 136.175 39.5923 136.408 40.4723 136.875C41.3523 137.342 42.0457 138.015 42.5523 138.895C43.059 139.762 43.3123 140.768 43.3123 141.915C43.3123 143.062 43.0523 144.075 42.5323 144.955C42.0257 145.822 41.3257 146.488 40.4323 146.955C39.5523 147.422 38.5657 147.655 37.4723 147.655ZM37.4723 144.695C38.1257 144.695 38.679 144.455 39.1323 143.975C39.599 143.495 39.8323 142.808 39.8323 141.915C39.8323 141.022 39.6057 140.335 39.1523 139.855C38.7123 139.375 38.1657 139.135 37.5123 139.135C36.8457 139.135 36.2923 139.375 35.8523 139.855C35.4123 140.322 35.1923 141.008 35.1923 141.915C35.1923 142.808 35.4057 143.495 35.8323 143.975C36.2723 144.455 36.819 144.695 37.4723 144.695ZM59.3667 136.215C60.7534 136.215 61.8534 136.635 62.6667 137.475C63.4934 138.315 63.9067 139.482 63.9067 140.975V147.495H60.5067V141.435C60.5067 140.715 60.3134 140.162 59.9267 139.775C59.5534 139.375 59.0334 139.175 58.3667 139.175C57.7001 139.175 57.1734 139.375 56.7867 139.775C56.4134 140.162 56.2267 140.715 56.2267 141.435V147.495H52.8267V141.435C52.8267 140.715 52.6334 140.162 52.2467 139.775C51.8734 139.375 51.3534 139.175 50.6867 139.175C50.0201 139.175 49.4934 139.375 49.1067 139.775C48.7334 140.162 48.5467 140.715 48.5467 141.435V147.495H45.1267V136.335H48.5467V137.735C48.8934 137.268 49.3467 136.902 49.9067 136.635C50.4667 136.355 51.1001 136.215 51.8067 136.215C52.6467 136.215 53.3934 136.395 54.0467 136.755C54.7134 137.115 55.2334 137.628 55.6067 138.295C55.9934 137.682 56.5201 137.182 57.1867 136.795C57.8534 136.408 58.5801 136.215 59.3667 136.215ZM76.8186 141.735C76.8186 142.055 76.7986 142.388 76.7586 142.735H69.0186C69.0719 143.428 69.2919 143.962 69.6786 144.335C70.0786 144.695 70.5653 144.875 71.1386 144.875C71.9919 144.875 72.5853 144.515 72.9186 143.795H76.5586C76.3719 144.528 76.0319 145.188 75.5386 145.775C75.0586 146.362 74.4519 146.822 73.7186 147.155C72.9853 147.488 72.1653 147.655 71.2586 147.655C70.1653 147.655 69.1919 147.422 68.3386 146.955C67.4853 146.488 66.8186 145.822 66.3386 144.955C65.8586 144.088 65.6186 143.075 65.6186 141.915C65.6186 140.755 65.8519 139.742 66.3186 138.875C66.7986 138.008 67.4653 137.342 68.3186 136.875C69.1719 136.408 70.1519 136.175 71.2586 136.175C72.3386 136.175 73.2986 136.402 74.1386 136.855C74.9786 137.308 75.6319 137.955 76.0986 138.795C76.5786 139.635 76.8186 140.615 76.8186 141.735ZM73.3186 140.835C73.3186 140.248 73.1186 139.782 72.7186 139.435C72.3186 139.088 71.8186 138.915 71.2186 138.915C70.6453 138.915 70.1586 139.082 69.7586 139.415C69.3719 139.748 69.1319 140.222 69.0386 140.835H73.3186ZM84.8428 144.595V147.495H83.1028C81.8628 147.495 80.8961 147.195 80.2028 146.595C79.5095 145.982 79.1628 144.988 79.1628 143.615V139.175H77.8028V136.335H79.1628V133.615H82.5828V136.335H84.8228V139.175H82.5828V143.655C82.5828 143.988 82.6628 144.228 82.8228 144.375C82.9828 144.522 83.2495 144.595 83.6228 144.595H84.8428ZM93.6078 136.215C94.8878 136.215 95.9145 136.642 96.6878 137.495C97.4611 138.335 97.8478 139.495 97.8478 140.975V147.495H94.4478V141.435C94.4478 140.688 94.2545 140.108 93.8678 139.695C93.4811 139.282 92.9611 139.075 92.3078 139.075C91.6545 139.075 91.1345 139.282 90.7478 139.695C90.3611 140.108 90.1678 140.688 90.1678 141.435V147.495H86.7478V132.695H90.1678V137.835C90.5145 137.342 90.9878 136.948 91.5878 136.655C92.1878 136.362 92.8611 136.215 93.6078 136.215ZM101.944 135.175C101.344 135.175 100.851 135.002 100.464 134.655C100.091 134.295 99.9044 133.855 99.9044 133.335C99.9044 132.802 100.091 132.362 100.464 132.015C100.851 131.655 101.344 131.475 101.944 131.475C102.531 131.475 103.011 131.655 103.384 132.015C103.771 132.362 103.964 132.802 103.964 133.335C103.964 133.855 103.771 134.295 103.384 134.655C103.011 135.002 102.531 135.175 101.944 135.175ZM103.644 136.335V147.495H100.224V136.335H103.644ZM112.923 136.215C114.229 136.215 115.269 136.642 116.043 137.495C116.829 138.335 117.223 139.495 117.223 140.975V147.495H113.823V141.435C113.823 140.688 113.629 140.108 113.243 139.695C112.856 139.282 112.336 139.075 111.683 139.075C111.029 139.075 110.509 139.282 110.123 139.695C109.736 140.108 109.543 140.688 109.543 141.435V147.495H106.123V136.335H109.543V137.815C109.889 137.322 110.356 136.935 110.943 136.655C111.529 136.362 112.189 136.215 112.923 136.215ZM123.839 136.175C124.626 136.175 125.313 136.335 125.899 136.655C126.499 136.975 126.959 137.395 127.279 137.915V136.335H130.699V147.475C130.699 148.502 130.493 149.428 130.079 150.255C129.679 151.095 129.059 151.762 128.219 152.255C127.393 152.748 126.359 152.995 125.119 152.995C123.466 152.995 122.126 152.602 121.099 151.815C120.073 151.042 119.486 149.988 119.339 148.655H122.719C122.826 149.082 123.079 149.415 123.479 149.655C123.879 149.908 124.373 150.035 124.959 150.035C125.666 150.035 126.226 149.828 126.639 149.415C127.066 149.015 127.279 148.368 127.279 147.475V145.895C126.946 146.415 126.486 146.842 125.899 147.175C125.313 147.495 124.626 147.655 123.839 147.655C122.919 147.655 122.086 147.422 121.339 146.955C120.593 146.475 119.999 145.802 119.559 144.935C119.133 144.055 118.919 143.042 118.919 141.895C118.919 140.748 119.133 139.742 119.559 138.875C119.999 138.008 120.593 137.342 121.339 136.875C122.086 136.408 122.919 136.175 123.839 136.175ZM127.279 141.915C127.279 141.062 127.039 140.388 126.559 139.895C126.093 139.402 125.519 139.155 124.839 139.155C124.159 139.155 123.579 139.402 123.099 139.895C122.633 140.375 122.399 141.042 122.399 141.895C122.399 142.748 122.633 143.428 123.099 143.935C123.579 144.428 124.159 144.675 124.839 144.675C125.519 144.675 126.093 144.428 126.559 143.935C127.039 143.442 127.279 142.768 127.279 141.915ZM137.674 132.955L137.274 142.535H134.374L133.974 132.955H137.674ZM135.874 147.655C135.274 147.655 134.78 147.482 134.394 147.135C134.02 146.775 133.834 146.335 133.834 145.815C133.834 145.282 134.02 144.835 134.394 144.475C134.78 144.115 135.274 143.935 135.874 143.935C136.46 143.935 136.94 144.115 137.314 144.475C137.7 144.835 137.894 145.282 137.894 145.815C137.894 146.335 137.7 146.775 137.314 147.135C136.94 147.482 136.46 147.655 135.874 147.655Z" fill="white"/>
</svg>
