<svg width="557" height="302" viewBox="0 0 557 302" fill="none" xmlns="http://www.w3.org/2000/svg">
<rect width="557" height="302" fill="url(#paint0_linear)"/>
<path d="M348.7 194.163C363.727 206.355 430.5 226.5 470.601 229.908L365.261 296.314C299.565 283.341 184.307 255.578 220 257.5C255.693 259.422 305.224 216.727 329.132 193.991L333.899 196.5L338.916 194.077L343.61 196.5L348.7 194.163Z" fill="white" fill-opacity="0.17"/>
<path d="M333.899 196.5L329.329 194C325.33 197.5 318.666 203.667 314.477 207L315.62 210L317.905 207.5L321.332 212.5L324.188 209.5L328 214.5L332.756 210.5L337.5 219.5L342.467 209.5L349.5 216.5L351.607 205.5L360.5 210.5L362 201.5C355.717 199 351.416 196.167 348.179 194L343.61 196.5L339.04 194L333.899 196.5Z" fill="white" fill-opacity="0.73"/>
<path d="M46.4 112.96V127H42.98V121.22H37.66V127H34.24V112.96H37.66V118.46H42.98V112.96H46.4ZM59.3889 121.24C59.3889 121.56 59.3689 121.893 59.3289 122.24H51.5889C51.6422 122.933 51.8622 123.467 52.2489 123.84C52.6489 124.2 53.1356 124.38 53.7089 124.38C54.5622 124.38 55.1556 124.02 55.4889 123.3H59.1289C58.9422 124.033 58.6022 124.693 58.1089 125.28C57.6289 125.867 57.0222 126.327 56.2889 126.66C55.5556 126.993 54.7356 127.16 53.8289 127.16C52.7356 127.16 51.7622 126.927 50.9089 126.46C50.0556 125.993 49.3889 125.327 48.9089 124.46C48.4289 123.593 48.1889 122.58 48.1889 121.42C48.1889 120.26 48.4222 119.247 48.8889 118.38C49.3689 117.513 50.0356 116.847 50.8889 116.38C51.7422 115.913 52.7222 115.68 53.8289 115.68C54.9089 115.68 55.8689 115.907 56.7089 116.36C57.5489 116.813 58.2022 117.46 58.6689 118.3C59.1489 119.14 59.3889 120.12 59.3889 121.24ZM55.8889 120.34C55.8889 119.753 55.6889 119.287 55.2889 118.94C54.8889 118.593 54.3889 118.42 53.7889 118.42C53.2156 118.42 52.7289 118.587 52.3289 118.92C51.9422 119.253 51.7022 119.727 51.6089 120.34H55.8889ZM64.6131 112.2V127H61.1931V112.2H64.6131ZM70.5116 117.42C70.8449 116.9 71.3049 116.48 71.8916 116.16C72.4782 115.84 73.1649 115.68 73.9516 115.68C74.8716 115.68 75.7049 115.913 76.4516 116.38C77.1982 116.847 77.7849 117.513 78.2116 118.38C78.6516 119.247 78.8716 120.253 78.8716 121.4C78.8716 122.547 78.6516 123.56 78.2116 124.44C77.7849 125.307 77.1982 125.98 76.4516 126.46C75.7049 126.927 74.8716 127.16 73.9516 127.16C73.1782 127.16 72.4916 127 71.8916 126.68C71.3049 126.36 70.8449 125.947 70.5116 125.44V132.32H67.0916V115.84H70.5116V117.42ZM75.3916 121.4C75.3916 120.547 75.1516 119.88 74.6716 119.4C74.2049 118.907 73.6249 118.66 72.9316 118.66C72.2516 118.66 71.6716 118.907 71.1916 119.4C70.7249 119.893 70.4916 120.567 70.4916 121.42C70.4916 122.273 70.7249 122.947 71.1916 123.44C71.6716 123.933 72.2516 124.18 72.9316 124.18C73.6116 124.18 74.1916 123.933 74.6716 123.44C75.1516 122.933 75.3916 122.253 75.3916 121.4ZM95.9241 115.84V127H92.5041V125.48C92.1574 125.973 91.6841 126.373 91.0841 126.68C90.4974 126.973 89.8441 127.12 89.1241 127.12C88.2707 127.12 87.5174 126.933 86.8641 126.56C86.2107 126.173 85.7041 125.62 85.3441 124.9C84.9841 124.18 84.8041 123.333 84.8041 122.36V115.84H88.2041V121.9C88.2041 122.647 88.3974 123.227 88.7841 123.64C89.1707 124.053 89.6907 124.26 90.3441 124.26C91.0107 124.26 91.5374 124.053 91.9241 123.64C92.3107 123.227 92.5041 122.647 92.5041 121.9V115.84H95.9241ZM102.921 127.16C101.947 127.16 101.081 126.993 100.321 126.66C99.5606 126.327 98.9606 125.873 98.5206 125.3C98.0806 124.713 97.834 124.06 97.7806 123.34H101.161C101.201 123.727 101.381 124.04 101.701 124.28C102.021 124.52 102.414 124.64 102.881 124.64C103.307 124.64 103.634 124.56 103.861 124.4C104.101 124.227 104.221 124.007 104.221 123.74C104.221 123.42 104.054 123.187 103.721 123.04C103.387 122.88 102.847 122.707 102.101 122.52C101.301 122.333 100.634 122.14 100.101 121.94C99.5673 121.727 99.1073 121.4 98.7206 120.96C98.334 120.507 98.1406 119.9 98.1406 119.14C98.1406 118.5 98.314 117.92 98.6606 117.4C99.0206 116.867 99.5406 116.447 100.221 116.14C100.914 115.833 101.734 115.68 102.681 115.68C104.081 115.68 105.181 116.027 105.981 116.72C106.794 117.413 107.261 118.333 107.381 119.48H104.221C104.167 119.093 103.994 118.787 103.701 118.56C103.421 118.333 103.047 118.22 102.581 118.22C102.181 118.22 101.874 118.3 101.661 118.46C101.447 118.607 101.341 118.813 101.341 119.08C101.341 119.4 101.507 119.64 101.841 119.8C102.187 119.96 102.721 120.12 103.441 120.28C104.267 120.493 104.941 120.707 105.461 120.92C105.981 121.12 106.434 121.453 106.821 121.92C107.221 122.373 107.427 122.987 107.441 123.76C107.441 124.413 107.254 125 106.881 125.52C106.521 126.027 105.994 126.427 105.301 126.72C104.621 127.013 103.827 127.16 102.921 127.16ZM118.011 115.68C118.798 115.68 119.485 115.84 120.071 116.16C120.671 116.48 121.131 116.9 121.451 117.42V115.84H124.871V126.98C124.871 128.007 124.665 128.933 124.251 129.76C123.851 130.6 123.231 131.267 122.391 131.76C121.565 132.253 120.531 132.5 119.291 132.5C117.638 132.5 116.298 132.107 115.271 131.32C114.245 130.547 113.658 129.493 113.511 128.16H116.891C116.998 128.587 117.251 128.92 117.651 129.16C118.051 129.413 118.545 129.54 119.131 129.54C119.838 129.54 120.398 129.333 120.811 128.92C121.238 128.52 121.451 127.873 121.451 126.98V125.4C121.118 125.92 120.658 126.347 120.071 126.68C119.485 127 118.798 127.16 118.011 127.16C117.091 127.16 116.258 126.927 115.511 126.46C114.765 125.98 114.171 125.307 113.731 124.44C113.305 123.56 113.091 122.547 113.091 121.4C113.091 120.253 113.305 119.247 113.731 118.38C114.171 117.513 114.765 116.847 115.511 116.38C116.258 115.913 117.091 115.68 118.011 115.68ZM121.451 121.42C121.451 120.567 121.211 119.893 120.731 119.4C120.265 118.907 119.691 118.66 119.011 118.66C118.331 118.66 117.751 118.907 117.271 119.4C116.805 119.88 116.571 120.547 116.571 121.4C116.571 122.253 116.805 122.933 117.271 123.44C117.751 123.933 118.331 124.18 119.011 124.18C119.691 124.18 120.265 123.933 120.731 123.44C121.211 122.947 121.451 122.273 121.451 121.42ZM130.765 117.7C131.165 117.087 131.665 116.607 132.265 116.26C132.865 115.9 133.532 115.72 134.265 115.72V119.34H133.325C132.472 119.34 131.832 119.527 131.405 119.9C130.979 120.26 130.765 120.9 130.765 121.82V127H127.345V115.84H130.765V117.7ZM140.98 127.16C139.887 127.16 138.9 126.927 138.02 126.46C137.153 125.993 136.467 125.327 135.96 124.46C135.467 123.593 135.22 122.58 135.22 121.42C135.22 120.273 135.473 119.267 135.98 118.4C136.487 117.52 137.18 116.847 138.06 116.38C138.94 115.913 139.927 115.68 141.02 115.68C142.113 115.68 143.1 115.913 143.98 116.38C144.86 116.847 145.553 117.52 146.06 118.4C146.567 119.267 146.82 120.273 146.82 121.42C146.82 122.567 146.56 123.58 146.04 124.46C145.533 125.327 144.833 125.993 143.94 126.46C143.06 126.927 142.073 127.16 140.98 127.16ZM140.98 124.2C141.633 124.2 142.187 123.96 142.64 123.48C143.107 123 143.34 122.313 143.34 121.42C143.34 120.527 143.113 119.84 142.66 119.36C142.22 118.88 141.673 118.64 141.02 118.64C140.353 118.64 139.8 118.88 139.36 119.36C138.92 119.827 138.7 120.513 138.7 121.42C138.7 122.313 138.913 123 139.34 123.48C139.78 123.96 140.327 124.2 140.98 124.2ZM164.655 115.84L161.635 127H157.855L156.095 119.76L154.275 127H150.515L147.475 115.84H150.895L152.475 123.82L154.355 115.84H157.975L159.875 123.78L161.435 115.84H164.655ZM167.679 114.68C167.079 114.68 166.585 114.507 166.199 114.16C165.825 113.8 165.639 113.36 165.639 112.84C165.639 112.307 165.825 111.867 166.199 111.52C166.585 111.16 167.079 110.98 167.679 110.98C168.265 110.98 168.745 111.16 169.119 111.52C169.505 111.867 169.699 112.307 169.699 112.84C169.699 113.36 169.505 113.8 169.119 114.16C168.745 114.507 168.265 114.68 167.679 114.68ZM169.379 115.84V127H165.959V115.84H169.379ZM178.657 115.72C179.964 115.72 181.004 116.147 181.777 117C182.564 117.84 182.957 119 182.957 120.48V127H179.557V120.94C179.557 120.193 179.364 119.613 178.977 119.2C178.591 118.787 178.071 118.58 177.417 118.58C176.764 118.58 176.244 118.787 175.857 119.2C175.471 119.613 175.277 120.193 175.277 120.94V127H171.857V115.84H175.277V117.32C175.624 116.827 176.091 116.44 176.677 116.16C177.264 115.867 177.924 115.72 178.657 115.72ZM189.574 115.68C190.36 115.68 191.047 115.84 191.634 116.16C192.234 116.48 192.694 116.9 193.014 117.42V115.84H196.434V126.98C196.434 128.007 196.227 128.933 195.814 129.76C195.414 130.6 194.794 131.267 193.954 131.76C193.127 132.253 192.094 132.5 190.854 132.5C189.2 132.5 187.86 132.107 186.834 131.32C185.807 130.547 185.22 129.493 185.074 128.16H188.454C188.56 128.587 188.814 128.92 189.214 129.16C189.614 129.413 190.107 129.54 190.694 129.54C191.4 129.54 191.96 129.333 192.374 128.92C192.8 128.52 193.014 127.873 193.014 126.98V125.4C192.68 125.92 192.22 126.347 191.634 126.68C191.047 127 190.36 127.16 189.574 127.16C188.654 127.16 187.82 126.927 187.074 126.46C186.327 125.98 185.734 125.307 185.294 124.44C184.867 123.56 184.654 122.547 184.654 121.4C184.654 120.253 184.867 119.247 185.294 118.38C185.734 117.513 186.327 116.847 187.074 116.38C187.82 115.913 188.654 115.68 189.574 115.68ZM193.014 121.42C193.014 120.567 192.774 119.893 192.294 119.4C191.827 118.907 191.254 118.66 190.574 118.66C189.894 118.66 189.314 118.907 188.834 119.4C188.367 119.88 188.134 120.547 188.134 121.4C188.134 122.253 188.367 122.933 188.834 123.44C189.314 123.933 189.894 124.18 190.574 124.18C191.254 124.18 191.827 123.933 192.294 123.44C192.774 122.947 193.014 122.273 193.014 121.42ZM209.366 124.1V127H207.626C206.386 127 205.42 126.7 204.726 126.1C204.033 125.487 203.686 124.493 203.686 123.12V118.68H202.326V115.84H203.686V113.12H207.106V115.84H209.346V118.68H207.106V123.16C207.106 123.493 207.186 123.733 207.346 123.88C207.506 124.027 207.773 124.1 208.146 124.1H209.366ZM218.131 115.72C219.411 115.72 220.438 116.147 221.211 117C221.985 117.84 222.371 119 222.371 120.48V127H218.971V120.94C218.971 120.193 218.778 119.613 218.391 119.2C218.005 118.787 217.485 118.58 216.831 118.58C216.178 118.58 215.658 118.787 215.271 119.2C214.885 119.613 214.691 120.193 214.691 120.94V127H211.271V112.2H214.691V117.34C215.038 116.847 215.511 116.453 216.111 116.16C216.711 115.867 217.385 115.72 218.131 115.72ZM226.468 114.68C225.868 114.68 225.374 114.507 224.988 114.16C224.614 113.8 224.428 113.36 224.428 112.84C224.428 112.307 224.614 111.867 224.988 111.52C225.374 111.16 225.868 110.98 226.468 110.98C227.054 110.98 227.534 111.16 227.908 111.52C228.294 111.867 228.488 112.307 228.488 112.84C228.488 113.36 228.294 113.8 227.908 114.16C227.534 114.507 227.054 114.68 226.468 114.68ZM228.168 115.84V127H224.748V115.84H228.168ZM235.186 127.16C234.213 127.16 233.346 126.993 232.586 126.66C231.826 126.327 231.226 125.873 230.786 125.3C230.346 124.713 230.1 124.06 230.046 123.34H233.426C233.466 123.727 233.646 124.04 233.966 124.28C234.286 124.52 234.68 124.64 235.146 124.64C235.573 124.64 235.9 124.56 236.126 124.4C236.366 124.227 236.486 124.007 236.486 123.74C236.486 123.42 236.32 123.187 235.986 123.04C235.653 122.88 235.113 122.707 234.366 122.52C233.566 122.333 232.9 122.14 232.366 121.94C231.833 121.727 231.373 121.4 230.986 120.96C230.6 120.507 230.406 119.9 230.406 119.14C230.406 118.5 230.58 117.92 230.926 117.4C231.286 116.867 231.806 116.447 232.486 116.14C233.18 115.833 234 115.68 234.946 115.68C236.346 115.68 237.446 116.027 238.246 116.72C239.06 117.413 239.526 118.333 239.646 119.48H236.486C236.433 119.093 236.26 118.787 235.966 118.56C235.686 118.333 235.313 118.22 234.846 118.22C234.446 118.22 234.14 118.3 233.926 118.46C233.713 118.607 233.606 118.813 233.606 119.08C233.606 119.4 233.773 119.64 234.106 119.8C234.453 119.96 234.986 120.12 235.706 120.28C236.533 120.493 237.206 120.707 237.726 120.92C238.246 121.12 238.7 121.453 239.086 121.92C239.486 122.373 239.693 122.987 239.706 123.76C239.706 124.413 239.52 125 239.146 125.52C238.786 126.027 238.26 126.427 237.566 126.72C236.886 127.013 236.093 127.16 235.186 127.16ZM262.057 115.84L259.037 127H255.257L253.497 119.76L251.677 127H247.917L244.877 115.84H248.297L249.877 123.82L251.757 115.84H255.377L257.277 123.78L258.837 115.84H262.057ZM273.881 121.24C273.881 121.56 273.861 121.893 273.821 122.24H266.081C266.134 122.933 266.354 123.467 266.741 123.84C267.141 124.2 267.628 124.38 268.201 124.38C269.054 124.38 269.648 124.02 269.981 123.3H273.621C273.434 124.033 273.094 124.693 272.601 125.28C272.121 125.867 271.514 126.327 270.781 126.66C270.048 126.993 269.228 127.16 268.321 127.16C267.228 127.16 266.254 126.927 265.401 126.46C264.548 125.993 263.881 125.327 263.401 124.46C262.921 123.593 262.681 122.58 262.681 121.42C262.681 120.26 262.914 119.247 263.381 118.38C263.861 117.513 264.528 116.847 265.381 116.38C266.234 115.913 267.214 115.68 268.321 115.68C269.401 115.68 270.361 115.907 271.201 116.36C272.041 116.813 272.694 117.46 273.161 118.3C273.641 119.14 273.881 120.12 273.881 121.24ZM270.381 120.34C270.381 119.753 270.181 119.287 269.781 118.94C269.381 118.593 268.881 118.42 268.281 118.42C267.708 118.42 267.221 118.587 266.821 118.92C266.434 119.253 266.194 119.727 266.101 120.34H270.381ZM279.105 117.42C279.425 116.9 279.885 116.48 280.485 116.16C281.085 115.84 281.772 115.68 282.545 115.68C283.465 115.68 284.299 115.913 285.045 116.38C285.792 116.847 286.379 117.513 286.805 118.38C287.245 119.247 287.465 120.253 287.465 121.4C287.465 122.547 287.245 123.56 286.805 124.44C286.379 125.307 285.792 125.98 285.045 126.46C284.299 126.927 283.465 127.16 282.545 127.16C281.759 127.16 281.072 127.007 280.485 126.7C279.899 126.38 279.439 125.96 279.105 125.44V127H275.685V112.2H279.105V117.42ZM283.985 121.4C283.985 120.547 283.745 119.88 283.265 119.4C282.799 118.907 282.219 118.66 281.525 118.66C280.845 118.66 280.265 118.907 279.785 119.4C279.319 119.893 279.085 120.567 279.085 121.42C279.085 122.273 279.319 122.947 279.785 123.44C280.265 123.933 280.845 124.18 281.525 124.18C282.205 124.18 282.785 123.933 283.265 123.44C283.745 122.933 283.985 122.253 283.985 121.4ZM293.8 127.16C292.826 127.16 291.96 126.993 291.2 126.66C290.44 126.327 289.84 125.873 289.4 125.3C288.96 124.713 288.713 124.06 288.66 123.34H292.04C292.08 123.727 292.26 124.04 292.58 124.28C292.9 124.52 293.293 124.64 293.76 124.64C294.186 124.64 294.513 124.56 294.74 124.4C294.98 124.227 295.1 124.007 295.1 123.74C295.1 123.42 294.933 123.187 294.6 123.04C294.266 122.88 293.726 122.707 292.98 122.52C292.18 122.333 291.513 122.14 290.98 121.94C290.446 121.727 289.986 121.4 289.6 120.96C289.213 120.507 289.02 119.9 289.02 119.14C289.02 118.5 289.193 117.92 289.54 117.4C289.9 116.867 290.42 116.447 291.1 116.14C291.793 115.833 292.613 115.68 293.56 115.68C294.96 115.68 296.06 116.027 296.86 116.72C297.673 117.413 298.14 118.333 298.26 119.48H295.1C295.046 119.093 294.873 118.787 294.58 118.56C294.3 118.333 293.926 118.22 293.46 118.22C293.06 118.22 292.753 118.3 292.54 118.46C292.326 118.607 292.22 118.813 292.22 119.08C292.22 119.4 292.386 119.64 292.72 119.8C293.066 119.96 293.6 120.12 294.32 120.28C295.146 120.493 295.82 120.707 296.34 120.92C296.86 121.12 297.313 121.453 297.7 121.92C298.1 122.373 298.306 122.987 298.32 123.76C298.32 124.413 298.133 125 297.76 125.52C297.4 126.027 296.873 126.427 296.18 126.72C295.5 127.013 294.706 127.16 293.8 127.16ZM302.132 114.68C301.532 114.68 301.039 114.507 300.652 114.16C300.279 113.8 300.092 113.36 300.092 112.84C300.092 112.307 300.279 111.867 300.652 111.52C301.039 111.16 301.532 110.98 302.132 110.98C302.719 110.98 303.199 111.16 303.572 111.52C303.959 111.867 304.152 112.307 304.152 112.84C304.152 113.36 303.959 113.8 303.572 114.16C303.199 114.507 302.719 114.68 302.132 114.68ZM303.832 115.84V127H300.412V115.84H303.832ZM312.53 124.1V127H310.79C309.55 127 308.584 126.7 307.89 126.1C307.197 125.487 306.85 124.493 306.85 123.12V118.68H305.49V115.84H306.85V113.12H310.27V115.84H312.51V118.68H310.27V123.16C310.27 123.493 310.35 123.733 310.51 123.88C310.67 124.027 310.937 124.1 311.31 124.1H312.53ZM324.955 121.24C324.955 121.56 324.935 121.893 324.895 122.24H317.155C317.209 122.933 317.429 123.467 317.815 123.84C318.215 124.2 318.702 124.38 319.275 124.38C320.129 124.38 320.722 124.02 321.055 123.3H324.695C324.509 124.033 324.169 124.693 323.675 125.28C323.195 125.867 322.589 126.327 321.855 126.66C321.122 126.993 320.302 127.16 319.395 127.16C318.302 127.16 317.329 126.927 316.475 126.46C315.622 125.993 314.955 125.327 314.475 124.46C313.995 123.593 313.755 122.58 313.755 121.42C313.755 120.26 313.989 119.247 314.455 118.38C314.935 117.513 315.602 116.847 316.455 116.38C317.309 115.913 318.289 115.68 319.395 115.68C320.475 115.68 321.435 115.907 322.275 116.36C323.115 116.813 323.769 117.46 324.235 118.3C324.715 119.14 324.955 120.12 324.955 121.24ZM321.455 120.34C321.455 119.753 321.255 119.287 320.855 118.94C320.455 118.593 319.955 118.42 319.355 118.42C318.782 118.42 318.295 118.587 317.895 118.92C317.509 119.253 317.269 119.727 317.175 120.34H321.455ZM334.418 117.42C334.738 116.9 335.198 116.48 335.798 116.16C336.398 115.84 337.084 115.68 337.858 115.68C338.778 115.68 339.611 115.913 340.358 116.38C341.104 116.847 341.691 117.513 342.118 118.38C342.558 119.247 342.778 120.253 342.778 121.4C342.778 122.547 342.558 123.56 342.118 124.44C341.691 125.307 341.104 125.98 340.358 126.46C339.611 126.927 338.778 127.16 337.858 127.16C337.071 127.16 336.384 127.007 335.798 126.7C335.211 126.38 334.751 125.96 334.418 125.44V127H330.998V112.2H334.418V117.42ZM339.298 121.4C339.298 120.547 339.058 119.88 338.578 119.4C338.111 118.907 337.531 118.66 336.838 118.66C336.158 118.66 335.578 118.907 335.098 119.4C334.631 119.893 334.398 120.567 334.398 121.42C334.398 122.273 334.631 122.947 335.098 123.44C335.578 123.933 336.158 124.18 336.838 124.18C337.518 124.18 338.098 123.933 338.578 123.44C339.058 122.933 339.298 122.253 339.298 121.4ZM355.972 115.84L348.972 132.3H345.292L347.852 126.62L343.312 115.84H347.132L349.712 122.82L352.272 115.84H355.972ZM360.767 121.4C360.767 120.253 360.98 119.247 361.407 118.38C361.847 117.513 362.44 116.847 363.187 116.38C363.934 115.913 364.767 115.68 365.687 115.68C366.474 115.68 367.16 115.84 367.747 116.16C368.347 116.48 368.807 116.9 369.127 117.42V115.84H372.547V127H369.127V125.42C368.794 125.94 368.327 126.36 367.727 126.68C367.14 127 366.454 127.16 365.667 127.16C364.76 127.16 363.934 126.927 363.187 126.46C362.44 125.98 361.847 125.307 361.407 124.44C360.98 123.56 360.767 122.547 360.767 121.4ZM369.127 121.42C369.127 120.567 368.887 119.893 368.407 119.4C367.94 118.907 367.367 118.66 366.687 118.66C366.007 118.66 365.427 118.907 364.947 119.4C364.48 119.88 364.247 120.547 364.247 121.4C364.247 122.253 364.48 122.933 364.947 123.44C365.427 123.933 366.007 124.18 366.687 124.18C367.367 124.18 367.94 123.933 368.407 123.44C368.887 122.947 369.127 122.273 369.127 121.42ZM374.341 121.4C374.341 120.253 374.555 119.247 374.981 118.38C375.421 117.513 376.015 116.847 376.761 116.38C377.508 115.913 378.341 115.68 379.261 115.68C379.995 115.68 380.661 115.833 381.261 116.14C381.875 116.447 382.355 116.86 382.701 117.38V112.2H386.121V127H382.701V125.4C382.381 125.933 381.921 126.36 381.321 126.68C380.735 127 380.048 127.16 379.261 127.16C378.341 127.16 377.508 126.927 376.761 126.46C376.015 125.98 375.421 125.307 374.981 124.44C374.555 123.56 374.341 122.547 374.341 121.4ZM382.701 121.42C382.701 120.567 382.461 119.893 381.981 119.4C381.515 118.907 380.941 118.66 380.261 118.66C379.581 118.66 379.001 118.907 378.521 119.4C378.055 119.88 377.821 120.547 377.821 121.4C377.821 122.253 378.055 122.933 378.521 123.44C379.001 123.933 379.581 124.18 380.261 124.18C380.941 124.18 381.515 123.933 381.981 123.44C382.461 122.947 382.701 122.273 382.701 121.42ZM387.915 121.4C387.915 120.253 388.129 119.247 388.555 118.38C388.995 117.513 389.589 116.847 390.335 116.38C391.082 115.913 391.915 115.68 392.835 115.68C393.569 115.68 394.235 115.833 394.835 116.14C395.449 116.447 395.929 116.86 396.275 117.38V112.2H399.695V127H396.275V125.4C395.955 125.933 395.495 126.36 394.895 126.68C394.309 127 393.622 127.16 392.835 127.16C391.915 127.16 391.082 126.927 390.335 126.46C389.589 125.98 388.995 125.307 388.555 124.44C388.129 123.56 387.915 122.547 387.915 121.4ZM396.275 121.42C396.275 120.567 396.035 119.893 395.555 119.4C395.089 118.907 394.515 118.66 393.835 118.66C393.155 118.66 392.575 118.907 392.095 119.4C391.629 119.88 391.395 120.547 391.395 121.4C391.395 122.253 391.629 122.933 392.095 123.44C392.575 123.933 393.155 124.18 393.835 124.18C394.515 124.18 395.089 123.933 395.555 123.44C396.035 122.947 396.275 122.273 396.275 121.42ZM403.89 114.68C403.29 114.68 402.796 114.507 402.41 114.16C402.036 113.8 401.85 113.36 401.85 112.84C401.85 112.307 402.036 111.867 402.41 111.52C402.796 111.16 403.29 110.98 403.89 110.98C404.476 110.98 404.956 111.16 405.33 111.52C405.716 111.867 405.91 112.307 405.91 112.84C405.91 113.36 405.716 113.8 405.33 114.16C404.956 114.507 404.476 114.68 403.89 114.68ZM405.59 115.84V127H402.17V115.84H405.59ZM414.868 115.72C416.175 115.72 417.215 116.147 417.988 117C418.775 117.84 419.168 119 419.168 120.48V127H415.768V120.94C415.768 120.193 415.575 119.613 415.188 119.2C414.801 118.787 414.281 118.58 413.628 118.58C412.975 118.58 412.455 118.787 412.068 119.2C411.681 119.613 411.488 120.193 411.488 120.94V127H408.068V115.84H411.488V117.32C411.835 116.827 412.301 116.44 412.888 116.16C413.475 115.867 414.135 115.72 414.868 115.72ZM425.785 115.68C426.571 115.68 427.258 115.84 427.845 116.16C428.445 116.48 428.905 116.9 429.225 117.42V115.84H432.645V126.98C432.645 128.007 432.438 128.933 432.025 129.76C431.625 130.6 431.005 131.267 430.165 131.76C429.338 132.253 428.305 132.5 427.065 132.5C425.411 132.5 424.071 132.107 423.045 131.32C422.018 130.547 421.431 129.493 421.285 128.16H424.665C424.771 128.587 425.025 128.92 425.425 129.16C425.825 129.413 426.318 129.54 426.905 129.54C427.611 129.54 428.171 129.333 428.585 128.92C429.011 128.52 429.225 127.873 429.225 126.98V125.4C428.891 125.92 428.431 126.347 427.845 126.68C427.258 127 426.571 127.16 425.785 127.16C424.865 127.16 424.031 126.927 423.285 126.46C422.538 125.98 421.945 125.307 421.505 124.44C421.078 123.56 420.865 122.547 420.865 121.4C420.865 120.253 421.078 119.247 421.505 118.38C421.945 117.513 422.538 116.847 423.285 116.38C424.031 115.913 424.865 115.68 425.785 115.68ZM429.225 121.42C429.225 120.567 428.985 119.893 428.505 119.4C428.038 118.907 427.465 118.66 426.785 118.66C426.105 118.66 425.525 118.907 425.045 119.4C424.578 119.88 424.345 120.547 424.345 121.4C424.345 122.253 424.578 122.933 425.045 123.44C425.525 123.933 426.105 124.18 426.785 124.18C427.465 124.18 428.038 123.933 428.505 123.44C428.985 122.947 429.225 122.273 429.225 121.42ZM40.46 150.1V153H38.72C37.48 153 36.5133 152.7 35.82 152.1C35.1267 151.487 34.78 150.493 34.78 149.12V144.68H33.42V141.84H34.78V139.12H38.2V141.84H40.44V144.68H38.2V149.16C38.2 149.493 38.28 149.733 38.44 149.88C38.6 150.027 38.8667 150.1 39.24 150.1H40.46ZM49.225 141.72C50.505 141.72 51.5317 142.147 52.305 143C53.0783 143.84 53.465 145 53.465 146.48V153H50.065V146.94C50.065 146.193 49.8717 145.613 49.485 145.2C49.0983 144.787 48.5783 144.58 47.925 144.58C47.2717 144.58 46.7517 144.787 46.365 145.2C45.9783 145.613 45.785 146.193 45.785 146.94V153H42.365V138.2H45.785V143.34C46.1317 142.847 46.605 142.453 47.205 142.16C47.805 141.867 48.4783 141.72 49.225 141.72ZM66.3616 147.24C66.3616 147.56 66.3416 147.893 66.3016 148.24H58.5616C58.6149 148.933 58.8349 149.467 59.2216 149.84C59.6216 150.2 60.1082 150.38 60.6816 150.38C61.5349 150.38 62.1282 150.02 62.4616 149.3H66.1016C65.9149 150.033 65.5749 150.693 65.0816 151.28C64.6016 151.867 63.9949 152.327 63.2616 152.66C62.5282 152.993 61.7082 153.16 60.8016 153.16C59.7082 153.16 58.7349 152.927 57.8816 152.46C57.0282 151.993 56.3616 151.327 55.8816 150.46C55.4016 149.593 55.1616 148.58 55.1616 147.42C55.1616 146.26 55.3949 145.247 55.8616 144.38C56.3416 143.513 57.0082 142.847 57.8616 142.38C58.7149 141.913 59.6949 141.68 60.8016 141.68C61.8816 141.68 62.8416 141.907 63.6816 142.36C64.5216 142.813 65.1749 143.46 65.6416 144.3C66.1216 145.14 66.3616 146.12 66.3616 147.24ZM62.8616 146.34C62.8616 145.753 62.6616 145.287 62.2616 144.94C61.8616 144.593 61.3616 144.42 60.7616 144.42C60.1882 144.42 59.7016 144.587 59.3016 144.92C58.9149 145.253 58.6749 145.727 58.5816 146.34H62.8616ZM75.8241 143.42C76.1441 142.9 76.6041 142.48 77.2041 142.16C77.8041 141.84 78.4907 141.68 79.2641 141.68C80.1841 141.68 81.0174 141.913 81.7641 142.38C82.5107 142.847 83.0974 143.513 83.5241 144.38C83.9641 145.247 84.1841 146.253 84.1841 147.4C84.1841 148.547 83.9641 149.56 83.5241 150.44C83.0974 151.307 82.5107 151.98 81.7641 152.46C81.0174 152.927 80.1841 153.16 79.2641 153.16C78.4774 153.16 77.7907 153.007 77.2041 152.7C76.6174 152.38 76.1574 151.96 75.8241 151.44V153H72.4041V138.2H75.8241V143.42ZM80.7041 147.4C80.7041 146.547 80.4641 145.88 79.9841 145.4C79.5174 144.907 78.9374 144.66 78.2441 144.66C77.5641 144.66 76.9841 144.907 76.5041 145.4C76.0374 145.893 75.8041 146.567 75.8041 147.42C75.8041 148.273 76.0374 148.947 76.5041 149.44C76.9841 149.933 77.5641 150.18 78.2441 150.18C78.9241 150.18 79.5041 149.933 79.9841 149.44C80.4641 148.933 80.7041 148.253 80.7041 147.4ZM96.4983 147.24C96.4983 147.56 96.4783 147.893 96.4383 148.24H88.6983C88.7516 148.933 88.9716 149.467 89.3583 149.84C89.7583 150.2 90.2449 150.38 90.8183 150.38C91.6716 150.38 92.2649 150.02 92.5983 149.3H96.2383C96.0516 150.033 95.7116 150.693 95.2183 151.28C94.7383 151.867 94.1316 152.327 93.3983 152.66C92.6649 152.993 91.8449 153.16 90.9383 153.16C89.8449 153.16 88.8716 152.927 88.0183 152.46C87.1649 151.993 86.4983 151.327 86.0183 150.46C85.5383 149.593 85.2983 148.58 85.2983 147.42C85.2983 146.26 85.5316 145.247 85.9983 144.38C86.4783 143.513 87.1449 142.847 87.9983 142.38C88.8516 141.913 89.8316 141.68 90.9383 141.68C92.0183 141.68 92.9783 141.907 93.8183 142.36C94.6583 142.813 95.3116 143.46 95.7783 144.3C96.2583 145.14 96.4983 146.12 96.4983 147.24ZM92.9983 146.34C92.9983 145.753 92.7983 145.287 92.3983 144.94C91.9983 144.593 91.4983 144.42 90.8983 144.42C90.3249 144.42 89.8383 144.587 89.4383 144.92C89.0516 145.253 88.8116 145.727 88.7183 146.34H92.9983ZM102.843 153.16C101.869 153.16 101.003 152.993 100.243 152.66C99.4825 152.327 98.8825 151.873 98.4425 151.3C98.0025 150.713 97.7558 150.06 97.7025 149.34H101.083C101.123 149.727 101.303 150.04 101.623 150.28C101.943 150.52 102.336 150.64 102.803 150.64C103.229 150.64 103.556 150.56 103.783 150.4C104.023 150.227 104.143 150.007 104.143 149.74C104.143 149.42 103.976 149.187 103.643 149.04C103.309 148.88 102.769 148.707 102.023 148.52C101.223 148.333 100.556 148.14 100.023 147.94C99.4892 147.727 99.0292 147.4 98.6425 146.96C98.2558 146.507 98.0625 145.9 98.0625 145.14C98.0625 144.5 98.2358 143.92 98.5825 143.4C98.9425 142.867 99.4625 142.447 100.143 142.14C100.836 141.833 101.656 141.68 102.603 141.68C104.003 141.68 105.103 142.027 105.903 142.72C106.716 143.413 107.183 144.333 107.303 145.48H104.143C104.089 145.093 103.916 144.787 103.623 144.56C103.343 144.333 102.969 144.22 102.503 144.22C102.103 144.22 101.796 144.3 101.583 144.46C101.369 144.607 101.263 144.813 101.263 145.08C101.263 145.4 101.429 145.64 101.763 145.8C102.109 145.96 102.643 146.12 103.363 146.28C104.189 146.493 104.863 146.707 105.383 146.92C105.903 147.12 106.356 147.453 106.743 147.92C107.143 148.373 107.349 148.987 107.363 149.76C107.363 150.413 107.176 151 106.803 151.52C106.443 152.027 105.916 152.427 105.223 152.72C104.543 153.013 103.749 153.16 102.843 153.16ZM115.675 150.1V153H113.935C112.695 153 111.728 152.7 111.035 152.1C110.342 151.487 109.995 150.493 109.995 149.12V144.68H108.635V141.84H109.995V139.12H113.415V141.84H115.655V144.68H113.415V149.16C113.415 149.493 113.495 149.733 113.655 149.88C113.815 150.027 114.082 150.1 114.455 150.1H115.675ZM125.238 143.7C125.638 143.087 126.138 142.607 126.738 142.26C127.338 141.9 128.005 141.72 128.738 141.72V145.34H127.798C126.945 145.34 126.305 145.527 125.878 145.9C125.451 146.26 125.238 146.9 125.238 147.82V153H121.818V141.84H125.238V143.7ZM140.893 147.24C140.893 147.56 140.873 147.893 140.833 148.24H133.093C133.146 148.933 133.366 149.467 133.753 149.84C134.153 150.2 134.639 150.38 135.213 150.38C136.066 150.38 136.659 150.02 136.993 149.3H140.633C140.446 150.033 140.106 150.693 139.613 151.28C139.133 151.867 138.526 152.327 137.793 152.66C137.059 152.993 136.239 153.16 135.333 153.16C134.239 153.16 133.266 152.927 132.413 152.46C131.559 151.993 130.893 151.327 130.413 150.46C129.933 149.593 129.693 148.58 129.693 147.42C129.693 146.26 129.926 145.247 130.393 144.38C130.873 143.513 131.539 142.847 132.393 142.38C133.246 141.913 134.226 141.68 135.333 141.68C136.413 141.68 137.373 141.907 138.213 142.36C139.053 142.813 139.706 143.46 140.173 144.3C140.653 145.14 140.893 146.12 140.893 147.24ZM137.393 146.34C137.393 145.753 137.193 145.287 136.793 144.94C136.393 144.593 135.893 144.42 135.293 144.42C134.719 144.42 134.233 144.587 133.833 144.92C133.446 145.253 133.206 145.727 133.113 146.34H137.393ZM147.237 153.16C146.264 153.16 145.397 152.993 144.637 152.66C143.877 152.327 143.277 151.873 142.837 151.3C142.397 150.713 142.15 150.06 142.097 149.34H145.477C145.517 149.727 145.697 150.04 146.017 150.28C146.337 150.52 146.73 150.64 147.197 150.64C147.624 150.64 147.95 150.56 148.177 150.4C148.417 150.227 148.537 150.007 148.537 149.74C148.537 149.42 148.37 149.187 148.037 149.04C147.704 148.88 147.164 148.707 146.417 148.52C145.617 148.333 144.95 148.14 144.417 147.94C143.884 147.727 143.424 147.4 143.037 146.96C142.65 146.507 142.457 145.9 142.457 145.14C142.457 144.5 142.63 143.92 142.977 143.4C143.337 142.867 143.857 142.447 144.537 142.14C145.23 141.833 146.05 141.68 146.997 141.68C148.397 141.68 149.497 142.027 150.297 142.72C151.11 143.413 151.577 144.333 151.697 145.48H148.537C148.484 145.093 148.31 144.787 148.017 144.56C147.737 144.333 147.364 144.22 146.897 144.22C146.497 144.22 146.19 144.3 145.977 144.46C145.764 144.607 145.657 144.813 145.657 145.08C145.657 145.4 145.824 145.64 146.157 145.8C146.504 145.96 147.037 146.12 147.757 146.28C148.584 146.493 149.257 146.707 149.777 146.92C150.297 147.12 150.75 147.453 151.137 147.92C151.537 148.373 151.744 148.987 151.757 149.76C151.757 150.413 151.57 151 151.197 151.52C150.837 152.027 150.31 152.427 149.617 152.72C148.937 153.013 148.144 153.16 147.237 153.16ZM158.929 153.16C157.836 153.16 156.849 152.927 155.969 152.46C155.103 151.993 154.416 151.327 153.909 150.46C153.416 149.593 153.169 148.58 153.169 147.42C153.169 146.273 153.423 145.267 153.929 144.4C154.436 143.52 155.129 142.847 156.009 142.38C156.889 141.913 157.876 141.68 158.969 141.68C160.063 141.68 161.049 141.913 161.929 142.38C162.809 142.847 163.503 143.52 164.009 144.4C164.516 145.267 164.769 146.273 164.769 147.42C164.769 148.567 164.509 149.58 163.989 150.46C163.483 151.327 162.783 151.993 161.889 152.46C161.009 152.927 160.023 153.16 158.929 153.16ZM158.929 150.2C159.583 150.2 160.136 149.96 160.589 149.48C161.056 149 161.289 148.313 161.289 147.42C161.289 146.527 161.063 145.84 160.609 145.36C160.169 144.88 159.623 144.64 158.969 144.64C158.303 144.64 157.749 144.88 157.309 145.36C156.869 145.827 156.649 146.513 156.649 147.42C156.649 148.313 156.863 149 157.289 149.48C157.729 149.96 158.276 150.2 158.929 150.2ZM177.604 141.84V153H174.184V151.48C173.837 151.973 173.364 152.373 172.764 152.68C172.177 152.973 171.524 153.12 170.804 153.12C169.95 153.12 169.197 152.933 168.544 152.56C167.89 152.173 167.384 151.62 167.024 150.9C166.664 150.18 166.484 149.333 166.484 148.36V141.84H169.884V147.9C169.884 148.647 170.077 149.227 170.464 149.64C170.85 150.053 171.37 150.26 172.024 150.26C172.69 150.26 173.217 150.053 173.604 149.64C173.99 149.227 174.184 148.647 174.184 147.9V141.84H177.604ZM183.48 143.7C183.88 143.087 184.38 142.607 184.98 142.26C185.58 141.9 186.247 141.72 186.98 141.72V145.34H186.04C185.187 145.34 184.547 145.527 184.12 145.9C183.694 146.26 183.48 146.9 183.48 147.82V153H180.06V141.84H183.48V143.7ZM187.935 147.42C187.935 146.26 188.168 145.247 188.635 144.38C189.115 143.513 189.775 142.847 190.615 142.38C191.468 141.913 192.442 141.68 193.535 141.68C194.935 141.68 196.102 142.047 197.035 142.78C197.982 143.513 198.602 144.547 198.895 145.88H195.255C194.948 145.027 194.355 144.6 193.475 144.6C192.848 144.6 192.348 144.847 191.975 145.34C191.602 145.82 191.415 146.513 191.415 147.42C191.415 148.327 191.602 149.027 191.975 149.52C192.348 150 192.848 150.24 193.475 150.24C194.355 150.24 194.948 149.813 195.255 148.96H198.895C198.602 150.267 197.982 151.293 197.035 152.04C196.088 152.787 194.922 153.16 193.535 153.16C192.442 153.16 191.468 152.927 190.615 152.46C189.775 151.993 189.115 151.327 188.635 150.46C188.168 149.593 187.935 148.58 187.935 147.42ZM211.244 147.24C211.244 147.56 211.224 147.893 211.184 148.24H203.444C203.498 148.933 203.718 149.467 204.104 149.84C204.504 150.2 204.991 150.38 205.564 150.38C206.418 150.38 207.011 150.02 207.344 149.3H210.984C210.798 150.033 210.458 150.693 209.964 151.28C209.484 151.867 208.878 152.327 208.144 152.66C207.411 152.993 206.591 153.16 205.684 153.16C204.591 153.16 203.618 152.927 202.764 152.46C201.911 151.993 201.244 151.327 200.764 150.46C200.284 149.593 200.044 148.58 200.044 147.42C200.044 146.26 200.278 145.247 200.744 144.38C201.224 143.513 201.891 142.847 202.744 142.38C203.598 141.913 204.578 141.68 205.684 141.68C206.764 141.68 207.724 141.907 208.564 142.36C209.404 142.813 210.058 143.46 210.524 144.3C211.004 145.14 211.244 146.12 211.244 147.24ZM207.744 146.34C207.744 145.753 207.544 145.287 207.144 144.94C206.744 144.593 206.244 144.42 205.644 144.42C205.071 144.42 204.584 144.587 204.184 144.92C203.798 145.253 203.558 145.727 203.464 146.34H207.744ZM223.507 150.1V153H221.767C220.527 153 219.56 152.7 218.867 152.1C218.174 151.487 217.827 150.493 217.827 149.12V144.68H216.467V141.84H217.827V139.12H221.247V141.84H223.487V144.68H221.247V149.16C221.247 149.493 221.327 149.733 221.487 149.88C221.647 150.027 221.914 150.1 222.287 150.1H223.507ZM232.272 141.72C233.552 141.72 234.579 142.147 235.352 143C236.125 143.84 236.512 145 236.512 146.48V153H233.112V146.94C233.112 146.193 232.919 145.613 232.532 145.2C232.145 144.787 231.625 144.58 230.972 144.58C230.319 144.58 229.799 144.787 229.412 145.2C229.025 145.613 228.832 146.193 228.832 146.94V153H225.412V138.2H228.832V143.34C229.179 142.847 229.652 142.453 230.252 142.16C230.852 141.867 231.525 141.72 232.272 141.72ZM238.208 147.4C238.208 146.253 238.422 145.247 238.848 144.38C239.288 143.513 239.882 142.847 240.628 142.38C241.375 141.913 242.208 141.68 243.128 141.68C243.915 141.68 244.602 141.84 245.188 142.16C245.788 142.48 246.248 142.9 246.568 143.42V141.84H249.988V153H246.568V151.42C246.235 151.94 245.768 152.36 245.168 152.68C244.582 153 243.895 153.16 243.108 153.16C242.202 153.16 241.375 152.927 240.628 152.46C239.882 151.98 239.288 151.307 238.848 150.44C238.422 149.56 238.208 148.547 238.208 147.4ZM246.568 147.42C246.568 146.567 246.328 145.893 245.848 145.4C245.382 144.907 244.808 144.66 244.128 144.66C243.448 144.66 242.868 144.907 242.388 145.4C241.922 145.88 241.688 146.547 241.688 147.4C241.688 148.253 241.922 148.933 242.388 149.44C242.868 149.933 243.448 150.18 244.128 150.18C244.808 150.18 245.382 149.933 245.848 149.44C246.328 148.947 246.568 148.273 246.568 147.42ZM258.683 150.1V153H256.943C255.703 153 254.736 152.7 254.043 152.1C253.349 151.487 253.003 150.493 253.003 149.12V144.68H251.643V141.84H253.003V139.12H256.423V141.84H258.663V144.68H256.423V149.16C256.423 149.493 256.503 149.733 256.663 149.88C256.823 150.027 257.089 150.1 257.463 150.1H258.683ZM269.066 141.68C269.853 141.68 270.539 141.84 271.126 142.16C271.726 142.48 272.186 142.9 272.506 143.42V141.84H275.926V152.98C275.926 154.007 275.719 154.933 275.306 155.76C274.906 156.6 274.286 157.267 273.446 157.76C272.619 158.253 271.586 158.5 270.346 158.5C268.693 158.5 267.353 158.107 266.326 157.32C265.299 156.547 264.713 155.493 264.566 154.16H267.946C268.053 154.587 268.306 154.92 268.706 155.16C269.106 155.413 269.599 155.54 270.186 155.54C270.893 155.54 271.453 155.333 271.866 154.92C272.293 154.52 272.506 153.873 272.506 152.98V151.4C272.173 151.92 271.713 152.347 271.126 152.68C270.539 153 269.853 153.16 269.066 153.16C268.146 153.16 267.313 152.927 266.566 152.46C265.819 151.98 265.226 151.307 264.786 150.44C264.359 149.56 264.146 148.547 264.146 147.4C264.146 146.253 264.359 145.247 264.786 144.38C265.226 143.513 265.819 142.847 266.566 142.38C267.313 141.913 268.146 141.68 269.066 141.68ZM272.506 147.42C272.506 146.567 272.266 145.893 271.786 145.4C271.319 144.907 270.746 144.66 270.066 144.66C269.386 144.66 268.806 144.907 268.326 145.4C267.859 145.88 267.626 146.547 267.626 147.4C267.626 148.253 267.859 148.933 268.326 149.44C268.806 149.933 269.386 150.18 270.066 150.18C270.746 150.18 271.319 149.933 271.786 149.44C272.266 148.947 272.506 148.273 272.506 147.42ZM283.48 153.16C282.387 153.16 281.4 152.927 280.52 152.46C279.653 151.993 278.967 151.327 278.46 150.46C277.967 149.593 277.72 148.58 277.72 147.42C277.72 146.273 277.973 145.267 278.48 144.4C278.987 143.52 279.68 142.847 280.56 142.38C281.44 141.913 282.427 141.68 283.52 141.68C284.613 141.68 285.6 141.913 286.48 142.38C287.36 142.847 288.053 143.52 288.56 144.4C289.067 145.267 289.32 146.273 289.32 147.42C289.32 148.567 289.06 149.58 288.54 150.46C288.033 151.327 287.333 151.993 286.44 152.46C285.56 152.927 284.573 153.16 283.48 153.16ZM283.48 150.2C284.133 150.2 284.687 149.96 285.14 149.48C285.607 149 285.84 148.313 285.84 147.42C285.84 146.527 285.613 145.84 285.16 145.36C284.72 144.88 284.173 144.64 283.52 144.64C282.853 144.64 282.3 144.88 281.86 145.36C281.42 145.827 281.2 146.513 281.2 147.42C281.2 148.313 281.413 149 281.84 149.48C282.28 149.96 282.827 150.2 283.48 150.2ZM297.355 150.1V153H295.615C294.375 153 293.408 152.7 292.715 152.1C292.021 151.487 291.675 150.493 291.675 149.12V144.68H290.315V141.84H291.675V139.12H295.095V141.84H297.335V144.68H295.095V149.16C295.095 149.493 295.175 149.733 295.335 149.88C295.495 150.027 295.761 150.1 296.135 150.1H297.355ZM314.898 141.84L307.898 158.3H304.218L306.778 152.62L302.238 141.84H306.058L308.638 148.82L311.198 141.84H314.898ZM321.215 153.16C320.121 153.16 319.135 152.927 318.255 152.46C317.388 151.993 316.701 151.327 316.195 150.46C315.701 149.593 315.455 148.58 315.455 147.42C315.455 146.273 315.708 145.267 316.215 144.4C316.721 143.52 317.415 142.847 318.295 142.38C319.175 141.913 320.161 141.68 321.255 141.68C322.348 141.68 323.335 141.913 324.215 142.38C325.095 142.847 325.788 143.52 326.295 144.4C326.801 145.267 327.055 146.273 327.055 147.42C327.055 148.567 326.795 149.58 326.275 150.46C325.768 151.327 325.068 151.993 324.175 152.46C323.295 152.927 322.308 153.16 321.215 153.16ZM321.215 150.2C321.868 150.2 322.421 149.96 322.875 149.48C323.341 149 323.575 148.313 323.575 147.42C323.575 146.527 323.348 145.84 322.895 145.36C322.455 144.88 321.908 144.64 321.255 144.64C320.588 144.64 320.035 144.88 319.595 145.36C319.155 145.827 318.935 146.513 318.935 147.42C318.935 148.313 319.148 149 319.575 149.48C320.015 149.96 320.561 150.2 321.215 150.2ZM339.889 141.84V153H336.469V151.48C336.122 151.973 335.649 152.373 335.049 152.68C334.462 152.973 333.809 153.12 333.089 153.12C332.236 153.12 331.482 152.933 330.829 152.56C330.176 152.173 329.669 151.62 329.309 150.9C328.949 150.18 328.769 149.333 328.769 148.36V141.84H332.169V147.9C332.169 148.647 332.362 149.227 332.749 149.64C333.136 150.053 333.656 150.26 334.309 150.26C334.976 150.26 335.502 150.053 335.889 149.64C336.276 149.227 336.469 148.647 336.469 147.9V141.84H339.889ZM351.124 153.16C350.15 153.16 349.284 152.993 348.524 152.66C347.764 152.327 347.164 151.873 346.724 151.3C346.284 150.713 346.037 150.06 345.984 149.34H349.364C349.404 149.727 349.584 150.04 349.904 150.28C350.224 150.52 350.617 150.64 351.084 150.64C351.51 150.64 351.837 150.56 352.064 150.4C352.304 150.227 352.424 150.007 352.424 149.74C352.424 149.42 352.257 149.187 351.924 149.04C351.59 148.88 351.05 148.707 350.304 148.52C349.504 148.333 348.837 148.14 348.304 147.94C347.77 147.727 347.31 147.4 346.924 146.96C346.537 146.507 346.344 145.9 346.344 145.14C346.344 144.5 346.517 143.92 346.864 143.4C347.224 142.867 347.744 142.447 348.424 142.14C349.117 141.833 349.937 141.68 350.884 141.68C352.284 141.68 353.384 142.027 354.184 142.72C354.997 143.413 355.464 144.333 355.584 145.48H352.424C352.37 145.093 352.197 144.787 351.904 144.56C351.624 144.333 351.25 144.22 350.784 144.22C350.384 144.22 350.077 144.3 349.864 144.46C349.65 144.607 349.544 144.813 349.544 145.08C349.544 145.4 349.71 145.64 350.044 145.8C350.39 145.96 350.924 146.12 351.644 146.28C352.47 146.493 353.144 146.707 353.664 146.92C354.184 147.12 354.637 147.453 355.024 147.92C355.424 148.373 355.63 148.987 355.644 149.76C355.644 150.413 355.457 151 355.084 151.52C354.724 152.027 354.197 152.427 353.504 152.72C352.824 153.013 352.03 153.16 351.124 153.16ZM364.556 153L361.156 148.32V153H357.736V138.2H361.156V146.38L364.536 141.84H368.756L364.116 147.44L368.796 153H364.556ZM371.819 140.68C371.219 140.68 370.726 140.507 370.339 140.16C369.966 139.8 369.779 139.36 369.779 138.84C369.779 138.307 369.966 137.867 370.339 137.52C370.726 137.16 371.219 136.98 371.819 136.98C372.406 136.98 372.886 137.16 373.259 137.52C373.646 137.867 373.839 138.307 373.839 138.84C373.839 139.36 373.646 139.8 373.259 140.16C372.886 140.507 372.406 140.68 371.819 140.68ZM373.519 141.84V153H370.099V141.84H373.519ZM379.418 138.2V153H375.998V138.2H379.418ZM385.316 138.2V153H381.896V138.2H385.316ZM398.315 147.24C398.315 147.56 398.295 147.893 398.255 148.24H390.515C390.568 148.933 390.788 149.467 391.175 149.84C391.575 150.2 392.061 150.38 392.635 150.38C393.488 150.38 394.081 150.02 394.415 149.3H398.055C397.868 150.033 397.528 150.693 397.035 151.28C396.555 151.867 395.948 152.327 395.215 152.66C394.481 152.993 393.661 153.16 392.755 153.16C391.661 153.16 390.688 152.927 389.835 152.46C388.981 151.993 388.315 151.327 387.835 150.46C387.355 149.593 387.115 148.58 387.115 147.42C387.115 146.26 387.348 145.247 387.815 144.38C388.295 143.513 388.961 142.847 389.815 142.38C390.668 141.913 391.648 141.68 392.755 141.68C393.835 141.68 394.795 141.907 395.635 142.36C396.475 142.813 397.128 143.46 397.595 144.3C398.075 145.14 398.315 146.12 398.315 147.24ZM394.815 146.34C394.815 145.753 394.615 145.287 394.215 144.94C393.815 144.593 393.315 144.42 392.715 144.42C392.141 144.42 391.655 144.587 391.255 144.92C390.868 145.253 390.628 145.727 390.535 146.34H394.815ZM399.439 147.4C399.439 146.253 399.652 145.247 400.079 144.38C400.519 143.513 401.112 142.847 401.859 142.38C402.606 141.913 403.439 141.68 404.359 141.68C405.092 141.68 405.759 141.833 406.359 142.14C406.972 142.447 407.452 142.86 407.799 143.38V138.2H411.219V153H407.799V151.4C407.479 151.933 407.019 152.36 406.419 152.68C405.832 153 405.146 153.16 404.359 153.16C403.439 153.16 402.606 152.927 401.859 152.46C401.112 151.98 400.519 151.307 400.079 150.44C399.652 149.56 399.439 148.547 399.439 147.4ZM407.799 147.42C407.799 146.567 407.559 145.893 407.079 145.4C406.612 144.907 406.039 144.66 405.359 144.66C404.679 144.66 404.099 144.907 403.619 145.4C403.152 145.88 402.919 146.547 402.919 147.4C402.919 148.253 403.152 148.933 403.619 149.44C404.099 149.933 404.679 150.18 405.359 150.18C406.039 150.18 406.612 149.933 407.079 149.44C407.559 148.947 407.799 148.273 407.799 147.42ZM417.251 147.4C417.251 146.253 417.465 145.247 417.891 144.38C418.331 143.513 418.925 142.847 419.671 142.38C420.418 141.913 421.251 141.68 422.171 141.68C422.958 141.68 423.645 141.84 424.231 142.16C424.831 142.48 425.291 142.9 425.611 143.42V141.84H429.031V153H425.611V151.42C425.278 151.94 424.811 152.36 424.211 152.68C423.625 153 422.938 153.16 422.151 153.16C421.245 153.16 420.418 152.927 419.671 152.46C418.925 151.98 418.331 151.307 417.891 150.44C417.465 149.56 417.251 148.547 417.251 147.4ZM425.611 147.42C425.611 146.567 425.371 145.893 424.891 145.4C424.425 144.907 423.851 144.66 423.171 144.66C422.491 144.66 421.911 144.907 421.431 145.4C420.965 145.88 420.731 146.547 420.731 147.4C420.731 148.253 420.965 148.933 421.431 149.44C421.911 149.933 422.491 150.18 423.171 150.18C423.851 150.18 424.425 149.933 424.891 149.44C425.371 148.947 425.611 148.273 425.611 147.42ZM437.726 150.1V153H435.986C434.746 153 433.779 152.7 433.086 152.1C432.392 151.487 432.046 150.493 432.046 149.12V144.68H430.686V141.84H432.046V139.12H435.466V141.84H437.706V144.68H435.466V149.16C435.466 149.493 435.546 149.733 435.706 149.88C435.866 150.027 436.132 150.1 436.506 150.1H437.726ZM38.78 179.16C37.8067 179.16 36.94 178.993 36.18 178.66C35.42 178.327 34.82 177.873 34.38 177.3C33.94 176.713 33.6933 176.06 33.64 175.34H37.02C37.06 175.727 37.24 176.04 37.56 176.28C37.88 176.52 38.2733 176.64 38.74 176.64C39.1667 176.64 39.4933 176.56 39.72 176.4C39.96 176.227 40.08 176.007 40.08 175.74C40.08 175.42 39.9133 175.187 39.58 175.04C39.2467 174.88 38.7067 174.707 37.96 174.52C37.16 174.333 36.4933 174.14 35.96 173.94C35.4267 173.727 34.9667 173.4 34.58 172.96C34.1933 172.507 34 171.9 34 171.14C34 170.5 34.1733 169.92 34.52 169.4C34.88 168.867 35.4 168.447 36.08 168.14C36.7733 167.833 37.5933 167.68 38.54 167.68C39.94 167.68 41.04 168.027 41.84 168.72C42.6533 169.413 43.12 170.333 43.24 171.48H40.08C40.0267 171.093 39.8533 170.787 39.56 170.56C39.28 170.333 38.9067 170.22 38.44 170.22C38.04 170.22 37.7333 170.3 37.52 170.46C37.3067 170.607 37.2 170.813 37.2 171.08C37.2 171.4 37.3667 171.64 37.7 171.8C38.0467 171.96 38.58 172.12 39.3 172.28C40.1267 172.493 40.8 172.707 41.32 172.92C41.84 173.12 42.2933 173.453 42.68 173.92C43.08 174.373 43.2867 174.987 43.3 175.76C43.3 176.413 43.1133 177 42.74 177.52C42.38 178.027 41.8533 178.427 41.16 178.72C40.48 179.013 39.6867 179.16 38.78 179.16ZM50.4723 179.16C49.379 179.16 48.3923 178.927 47.5123 178.46C46.6457 177.993 45.959 177.327 45.4523 176.46C44.959 175.593 44.7123 174.58 44.7123 173.42C44.7123 172.273 44.9657 171.267 45.4723 170.4C45.979 169.52 46.6723 168.847 47.5523 168.38C48.4323 167.913 49.419 167.68 50.5123 167.68C51.6057 167.68 52.5923 167.913 53.4723 168.38C54.3523 168.847 55.0457 169.52 55.5523 170.4C56.059 171.267 56.3123 172.273 56.3123 173.42C56.3123 174.567 56.0523 175.58 55.5323 176.46C55.0257 177.327 54.3257 177.993 53.4323 178.46C52.5523 178.927 51.5657 179.16 50.4723 179.16ZM50.4723 176.2C51.1257 176.2 51.679 175.96 52.1323 175.48C52.599 175 52.8323 174.313 52.8323 173.42C52.8323 172.527 52.6057 171.84 52.1523 171.36C51.7123 170.88 51.1657 170.64 50.5123 170.64C49.8457 170.64 49.2923 170.88 48.8523 171.36C48.4123 171.827 48.1923 172.513 48.1923 173.42C48.1923 174.313 48.4057 175 48.8323 175.48C49.2723 175.96 49.819 176.2 50.4723 176.2ZM72.3667 167.72C73.7534 167.72 74.8534 168.14 75.6667 168.98C76.4934 169.82 76.9067 170.987 76.9067 172.48V179H73.5067V172.94C73.5067 172.22 73.3134 171.667 72.9267 171.28C72.5534 170.88 72.0334 170.68 71.3667 170.68C70.7001 170.68 70.1734 170.88 69.7867 171.28C69.4134 171.667 69.2267 172.22 69.2267 172.94V179H65.8267V172.94C65.8267 172.22 65.6334 171.667 65.2467 171.28C64.8734 170.88 64.3534 170.68 63.6867 170.68C63.0201 170.68 62.4934 170.88 62.1067 171.28C61.7334 171.667 61.5467 172.22 61.5467 172.94V179H58.1267V167.84H61.5467V169.24C61.8934 168.773 62.3467 168.407 62.9067 168.14C63.4667 167.86 64.1001 167.72 64.8067 167.72C65.6467 167.72 66.3934 167.9 67.0467 168.26C67.7134 168.62 68.2334 169.133 68.6067 169.8C68.9934 169.187 69.5201 168.687 70.1867 168.3C70.8534 167.913 71.5801 167.72 72.3667 167.72ZM89.8186 173.24C89.8186 173.56 89.7986 173.893 89.7586 174.24H82.0186C82.0719 174.933 82.2919 175.467 82.6786 175.84C83.0786 176.2 83.5653 176.38 84.1386 176.38C84.9919 176.38 85.5853 176.02 85.9186 175.3H89.5586C89.3719 176.033 89.0319 176.693 88.5386 177.28C88.0586 177.867 87.4519 178.327 86.7186 178.66C85.9853 178.993 85.1653 179.16 84.2586 179.16C83.1653 179.16 82.1919 178.927 81.3386 178.46C80.4853 177.993 79.8186 177.327 79.3386 176.46C78.8586 175.593 78.6186 174.58 78.6186 173.42C78.6186 172.26 78.8519 171.247 79.3186 170.38C79.7986 169.513 80.4653 168.847 81.3186 168.38C82.1719 167.913 83.1519 167.68 84.2586 167.68C85.3386 167.68 86.2986 167.907 87.1386 168.36C87.9786 168.813 88.6319 169.46 89.0986 170.3C89.5786 171.14 89.8186 172.12 89.8186 173.24ZM86.3186 172.34C86.3186 171.753 86.1186 171.287 85.7186 170.94C85.3186 170.593 84.8186 170.42 84.2186 170.42C83.6453 170.42 83.1586 170.587 82.7586 170.92C82.3719 171.253 82.1319 171.727 82.0386 172.34H86.3186ZM97.8428 176.1V179H96.1028C94.8628 179 93.8961 178.7 93.2028 178.1C92.5095 177.487 92.1628 176.493 92.1628 175.12V170.68H90.8028V167.84H92.1628V165.12H95.5828V167.84H97.8228V170.68H95.5828V175.16C95.5828 175.493 95.6628 175.733 95.8228 175.88C95.9828 176.027 96.2495 176.1 96.6228 176.1H97.8428ZM106.608 167.72C107.888 167.72 108.914 168.147 109.688 169C110.461 169.84 110.848 171 110.848 172.48V179H107.448V172.94C107.448 172.193 107.254 171.613 106.868 171.2C106.481 170.787 105.961 170.58 105.308 170.58C104.654 170.58 104.134 170.787 103.748 171.2C103.361 171.613 103.168 172.193 103.168 172.94V179H99.7478V164.2H103.168V169.34C103.514 168.847 103.988 168.453 104.588 168.16C105.188 167.867 105.861 167.72 106.608 167.72ZM114.944 166.68C114.344 166.68 113.851 166.507 113.464 166.16C113.091 165.8 112.904 165.36 112.904 164.84C112.904 164.307 113.091 163.867 113.464 163.52C113.851 163.16 114.344 162.98 114.944 162.98C115.531 162.98 116.011 163.16 116.384 163.52C116.771 163.867 116.964 164.307 116.964 164.84C116.964 165.36 116.771 165.8 116.384 166.16C116.011 166.507 115.531 166.68 114.944 166.68ZM116.644 167.84V179H113.224V167.84H116.644ZM125.923 167.72C127.229 167.72 128.269 168.147 129.043 169C129.829 169.84 130.223 171 130.223 172.48V179H126.823V172.94C126.823 172.193 126.629 171.613 126.243 171.2C125.856 170.787 125.336 170.58 124.683 170.58C124.029 170.58 123.509 170.787 123.123 171.2C122.736 171.613 122.543 172.193 122.543 172.94V179H119.123V167.84H122.543V169.32C122.889 168.827 123.356 168.44 123.943 168.16C124.529 167.867 125.189 167.72 125.923 167.72ZM136.839 167.68C137.626 167.68 138.313 167.84 138.899 168.16C139.499 168.48 139.959 168.9 140.279 169.42V167.84H143.699V178.98C143.699 180.007 143.493 180.933 143.079 181.76C142.679 182.6 142.059 183.267 141.219 183.76C140.393 184.253 139.359 184.5 138.119 184.5C136.466 184.5 135.126 184.107 134.099 183.32C133.073 182.547 132.486 181.493 132.339 180.16H135.719C135.826 180.587 136.079 180.92 136.479 181.16C136.879 181.413 137.373 181.54 137.959 181.54C138.666 181.54 139.226 181.333 139.639 180.92C140.066 180.52 140.279 179.873 140.279 178.98V177.4C139.946 177.92 139.486 178.347 138.899 178.68C138.313 179 137.626 179.16 136.839 179.16C135.919 179.16 135.086 178.927 134.339 178.46C133.593 177.98 132.999 177.307 132.559 176.44C132.133 175.56 131.919 174.547 131.919 173.4C131.919 172.253 132.133 171.247 132.559 170.38C132.999 169.513 133.593 168.847 134.339 168.38C135.086 167.913 135.919 167.68 136.839 167.68ZM140.279 173.42C140.279 172.567 140.039 171.893 139.559 171.4C139.093 170.907 138.519 170.66 137.839 170.66C137.159 170.66 136.579 170.907 136.099 171.4C135.633 171.88 135.399 172.547 135.399 173.4C135.399 174.253 135.633 174.933 136.099 175.44C136.579 175.933 137.159 176.18 137.839 176.18C138.519 176.18 139.093 175.933 139.559 175.44C140.039 174.947 140.279 174.273 140.279 173.42ZM150.674 164.46L150.274 174.04H147.374L146.974 164.46H150.674ZM148.874 179.16C148.274 179.16 147.78 178.987 147.394 178.64C147.02 178.28 146.834 177.84 146.834 177.32C146.834 176.787 147.02 176.34 147.394 175.98C147.78 175.62 148.274 175.44 148.874 175.44C149.46 175.44 149.94 175.62 150.314 175.98C150.7 176.34 150.894 176.787 150.894 177.32C150.894 177.84 150.7 178.28 150.314 178.64C149.94 178.987 149.46 179.16 148.874 179.16Z" fill="white"/>
<rect x="527.323" y="209.732" width="3.22472" height="12.7079" transform="rotate(-3.73005 527.323 209.732)" fill="#0C5D8D"/>
<path d="M534.56 210.577C533.61 209.234 529.077 190.735 525.991 186.544L523.476 211.3C529.087 211.081 535.509 211.921 534.56 210.577Z" fill="#155175"/>
<rect x="541.625" y="208.799" width="3.22472" height="12.7079" transform="rotate(-3.73005 541.625 208.799)" fill="#0C5D8D"/>
<path d="M548.861 209.645C547.912 208.302 543.379 189.802 540.293 185.612L537.777 210.368C543.388 210.148 549.811 210.988 548.861 209.645Z" fill="#155175"/>
<rect x="510.819" y="209.929" width="3.22472" height="12.7079" transform="rotate(-3.73005 510.819 209.929)" fill="#0C5D8D"/>
<path d="M518.056 210.775C517.106 209.432 512.573 190.932 509.487 186.742L506.972 211.498C512.583 211.278 519.005 212.118 518.056 210.775Z" fill="#155175"/>
<rect x="257.785" y="250.687" width="3.22472" height="12.7079" transform="rotate(1.67239 257.785 250.687)" fill="#0C5D8D"/>
<path d="M264.91 252.21C264.091 250.783 261.32 231.939 258.642 227.477L253.807 251.886C259.414 252.196 265.729 253.637 264.91 252.21Z" fill="#155175"/>
<rect x="272.111" y="251.105" width="3.22472" height="12.7079" transform="rotate(1.67239 272.111 251.105)" fill="#0C5D8D"/>
<path d="M279.236 252.628C278.417 251.202 275.646 232.358 272.968 227.896L268.133 252.304C273.74 252.614 280.055 254.055 279.236 252.628Z" fill="#155175"/>
<rect x="241.336" y="249.33" width="3.22472" height="12.7079" transform="rotate(1.67239 241.336 249.33)" fill="#0C5D8D"/>
<path d="M248.461 250.853C247.642 249.426 244.871 230.582 242.193 226.12L237.358 250.529C242.965 250.839 249.279 252.28 248.461 250.853Z" fill="#155175"/>
<rect x="202.785" y="246.687" width="3.22472" height="12.7079" transform="rotate(1.67239 202.785 246.687)" fill="#0C5D8D"/>
<path d="M209.91 248.21C209.091 246.783 206.32 227.939 203.642 223.477L198.807 247.886C204.414 248.196 210.729 249.637 209.91 248.21Z" fill="#155175"/>
<rect x="217.111" y="247.105" width="3.22472" height="12.7079" transform="rotate(1.67239 217.111 247.105)" fill="#0C5D8D"/>
<path d="M224.236 248.628C223.417 247.202 220.646 228.358 217.968 223.896L213.133 248.304C218.74 248.614 225.055 250.055 224.236 248.628Z" fill="#155175"/>
<rect x="186.336" y="245.33" width="3.22472" height="12.7079" transform="rotate(1.67239 186.336 245.33)" fill="#0C5D8D"/>
<path d="M193.461 246.853C192.642 245.426 189.871 226.582 187.193 222.12L182.358 246.529C187.965 246.839 194.279 248.28 193.461 246.853Z" fill="#155175"/>
<rect x="31.7854" y="243.687" width="3.22472" height="12.7079" transform="rotate(1.67239 31.7854 243.687)" fill="#0C5D8D"/>
<path d="M38.91 245.21C38.0914 243.783 35.3199 224.939 32.6423 220.477L27.8074 244.886C33.4141 245.196 39.7287 246.637 38.91 245.21Z" fill="#155175"/>
<rect x="46.1114" y="244.105" width="3.22472" height="12.7079" transform="rotate(1.67239 46.1114 244.105)" fill="#0C5D8D"/>
<path d="M53.236 245.628C52.4174 244.202 49.6459 225.358 46.9683 220.896L42.1334 245.304C47.7401 245.614 54.0546 247.055 53.236 245.628Z" fill="#155175"/>
<rect x="15.3361" y="242.33" width="3.22472" height="12.7079" transform="rotate(1.67239 15.3361 242.33)" fill="#0C5D8D"/>
<path d="M22.4607 243.853C21.6421 242.426 18.8706 223.582 16.193 219.12L11.3581 243.529C16.9648 243.839 23.2794 245.28 22.4607 243.853Z" fill="#155175"/>
<rect x="114.785" y="243.687" width="3.22472" height="12.7079" transform="rotate(1.67239 114.785 243.687)" fill="#0C5D8D"/>
<path d="M121.91 245.21C121.091 243.783 118.32 224.939 115.642 220.477L110.807 244.886C116.414 245.196 122.729 246.637 121.91 245.21Z" fill="#155175"/>
<rect x="129.111" y="244.105" width="3.22472" height="12.7079" transform="rotate(1.67239 129.111 244.105)" fill="#0C5D8D"/>
<path d="M136.236 245.628C135.417 244.202 132.646 225.358 129.968 220.896L125.133 245.304C130.74 245.614 137.055 247.055 136.236 245.628Z" fill="#155175"/>
<rect x="98.3361" y="242.33" width="3.22472" height="12.7079" transform="rotate(1.67239 98.3361 242.33)" fill="#0C5D8D"/>
<path d="M105.461 243.853C104.642 242.426 101.871 223.582 99.193 219.12L94.3581 243.529C99.9648 243.839 106.279 245.28 105.461 243.853Z" fill="#155175"/>
<rect x="33" y="92" width="79" height="4" fill="#1B6BFF"/>
<circle cx="481" cy="75" r="75" fill="#C4C4C4" fill-opacity="0.11"/>
<circle cx="480" cy="74" r="65" fill="#C4C4C4" fill-opacity="0.13"/>
<circle cx="480" cy="72" r="55" fill="#C4C4C4" fill-opacity="0.19"/>
<circle cx="480" cy="71" r="43" fill="white"/>
<circle cx="505.5" cy="48.5" r="4.5" fill="#D7D7D7"/>
<circle cx="492.5" cy="80.5" r="4.5" fill="#D7D7D7"/>
<circle cx="475.5" cy="57.5" r="4.5" fill="#D7D7D7"/>
<circle cx="478.5" cy="69.5" r="2.5" fill="#D7D7D7"/>
<circle cx="504.5" cy="94.5" r="4.5" fill="#D7D7D7"/>
<circle cx="466.5" cy="84.5" r="4.5" fill="#D7D7D7"/>
<circle cx="462.5" cy="98.5" r="4.5" fill="#D7D7D7"/>
<circle cx="493.5" cy="57.5" r="5.5" fill="#D7D7D7"/>
<circle cx="506.5" cy="75.5" r="1.5" fill="#D7D7D7"/>
<circle cx="482.5" cy="38.5" r="3.5" fill="#D7D7D7"/>
<circle cx="462.5" cy="44.5" r="4.5" fill="#D7D7D7"/>
<circle cx="449.5" cy="82.5" r="4.5" fill="#D7D7D7"/>
<circle cx="482" cy="97" r="2" fill="#D7D7D7"/>
<circle cx="513.5" cy="62.5" r="4.5" fill="#D7D7D7"/>
<circle cx="449.5" cy="60.5" r="4.5" fill="#D7D7D7"/>
<circle cx="461" cy="68" r="2" fill="#D7D7D7"/>
<path d="M193 44C213.404 37 260.37 23 285 23" stroke="white" stroke-width="0.5"/>
<circle cx="170.5" cy="62.5" r="0.5" fill="white"/>
<circle cx="265.5" cy="65.5" r="0.5" fill="white"/>
<circle cx="296.5" cy="34.5" r="0.5" fill="white"/>
<circle cx="316.5" cy="68.5" r="0.5" fill="white"/>
<circle cx="352.5" cy="65.5" r="0.5" fill="white"/>
<circle cx="278.5" cy="93.5" r="0.5" fill="white"/>
<circle cx="332.5" cy="12.5" r="0.5" fill="white"/>
<circle cx="431.5" cy="21.5" r="0.5" fill="white"/>
<circle cx="514.5" cy="18.5" r="0.5" fill="white"/>
<circle cx="538.5" cy="90.5" r="0.5" fill="white"/>
<circle cx="475.5" cy="14.5" r="0.5" fill="white"/>
<circle cx="360.5" cy="35.5" r="0.5" fill="white"/>
<circle cx="402.5" cy="67.5" r="0.5" fill="white"/>
<circle cx="424.5" cy="90.5" r="0.5" fill="white"/>
<circle cx="339.5" cy="102.5" r="0.5" fill="white"/>
<circle cx="389.5" cy="22.5" r="0.5" fill="white"/>
<circle cx="241.5" cy="44.5" r="0.5" fill="white"/>
<circle cx="202.5" cy="82.5" r="0.5" fill="white"/>
<circle cx="136.5" cy="34.5" r="0.5" fill="white"/>
<circle cx="250.5" cy="13.5" r="0.5" fill="white"/>
<circle cx="240.5" cy="89.5" r="0.5" fill="white"/>
<circle cx="161.5" cy="89.5" r="0.5" fill="white"/>
<circle cx="112.5" cy="71.5" r="0.5" fill="white"/>
<circle cx="51.5" cy="68.5" r="0.5" fill="white"/>
<circle cx="184.5" cy="25.5" r="0.5" fill="white"/>
<circle cx="378.5" cy="95.5" r="0.5" fill="white"/>
<path d="M361 277C351 269 264.8 253.2 0 254V302H388L361 277Z" fill="#155175"/>
<path d="M339 302C368.6 242.8 496.667 220.667 557 217V302H339Z" fill="#084468"/>
<path d="M426.578 274.382H430.498V276.736H423.585V264.219H426.578V274.382ZM434.917 266.662V269.194H438.925V271.547H434.917V274.293H439.45V276.736H431.925V264.219H439.45V266.662H434.917ZM449.04 274.525H444.455L443.72 276.736H440.588L445.033 264.219H448.498L452.943 276.736H449.775L449.04 274.525ZM448.27 272.171L446.748 267.589L445.243 272.171H448.27ZM460.56 276.736L458.005 272.011H457.288V276.736H454.295V264.219H459.318C460.286 264.219 461.109 264.391 461.785 264.736C462.474 265.081 462.987 265.556 463.326 266.163C463.664 266.757 463.833 267.423 463.833 268.16C463.833 268.992 463.6 269.735 463.133 270.388C462.678 271.042 462.001 271.506 461.103 271.779L463.938 276.736H460.56ZM457.288 269.853H459.143C459.691 269.853 460.1 269.717 460.368 269.443C460.648 269.17 460.788 268.784 460.788 268.284C460.788 267.809 460.648 267.434 460.368 267.161C460.1 266.888 459.691 266.751 459.143 266.751H457.288V269.853ZM476.702 276.736H473.709L468.704 269.015V276.736H465.712V264.219H468.704L473.709 271.975V264.219H476.702V276.736ZM483.473 264.219C484.768 264.219 485.9 264.481 486.868 265.004C487.837 265.527 488.583 266.264 489.108 267.215C489.645 268.154 489.913 269.241 489.913 270.477C489.913 271.702 489.645 272.789 489.108 273.74C488.583 274.691 487.831 275.428 486.851 275.951C485.883 276.474 484.757 276.736 483.473 276.736H478.871V264.219H483.473ZM483.281 274.097C484.413 274.097 485.293 273.782 485.923 273.152C486.553 272.522 486.868 271.63 486.868 270.477C486.868 269.324 486.553 268.427 485.923 267.785C485.293 267.143 484.413 266.822 483.281 266.822H481.863V274.097H483.281ZM494.578 266.662V269.194H498.586V271.547H494.578V274.293H499.111V276.736H491.586V264.219H499.111V266.662H494.578ZM512.586 264.219L508.229 276.736H504.484L500.126 264.219H503.311L506.356 273.669L509.419 264.219H512.586Z" fill="white"/>
<path d="M520.442 264H517.885V276.736H520.442V264Z" fill="white"/>
<path d="M523 268.717H517.885V272.019H523V268.717Z" fill="white"/>
<path d="M521.115 264H516V267.302H521.115V264Z" fill="white"/>
<path d="M521.115 273.434H516V276.736H521.115V273.434Z" fill="white"/>
<path d="M417.9 264H415.45V276.736H417.9V264Z" fill="white"/>
<path d="M419.707 273.434H414.806V276.736H419.707V273.434Z" fill="white"/>
<path d="M419.707 264H414.806V267.302H419.707V264Z" fill="white"/>
<path d="M417.9 268.717H413V272.019H417.9V268.717Z" fill="white"/>
<defs>
<linearGradient id="paint0_linear" x1="278.5" y1="0" x2="278.5" y2="302" gradientUnits="userSpaceOnUse">
<stop stop-color="#0B3480"/>
<stop offset="1" stop-color="#2F6A8D"/>
</linearGradient>
</defs>
</svg>
