<svg width="339" height="200" viewBox="0 0 339 200" fill="none" xmlns="http://www.w3.org/2000/svg">
<rect x="1" width="338" height="200" fill="#0A466A"/>
<path d="M0 0H146.023L257 200H0V0Z" fill="#4C9ACA" fill-opacity="0.16"/>
<path d="M0 0H109.091L192 200H0V0Z" fill="#0C5D8D"/>
<path d="M0 0H71.0227L125 200H0V0Z" fill="#1583C5"/>
<path d="M314.164 154.545H310.328V175.758H314.164V154.545Z" fill="white"/>
<path d="M318 162.402H310.328V167.901H318V162.402Z" fill="white"/>
<path d="M315.172 154.545H307.5V160.045H315.172V154.545Z" fill="white"/>
<path d="M315.172 170.258H307.5V175.758H315.172V170.258Z" fill="white"/>
<path d="M301.351 154.545H297.675V175.758H301.351V154.545Z" fill="white"/>
<path d="M304.06 170.258H296.709V175.758H304.06V170.258Z" fill="white"/>
<path d="M304.06 154.545H296.709V160.045H304.06V154.545Z" fill="white"/>
<path d="M301.351 162.402H294V167.901H301.351V162.402Z" fill="white"/>
<rect x="23" y="40.4041" width="79" height="4" fill="#FF0000"/>
<path d="M36.4 55.4549V69.4949H32.98V63.7149H27.66V69.4949H24.24V55.4549H27.66V60.9549H32.98V55.4549H36.4ZM49.3889 63.7349C49.3889 64.0549 49.3689 64.3883 49.3289 64.7349H41.5889C41.6422 65.4283 41.8622 65.9616 42.2489 66.3349C42.6489 66.6949 43.1356 66.8749 43.7089 66.8749C44.5622 66.8749 45.1556 66.5149 45.4889 65.7949H49.1289C48.9422 66.5283 48.6022 67.1883 48.1089 67.7749C47.6289 68.3616 47.0222 68.8216 46.2889 69.1549C45.5556 69.4883 44.7356 69.6549 43.8289 69.6549C42.7356 69.6549 41.7622 69.4216 40.9089 68.9549C40.0556 68.4883 39.3889 67.8216 38.9089 66.9549C38.4289 66.0883 38.1889 65.0749 38.1889 63.9149C38.1889 62.7549 38.4222 61.7416 38.8889 60.8749C39.3689 60.0083 40.0356 59.3416 40.8889 58.8749C41.7422 58.4083 42.7222 58.1749 43.8289 58.1749C44.9089 58.1749 45.8689 58.4016 46.7089 58.8549C47.5489 59.3083 48.2022 59.9549 48.6689 60.7949C49.1489 61.6349 49.3889 62.6149 49.3889 63.7349ZM45.8889 62.8349C45.8889 62.2483 45.6889 61.7816 45.2889 61.4349C44.8889 61.0883 44.3889 60.9149 43.7889 60.9149C43.2156 60.9149 42.7289 61.0816 42.3289 61.4149C41.9422 61.7483 41.7022 62.2216 41.6089 62.8349H45.8889ZM54.6131 54.6949V69.4949H51.1931V54.6949H54.6131ZM60.5116 59.9149C60.8449 59.3949 61.3049 58.9749 61.8916 58.6549C62.4782 58.3349 63.1649 58.1749 63.9516 58.1749C64.8716 58.1749 65.7049 58.4083 66.4516 58.8749C67.1982 59.3416 67.7849 60.0083 68.2116 60.8749C68.6516 61.7416 68.8716 62.7483 68.8716 63.8949C68.8716 65.0416 68.6516 66.0549 68.2116 66.9349C67.7849 67.8016 67.1982 68.4749 66.4516 68.9549C65.7049 69.4216 64.8716 69.6549 63.9516 69.6549C63.1782 69.6549 62.4916 69.4949 61.8916 69.1749C61.3049 68.8549 60.8449 68.4416 60.5116 67.9349V74.8149H57.0916V58.3349H60.5116V59.9149ZM65.3916 63.8949C65.3916 63.0416 65.1516 62.3749 64.6716 61.8949C64.2049 61.4016 63.6249 61.1549 62.9316 61.1549C62.2516 61.1549 61.6716 61.4016 61.1916 61.8949C60.7249 62.3883 60.4916 63.0616 60.4916 63.9149C60.4916 64.7683 60.7249 65.4416 61.1916 65.9349C61.6716 66.4283 62.2516 66.6749 62.9316 66.6749C63.6116 66.6749 64.1916 66.4283 64.6716 65.9349C65.1516 65.4283 65.3916 64.7483 65.3916 63.8949ZM85.9241 58.3349V69.4949H82.5041V67.9749C82.1574 68.4683 81.6841 68.8683 81.0841 69.1749C80.4974 69.4683 79.8441 69.6149 79.1241 69.6149C78.2707 69.6149 77.5174 69.4283 76.8641 69.0549C76.2107 68.6683 75.7041 68.1149 75.3441 67.3949C74.9841 66.6749 74.8041 65.8283 74.8041 64.8549V58.3349H78.2041V64.3949C78.2041 65.1416 78.3974 65.7216 78.7841 66.1349C79.1707 66.5483 79.6907 66.7549 80.3441 66.7549C81.0107 66.7549 81.5374 66.5483 81.9241 66.1349C82.3107 65.7216 82.5041 65.1416 82.5041 64.3949V58.3349H85.9241ZM92.9206 69.6549C91.9473 69.6549 91.0806 69.4883 90.3206 69.1549C89.5606 68.8216 88.9606 68.3683 88.5206 67.7949C88.0806 67.2083 87.834 66.5549 87.7806 65.8349H91.1606C91.2006 66.2216 91.3806 66.5349 91.7006 66.7749C92.0206 67.0149 92.414 67.1349 92.8806 67.1349C93.3073 67.1349 93.634 67.0549 93.8606 66.8949C94.1006 66.7216 94.2206 66.5016 94.2206 66.2349C94.2206 65.9149 94.054 65.6816 93.7206 65.5349C93.3873 65.3749 92.8473 65.2016 92.1006 65.0149C91.3006 64.8283 90.634 64.6349 90.1006 64.4349C89.5673 64.2216 89.1073 63.8949 88.7206 63.4549C88.334 63.0016 88.1406 62.3949 88.1406 61.6349C88.1406 60.9949 88.314 60.4149 88.6606 59.8949C89.0206 59.3616 89.5406 58.9416 90.2206 58.6349C90.914 58.3283 91.734 58.1749 92.6806 58.1749C94.0806 58.1749 95.1806 58.5216 95.9806 59.2149C96.794 59.9083 97.2606 60.8283 97.3806 61.9749H94.2206C94.1673 61.5883 93.994 61.2816 93.7006 61.0549C93.4206 60.8283 93.0473 60.7149 92.5806 60.7149C92.1806 60.7149 91.874 60.7949 91.6606 60.9549C91.4473 61.1016 91.3406 61.3083 91.3406 61.5749C91.3406 61.8949 91.5073 62.1349 91.8406 62.2949C92.1873 62.4549 92.7206 62.6149 93.4406 62.7749C94.2673 62.9883 94.9406 63.2016 95.4606 63.4149C95.9806 63.6149 96.434 63.9483 96.8206 64.4149C97.2206 64.8683 97.4273 65.4816 97.4406 66.2549C97.4406 66.9083 97.254 67.4949 96.8806 68.0149C96.5206 68.5216 95.994 68.9216 95.3006 69.2149C94.6206 69.5083 93.8273 69.6549 92.9206 69.6549ZM108.011 58.1749C108.798 58.1749 109.485 58.3349 110.071 58.6549C110.671 58.9749 111.131 59.3949 111.451 59.9149V58.3349H114.871V69.4749C114.871 70.5016 114.665 71.4283 114.251 72.2549C113.851 73.0949 113.231 73.7616 112.391 74.2549C111.565 74.7483 110.531 74.9949 109.291 74.9949C107.638 74.9949 106.298 74.6016 105.271 73.8149C104.245 73.0416 103.658 71.9883 103.511 70.6549H106.891C106.998 71.0816 107.251 71.4149 107.651 71.6549C108.051 71.9083 108.545 72.0349 109.131 72.0349C109.838 72.0349 110.398 71.8283 110.811 71.4149C111.238 71.0149 111.451 70.3683 111.451 69.4749V67.8949C111.118 68.4149 110.658 68.8416 110.071 69.1749C109.485 69.4949 108.798 69.6549 108.011 69.6549C107.091 69.6549 106.258 69.4216 105.511 68.9549C104.765 68.4749 104.171 67.8016 103.731 66.9349C103.305 66.0549 103.091 65.0416 103.091 63.8949C103.091 62.7483 103.305 61.7416 103.731 60.8749C104.171 60.0083 104.765 59.3416 105.511 58.8749C106.258 58.4083 107.091 58.1749 108.011 58.1749ZM111.451 63.9149C111.451 63.0616 111.211 62.3883 110.731 61.8949C110.265 61.4016 109.691 61.1549 109.011 61.1549C108.331 61.1549 107.751 61.4016 107.271 61.8949C106.805 62.3749 106.571 63.0416 106.571 63.8949C106.571 64.7483 106.805 65.4283 107.271 65.9349C107.751 66.4283 108.331 66.6749 109.011 66.6749C109.691 66.6749 110.265 66.4283 110.731 65.9349C111.211 65.4416 111.451 64.7683 111.451 63.9149ZM120.765 60.1949C121.165 59.5816 121.665 59.1016 122.265 58.7549C122.865 58.3949 123.532 58.2149 124.265 58.2149V61.8349H123.325C122.472 61.8349 121.832 62.0216 121.405 62.3949C120.979 62.7549 120.765 63.3949 120.765 64.3149V69.4949H117.345V58.3349H120.765V60.1949ZM130.98 69.6549C129.887 69.6549 128.9 69.4216 128.02 68.9549C127.153 68.4883 126.467 67.8216 125.96 66.9549C125.467 66.0883 125.22 65.0749 125.22 63.9149C125.22 62.7683 125.473 61.7616 125.98 60.8949C126.487 60.0149 127.18 59.3416 128.06 58.8749C128.94 58.4083 129.927 58.1749 131.02 58.1749C132.113 58.1749 133.1 58.4083 133.98 58.8749C134.86 59.3416 135.553 60.0149 136.06 60.8949C136.567 61.7616 136.82 62.7683 136.82 63.9149C136.82 65.0616 136.56 66.0749 136.04 66.9549C135.533 67.8216 134.833 68.4883 133.94 68.9549C133.06 69.4216 132.073 69.6549 130.98 69.6549ZM130.98 66.6949C131.633 66.6949 132.187 66.4549 132.64 65.9749C133.107 65.4949 133.34 64.8083 133.34 63.9149C133.34 63.0216 133.113 62.3349 132.66 61.8549C132.22 61.3749 131.673 61.1349 131.02 61.1349C130.353 61.1349 129.8 61.3749 129.36 61.8549C128.92 62.3216 128.7 63.0083 128.7 63.9149C128.7 64.8083 128.913 65.4949 129.34 65.9749C129.78 66.4549 130.327 66.6949 130.98 66.6949ZM154.655 58.3349L151.635 69.4949H147.855L146.095 62.2549L144.275 69.4949H140.515L137.475 58.3349H140.895L142.475 66.3149L144.355 58.3349H147.975L149.875 66.2749L151.435 58.3349H154.655ZM157.679 57.1749C157.079 57.1749 156.585 57.0016 156.199 56.6549C155.825 56.2949 155.639 55.8549 155.639 55.3349C155.639 54.8016 155.825 54.3616 156.199 54.0149C156.585 53.6549 157.079 53.4749 157.679 53.4749C158.265 53.4749 158.745 53.6549 159.119 54.0149C159.505 54.3616 159.699 54.8016 159.699 55.3349C159.699 55.8549 159.505 56.2949 159.119 56.6549C158.745 57.0016 158.265 57.1749 157.679 57.1749ZM159.379 58.3349V69.4949H155.959V58.3349H159.379ZM168.657 58.2149C169.964 58.2149 171.004 58.6416 171.777 59.4949C172.564 60.3349 172.957 61.4949 172.957 62.9749V69.4949H169.557V63.4349C169.557 62.6883 169.364 62.1083 168.977 61.6949C168.591 61.2816 168.071 61.0749 167.417 61.0749C166.764 61.0749 166.244 61.2816 165.857 61.6949C165.471 62.1083 165.277 62.6883 165.277 63.4349V69.4949H161.857V58.3349H165.277V59.8149C165.624 59.3216 166.091 58.9349 166.677 58.6549C167.264 58.3616 167.924 58.2149 168.657 58.2149ZM179.574 58.1749C180.36 58.1749 181.047 58.3349 181.634 58.6549C182.234 58.9749 182.694 59.3949 183.014 59.9149V58.3349H186.434V69.4749C186.434 70.5016 186.227 71.4283 185.814 72.2549C185.414 73.0949 184.794 73.7616 183.954 74.2549C183.127 74.7483 182.094 74.9949 180.854 74.9949C179.2 74.9949 177.86 74.6016 176.834 73.8149C175.807 73.0416 175.22 71.9883 175.074 70.6549H178.454C178.56 71.0816 178.814 71.4149 179.214 71.6549C179.614 71.9083 180.107 72.0349 180.694 72.0349C181.4 72.0349 181.96 71.8283 182.374 71.4149C182.8 71.0149 183.014 70.3683 183.014 69.4749V67.8949C182.68 68.4149 182.22 68.8416 181.634 69.1749C181.047 69.4949 180.36 69.6549 179.574 69.6549C178.654 69.6549 177.82 69.4216 177.074 68.9549C176.327 68.4749 175.734 67.8016 175.294 66.9349C174.867 66.0549 174.654 65.0416 174.654 63.8949C174.654 62.7483 174.867 61.7416 175.294 60.8749C175.734 60.0083 176.327 59.3416 177.074 58.8749C177.82 58.4083 178.654 58.1749 179.574 58.1749ZM183.014 63.9149C183.014 63.0616 182.774 62.3883 182.294 61.8949C181.827 61.4016 181.254 61.1549 180.574 61.1549C179.894 61.1549 179.314 61.4016 178.834 61.8949C178.367 62.3749 178.134 63.0416 178.134 63.8949C178.134 64.7483 178.367 65.4283 178.834 65.9349C179.314 66.4283 179.894 66.6749 180.574 66.6749C181.254 66.6749 181.827 66.4283 182.294 65.9349C182.774 65.4416 183.014 64.7683 183.014 63.9149ZM199.366 66.5949V69.4949H197.626C196.386 69.4949 195.42 69.1949 194.726 68.5949C194.033 67.9816 193.686 66.9883 193.686 65.6149V61.1749H192.326V58.3349H193.686V55.6149H197.106V58.3349H199.346V61.1749H197.106V65.6549C197.106 65.9883 197.186 66.2283 197.346 66.3749C197.506 66.5216 197.773 66.5949 198.146 66.5949H199.366ZM208.131 58.2149C209.411 58.2149 210.438 58.6416 211.211 59.4949C211.985 60.3349 212.371 61.4949 212.371 62.9749V69.4949H208.971V63.4349C208.971 62.6883 208.778 62.1083 208.391 61.6949C208.005 61.2816 207.485 61.0749 206.831 61.0749C206.178 61.0749 205.658 61.2816 205.271 61.6949C204.885 62.1083 204.691 62.6883 204.691 63.4349V69.4949H201.271V54.6949H204.691V59.8349C205.038 59.3416 205.511 58.9483 206.111 58.6549C206.711 58.3616 207.385 58.2149 208.131 58.2149ZM216.468 57.1749C215.868 57.1749 215.374 57.0016 214.988 56.6549C214.614 56.2949 214.428 55.8549 214.428 55.3349C214.428 54.8016 214.614 54.3616 214.988 54.0149C215.374 53.6549 215.868 53.4749 216.468 53.4749C217.054 53.4749 217.534 53.6549 217.908 54.0149C218.294 54.3616 218.488 54.8016 218.488 55.3349C218.488 55.8549 218.294 56.2949 217.908 56.6549C217.534 57.0016 217.054 57.1749 216.468 57.1749ZM218.168 58.3349V69.4949H214.748V58.3349H218.168ZM225.186 69.6549C224.213 69.6549 223.346 69.4883 222.586 69.1549C221.826 68.8216 221.226 68.3683 220.786 67.7949C220.346 67.2083 220.1 66.5549 220.046 65.8349H223.426C223.466 66.2216 223.646 66.5349 223.966 66.7749C224.286 67.0149 224.68 67.1349 225.146 67.1349C225.573 67.1349 225.9 67.0549 226.126 66.8949C226.366 66.7216 226.486 66.5016 226.486 66.2349C226.486 65.9149 226.32 65.6816 225.986 65.5349C225.653 65.3749 225.113 65.2016 224.366 65.0149C223.566 64.8283 222.9 64.6349 222.366 64.4349C221.833 64.2216 221.373 63.8949 220.986 63.4549C220.6 63.0016 220.406 62.3949 220.406 61.6349C220.406 60.9949 220.58 60.4149 220.926 59.8949C221.286 59.3616 221.806 58.9416 222.486 58.6349C223.18 58.3283 224 58.1749 224.946 58.1749C226.346 58.1749 227.446 58.5216 228.246 59.2149C229.06 59.9083 229.526 60.8283 229.646 61.9749H226.486C226.433 61.5883 226.26 61.2816 225.966 61.0549C225.686 60.8283 225.313 60.7149 224.846 60.7149C224.446 60.7149 224.14 60.7949 223.926 60.9549C223.713 61.1016 223.606 61.3083 223.606 61.5749C223.606 61.8949 223.773 62.1349 224.106 62.2949C224.453 62.4549 224.986 62.6149 225.706 62.7749C226.533 62.9883 227.206 63.2016 227.726 63.4149C228.246 63.6149 228.7 63.9483 229.086 64.4149C229.486 64.8683 229.693 65.4816 229.706 66.2549C229.706 66.9083 229.52 67.4949 229.146 68.0149C228.786 68.5216 228.26 68.9216 227.566 69.2149C226.886 69.5083 226.093 69.6549 225.186 69.6549ZM252.057 58.3349L249.037 69.4949H245.257L243.497 62.2549L241.677 69.4949H237.917L234.877 58.3349H238.297L239.877 66.3149L241.757 58.3349H245.377L247.277 66.2749L248.837 58.3349H252.057ZM263.881 63.7349C263.881 64.0549 263.861 64.3883 263.821 64.7349H256.081C256.134 65.4283 256.354 65.9616 256.741 66.3349C257.141 66.6949 257.628 66.8749 258.201 66.8749C259.054 66.8749 259.648 66.5149 259.981 65.7949H263.621C263.434 66.5283 263.094 67.1883 262.601 67.7749C262.121 68.3616 261.514 68.8216 260.781 69.1549C260.048 69.4883 259.228 69.6549 258.321 69.6549C257.228 69.6549 256.254 69.4216 255.401 68.9549C254.548 68.4883 253.881 67.8216 253.401 66.9549C252.921 66.0883 252.681 65.0749 252.681 63.9149C252.681 62.7549 252.914 61.7416 253.381 60.8749C253.861 60.0083 254.528 59.3416 255.381 58.8749C256.234 58.4083 257.214 58.1749 258.321 58.1749C259.401 58.1749 260.361 58.4016 261.201 58.8549C262.041 59.3083 262.694 59.9549 263.161 60.7949C263.641 61.6349 263.881 62.6149 263.881 63.7349ZM260.381 62.8349C260.381 62.2483 260.181 61.7816 259.781 61.4349C259.381 61.0883 258.881 60.9149 258.281 60.9149C257.708 60.9149 257.221 61.0816 256.821 61.4149C256.434 61.7483 256.194 62.2216 256.101 62.8349H260.381ZM269.105 59.9149C269.425 59.3949 269.885 58.9749 270.485 58.6549C271.085 58.3349 271.772 58.1749 272.545 58.1749C273.465 58.1749 274.299 58.4083 275.045 58.8749C275.792 59.3416 276.379 60.0083 276.805 60.8749C277.245 61.7416 277.465 62.7483 277.465 63.8949C277.465 65.0416 277.245 66.0549 276.805 66.9349C276.379 67.8016 275.792 68.4749 275.045 68.9549C274.299 69.4216 273.465 69.6549 272.545 69.6549C271.759 69.6549 271.072 69.5016 270.485 69.1949C269.899 68.8749 269.439 68.4549 269.105 67.9349V69.4949H265.685V54.6949H269.105V59.9149ZM273.985 63.8949C273.985 63.0416 273.745 62.3749 273.265 61.8949C272.799 61.4016 272.219 61.1549 271.525 61.1549C270.845 61.1549 270.265 61.4016 269.785 61.8949C269.319 62.3883 269.085 63.0616 269.085 63.9149C269.085 64.7683 269.319 65.4416 269.785 65.9349C270.265 66.4283 270.845 66.6749 271.525 66.6749C272.205 66.6749 272.785 66.4283 273.265 65.9349C273.745 65.4283 273.985 64.7483 273.985 63.8949ZM283.8 69.6549C282.826 69.6549 281.96 69.4883 281.2 69.1549C280.44 68.8216 279.84 68.3683 279.4 67.7949C278.96 67.2083 278.713 66.5549 278.66 65.8349H282.04C282.08 66.2216 282.26 66.5349 282.58 66.7749C282.9 67.0149 283.293 67.1349 283.76 67.1349C284.186 67.1349 284.513 67.0549 284.74 66.8949C284.98 66.7216 285.1 66.5016 285.1 66.2349C285.1 65.9149 284.933 65.6816 284.6 65.5349C284.266 65.3749 283.726 65.2016 282.98 65.0149C282.18 64.8283 281.513 64.6349 280.98 64.4349C280.446 64.2216 279.986 63.8949 279.6 63.4549C279.213 63.0016 279.02 62.3949 279.02 61.6349C279.02 60.9949 279.193 60.4149 279.54 59.8949C279.9 59.3616 280.42 58.9416 281.1 58.6349C281.793 58.3283 282.613 58.1749 283.56 58.1749C284.96 58.1749 286.06 58.5216 286.86 59.2149C287.673 59.9083 288.14 60.8283 288.26 61.9749H285.1C285.046 61.5883 284.873 61.2816 284.58 61.0549C284.3 60.8283 283.926 60.7149 283.46 60.7149C283.06 60.7149 282.753 60.7949 282.54 60.9549C282.326 61.1016 282.22 61.3083 282.22 61.5749C282.22 61.8949 282.386 62.1349 282.72 62.2949C283.066 62.4549 283.6 62.6149 284.32 62.7749C285.146 62.9883 285.82 63.2016 286.34 63.4149C286.86 63.6149 287.313 63.9483 287.7 64.4149C288.1 64.8683 288.306 65.4816 288.32 66.2549C288.32 66.9083 288.133 67.4949 287.76 68.0149C287.4 68.5216 286.873 68.9216 286.18 69.2149C285.5 69.5083 284.706 69.6549 283.8 69.6549ZM292.132 57.1749C291.532 57.1749 291.039 57.0016 290.652 56.6549C290.279 56.2949 290.092 55.8549 290.092 55.3349C290.092 54.8016 290.279 54.3616 290.652 54.0149C291.039 53.6549 291.532 53.4749 292.132 53.4749C292.719 53.4749 293.199 53.6549 293.572 54.0149C293.959 54.3616 294.152 54.8016 294.152 55.3349C294.152 55.8549 293.959 56.2949 293.572 56.6549C293.199 57.0016 292.719 57.1749 292.132 57.1749ZM293.832 58.3349V69.4949H290.412V58.3349H293.832ZM302.53 66.5949V69.4949H300.79C299.55 69.4949 298.584 69.1949 297.89 68.5949C297.197 67.9816 296.85 66.9883 296.85 65.6149V61.1749H295.49V58.3349H296.85V55.6149H300.27V58.3349H302.51V61.1749H300.27V65.6549C300.27 65.9883 300.35 66.2283 300.51 66.3749C300.67 66.5216 300.937 66.5949 301.31 66.5949H302.53ZM314.955 63.7349C314.955 64.0549 314.935 64.3883 314.895 64.7349H307.155C307.209 65.4283 307.429 65.9616 307.815 66.3349C308.215 66.6949 308.702 66.8749 309.275 66.8749C310.129 66.8749 310.722 66.5149 311.055 65.7949H314.695C314.509 66.5283 314.169 67.1883 313.675 67.7749C313.195 68.3616 312.589 68.8216 311.855 69.1549C311.122 69.4883 310.302 69.6549 309.395 69.6549C308.302 69.6549 307.329 69.4216 306.475 68.9549C305.622 68.4883 304.955 67.8216 304.475 66.9549C303.995 66.0883 303.755 65.0749 303.755 63.9149C303.755 62.7549 303.989 61.7416 304.455 60.8749C304.935 60.0083 305.602 59.3416 306.455 58.8749C307.309 58.4083 308.289 58.1749 309.395 58.1749C310.475 58.1749 311.435 58.4016 312.275 58.8549C313.115 59.3083 313.769 59.9549 314.235 60.7949C314.715 61.6349 314.955 62.6149 314.955 63.7349ZM311.455 62.8349C311.455 62.2483 311.255 61.7816 310.855 61.4349C310.455 61.0883 309.955 60.9149 309.355 60.9149C308.782 60.9149 308.295 61.0816 307.895 61.4149C307.509 61.7483 307.269 62.2216 307.175 62.8349H311.455ZM27.66 85.9149C27.98 85.3949 28.44 84.9749 29.04 84.6549C29.64 84.3349 30.3267 84.1749 31.1 84.1749C32.02 84.1749 32.8533 84.4083 33.6 84.8749C34.3467 85.3416 34.9333 86.0083 35.36 86.8749C35.8 87.7416 36.02 88.7483 36.02 89.8949C36.02 91.0416 35.8 92.0549 35.36 92.9349C34.9333 93.8016 34.3467 94.4749 33.6 94.9549C32.8533 95.4216 32.02 95.6549 31.1 95.6549C30.3133 95.6549 29.6267 95.5016 29.04 95.1949C28.4533 94.8749 27.9933 94.4549 27.66 93.9349V95.4949H24.24V80.6949H27.66V85.9149ZM32.54 89.8949C32.54 89.0416 32.3 88.3749 31.82 87.8949C31.3533 87.4016 30.7733 87.1549 30.08 87.1549C29.4 87.1549 28.82 87.4016 28.34 87.8949C27.8733 88.3883 27.64 89.0616 27.64 89.9149C27.64 90.7683 27.8733 91.4416 28.34 91.9349C28.82 92.4283 29.4 92.6749 30.08 92.6749C30.76 92.6749 31.34 92.4283 31.82 91.9349C32.3 91.4283 32.54 90.7483 32.54 89.8949ZM49.2142 84.3349L42.2142 100.795H38.5342L41.0942 95.1149L36.5542 84.3349H40.3742L42.9542 91.3149L45.5142 84.3349H49.2142ZM54.0092 89.8949C54.0092 88.7483 54.2226 87.7416 54.6492 86.8749C55.0892 86.0083 55.6826 85.3416 56.4292 84.8749C57.1759 84.4083 58.0092 84.1749 58.9292 84.1749C59.7159 84.1749 60.4026 84.3349 60.9892 84.6549C61.5892 84.9749 62.0492 85.3949 62.3692 85.9149V84.3349H65.7892V95.4949H62.3692V93.9149C62.0359 94.4349 61.5692 94.8549 60.9692 95.1749C60.3826 95.4949 59.6959 95.6549 58.9092 95.6549C58.0026 95.6549 57.1759 95.4216 56.4292 94.9549C55.6826 94.4749 55.0892 93.8016 54.6492 92.9349C54.2226 92.0549 54.0092 91.0416 54.0092 89.8949ZM62.3692 89.9149C62.3692 89.0616 62.1292 88.3883 61.6492 87.8949C61.1826 87.4016 60.6092 87.1549 59.9292 87.1549C59.2492 87.1549 58.6692 87.4016 58.1892 87.8949C57.7226 88.3749 57.4892 89.0416 57.4892 89.8949C57.4892 90.7483 57.7226 91.4283 58.1892 91.9349C58.6692 92.4283 59.2492 92.6749 59.9292 92.6749C60.6092 92.6749 61.1826 92.4283 61.6492 91.9349C62.1292 91.4416 62.3692 90.7683 62.3692 89.9149ZM67.5834 89.8949C67.5834 88.7483 67.7968 87.7416 68.2234 86.8749C68.6634 86.0083 69.2568 85.3416 70.0034 84.8749C70.7501 84.4083 71.5834 84.1749 72.5034 84.1749C73.2368 84.1749 73.9034 84.3283 74.5034 84.6349C75.1168 84.9416 75.5968 85.3549 75.9434 85.8749V80.6949H79.3634V95.4949H75.9434V93.8949C75.6234 94.4283 75.1634 94.8549 74.5634 95.1749C73.9768 95.4949 73.2901 95.6549 72.5034 95.6549C71.5834 95.6549 70.7501 95.4216 70.0034 94.9549C69.2568 94.4749 68.6634 93.8016 68.2234 92.9349C67.7968 92.0549 67.5834 91.0416 67.5834 89.8949ZM75.9434 89.9149C75.9434 89.0616 75.7034 88.3883 75.2234 87.8949C74.7568 87.4016 74.1834 87.1549 73.5034 87.1549C72.8234 87.1549 72.2434 87.4016 71.7634 87.8949C71.2968 88.3749 71.0634 89.0416 71.0634 89.8949C71.0634 90.7483 71.2968 91.4283 71.7634 91.9349C72.2434 92.4283 72.8234 92.6749 73.5034 92.6749C74.1834 92.6749 74.7568 92.4283 75.2234 91.9349C75.7034 91.4416 75.9434 90.7683 75.9434 89.9149ZM81.1577 89.8949C81.1577 88.7483 81.371 87.7416 81.7977 86.8749C82.2377 86.0083 82.831 85.3416 83.5777 84.8749C84.3243 84.4083 85.1577 84.1749 86.0777 84.1749C86.811 84.1749 87.4777 84.3283 88.0777 84.6349C88.691 84.9416 89.171 85.3549 89.5177 85.8749V80.6949H92.9377V95.4949H89.5177V93.8949C89.1977 94.4283 88.7377 94.8549 88.1377 95.1749C87.551 95.4949 86.8643 95.6549 86.0777 95.6549C85.1577 95.6549 84.3243 95.4216 83.5777 94.9549C82.831 94.4749 82.2377 93.8016 81.7977 92.9349C81.371 92.0549 81.1577 91.0416 81.1577 89.8949ZM89.5177 89.9149C89.5177 89.0616 89.2777 88.3883 88.7977 87.8949C88.331 87.4016 87.7577 87.1549 87.0777 87.1549C86.3977 87.1549 85.8177 87.4016 85.3377 87.8949C84.871 88.3749 84.6377 89.0416 84.6377 89.8949C84.6377 90.7483 84.871 91.4283 85.3377 91.9349C85.8177 92.4283 86.3977 92.6749 87.0777 92.6749C87.7577 92.6749 88.331 92.4283 88.7977 91.9349C89.2777 91.4416 89.5177 90.7683 89.5177 89.9149ZM97.1319 83.1749C96.5319 83.1749 96.0385 83.0016 95.6519 82.6549C95.2785 82.2949 95.0919 81.8549 95.0919 81.3349C95.0919 80.8016 95.2785 80.3616 95.6519 80.0149C96.0385 79.6549 96.5319 79.4749 97.1319 79.4749C97.7185 79.4749 98.1985 79.6549 98.5719 80.0149C98.9585 80.3616 99.1519 80.8016 99.1519 81.3349C99.1519 81.8549 98.9585 82.2949 98.5719 82.6549C98.1985 83.0016 97.7185 83.1749 97.1319 83.1749ZM98.8319 84.3349V95.4949H95.4119V84.3349H98.8319ZM108.11 84.2149C109.417 84.2149 110.457 84.6416 111.23 85.4949C112.017 86.3349 112.41 87.4949 112.41 88.9749V95.4949H109.01V89.4349C109.01 88.6883 108.817 88.1083 108.43 87.6949C108.044 87.2816 107.524 87.0749 106.87 87.0749C106.217 87.0749 105.697 87.2816 105.31 87.6949C104.924 88.1083 104.73 88.6883 104.73 89.4349V95.4949H101.31V84.3349H104.73V85.8149C105.077 85.3216 105.544 84.9349 106.13 84.6549C106.717 84.3616 107.377 84.2149 108.11 84.2149ZM119.027 84.1749C119.814 84.1749 120.5 84.3349 121.087 84.6549C121.687 84.9749 122.147 85.3949 122.467 85.9149V84.3349H125.887V95.4749C125.887 96.5016 125.68 97.4283 125.267 98.2549C124.867 99.0949 124.247 99.7616 123.407 100.255C122.58 100.748 121.547 100.995 120.307 100.995C118.654 100.995 117.314 100.602 116.287 99.8149C115.26 99.0416 114.674 97.9883 114.527 96.6549H117.907C118.014 97.0816 118.267 97.4149 118.667 97.6549C119.067 97.9083 119.56 98.0349 120.147 98.0349C120.854 98.0349 121.414 97.8283 121.827 97.4149C122.254 97.0149 122.467 96.3683 122.467 95.4749V93.8949C122.134 94.4149 121.674 94.8416 121.087 95.1749C120.5 95.4949 119.814 95.6549 119.027 95.6549C118.107 95.6549 117.274 95.4216 116.527 94.9549C115.78 94.4749 115.187 93.8016 114.747 92.9349C114.32 92.0549 114.107 91.0416 114.107 89.8949C114.107 88.7483 114.32 87.7416 114.747 86.8749C115.187 86.0083 115.78 85.3416 116.527 84.8749C117.274 84.4083 118.107 84.1749 119.027 84.1749ZM122.467 89.9149C122.467 89.0616 122.227 88.3883 121.747 87.8949C121.28 87.4016 120.707 87.1549 120.027 87.1549C119.347 87.1549 118.767 87.4016 118.287 87.8949C117.82 88.3749 117.587 89.0416 117.587 89.8949C117.587 90.7483 117.82 91.4283 118.287 91.9349C118.767 92.4283 119.347 92.6749 120.027 92.6749C120.707 92.6749 121.28 92.4283 121.747 91.9349C122.227 91.4416 122.467 90.7683 122.467 89.9149ZM136.019 86.1949C136.419 85.5816 136.919 85.1016 137.519 84.7549C138.119 84.3949 138.786 84.2149 139.519 84.2149V87.8349H138.579C137.726 87.8349 137.086 88.0216 136.659 88.3949C136.233 88.7549 136.019 89.3949 136.019 90.3149V95.4949H132.599V84.3349H136.019V86.1949ZM151.674 89.7349C151.674 90.0549 151.654 90.3883 151.614 90.7349H143.874C143.927 91.4283 144.147 91.9616 144.534 92.3349C144.934 92.6949 145.421 92.8749 145.994 92.8749C146.847 92.8749 147.441 92.5149 147.774 91.7949H151.414C151.227 92.5283 150.887 93.1883 150.394 93.7749C149.914 94.3616 149.307 94.8216 148.574 95.1549C147.841 95.4883 147.021 95.6549 146.114 95.6549C145.021 95.6549 144.047 95.4216 143.194 94.9549C142.341 94.4883 141.674 93.8216 141.194 92.9549C140.714 92.0883 140.474 91.0749 140.474 89.9149C140.474 88.7549 140.707 87.7416 141.174 86.8749C141.654 86.0083 142.321 85.3416 143.174 84.8749C144.027 84.4083 145.007 84.1749 146.114 84.1749C147.194 84.1749 148.154 84.4016 148.994 84.8549C149.834 85.3083 150.487 85.9549 150.954 86.7949C151.434 87.6349 151.674 88.6149 151.674 89.7349ZM148.174 88.8349C148.174 88.2483 147.974 87.7816 147.574 87.4349C147.174 87.0883 146.674 86.9149 146.074 86.9149C145.501 86.9149 145.014 87.0816 144.614 87.4149C144.227 87.7483 143.987 88.2216 143.894 88.8349H148.174ZM158.018 95.6549C157.045 95.6549 156.178 95.4883 155.418 95.1549C154.658 94.8216 154.058 94.3683 153.618 93.7949C153.178 93.2083 152.932 92.5549 152.878 91.8349H156.258C156.298 92.2216 156.478 92.5349 156.798 92.7749C157.118 93.0149 157.512 93.1349 157.978 93.1349C158.405 93.1349 158.732 93.0549 158.958 92.8949C159.198 92.7216 159.318 92.5016 159.318 92.2349C159.318 91.9149 159.152 91.6816 158.818 91.5349C158.485 91.3749 157.945 91.2016 157.198 91.0149C156.398 90.8283 155.732 90.6349 155.198 90.4349C154.665 90.2216 154.205 89.8949 153.818 89.4549C153.432 89.0016 153.238 88.3949 153.238 87.6349C153.238 86.9949 153.412 86.4149 153.758 85.8949C154.118 85.3616 154.638 84.9416 155.318 84.6349C156.012 84.3283 156.832 84.1749 157.778 84.1749C159.178 84.1749 160.278 84.5216 161.078 85.2149C161.892 85.9083 162.358 86.8283 162.478 87.9749H159.318C159.265 87.5883 159.092 87.2816 158.798 87.0549C158.518 86.8283 158.145 86.7149 157.678 86.7149C157.278 86.7149 156.972 86.7949 156.758 86.9549C156.545 87.1016 156.438 87.3083 156.438 87.5749C156.438 87.8949 156.605 88.1349 156.938 88.2949C157.285 88.4549 157.818 88.6149 158.538 88.7749C159.365 88.9883 160.038 89.2016 160.558 89.4149C161.078 89.6149 161.532 89.9483 161.918 90.4149C162.318 90.8683 162.525 91.4816 162.538 92.2549C162.538 92.9083 162.352 93.4949 161.978 94.0149C161.618 94.5216 161.092 94.9216 160.398 95.2149C159.718 95.5083 158.925 95.6549 158.018 95.6549ZM169.711 95.6549C168.617 95.6549 167.631 95.4216 166.751 94.9549C165.884 94.4883 165.197 93.8216 164.691 92.9549C164.197 92.0883 163.951 91.0749 163.951 89.9149C163.951 88.7683 164.204 87.7616 164.711 86.8949C165.217 86.0149 165.911 85.3416 166.791 84.8749C167.671 84.4083 168.657 84.1749 169.751 84.1749C170.844 84.1749 171.831 84.4083 172.711 84.8749C173.591 85.3416 174.284 86.0149 174.791 86.8949C175.297 87.7616 175.551 88.7683 175.551 89.9149C175.551 91.0616 175.291 92.0749 174.771 92.9549C174.264 93.8216 173.564 94.4883 172.671 94.9549C171.791 95.4216 170.804 95.6549 169.711 95.6549ZM169.711 92.6949C170.364 92.6949 170.917 92.4549 171.371 91.9749C171.837 91.4949 172.071 90.8083 172.071 89.9149C172.071 89.0216 171.844 88.3349 171.391 87.8549C170.951 87.3749 170.404 87.1349 169.751 87.1349C169.084 87.1349 168.531 87.3749 168.091 87.8549C167.651 88.3216 167.431 89.0083 167.431 89.9149C167.431 90.8083 167.644 91.4949 168.071 91.9749C168.511 92.4549 169.057 92.6949 169.711 92.6949ZM188.385 84.3349V95.4949H184.965V93.9749C184.618 94.4683 184.145 94.8683 183.545 95.1749C182.958 95.4683 182.305 95.6149 181.585 95.6149C180.732 95.6149 179.978 95.4283 179.325 95.0549C178.672 94.6683 178.165 94.1149 177.805 93.3949C177.445 92.6749 177.265 91.8283 177.265 90.8549V84.3349H180.665V90.3949C180.665 91.1416 180.858 91.7216 181.245 92.1349C181.632 92.5483 182.152 92.7549 182.805 92.7549C183.472 92.7549 183.998 92.5483 184.385 92.1349C184.772 91.7216 184.965 91.1416 184.965 90.3949V84.3349H188.385ZM194.262 86.1949C194.662 85.5816 195.162 85.1016 195.762 84.7549C196.362 84.3949 197.028 84.2149 197.762 84.2149V87.8349H196.822C195.968 87.8349 195.328 88.0216 194.902 88.3949C194.475 88.7549 194.262 89.3949 194.262 90.3149V95.4949H190.842V84.3349H194.262V86.1949ZM198.716 89.9149C198.716 88.7549 198.95 87.7416 199.416 86.8749C199.896 86.0083 200.556 85.3416 201.396 84.8749C202.25 84.4083 203.223 84.1749 204.316 84.1749C205.716 84.1749 206.883 84.5416 207.816 85.2749C208.763 86.0083 209.383 87.0416 209.676 88.3749H206.036C205.73 87.5216 205.136 87.0949 204.256 87.0949C203.63 87.0949 203.13 87.3416 202.756 87.8349C202.383 88.3149 202.196 89.0083 202.196 89.9149C202.196 90.8216 202.383 91.5216 202.756 92.0149C203.13 92.4949 203.63 92.7349 204.256 92.7349C205.136 92.7349 205.73 92.3083 206.036 91.4549H209.676C209.383 92.7616 208.763 93.7883 207.816 94.5349C206.87 95.2816 205.703 95.6549 204.316 95.6549C203.223 95.6549 202.25 95.4216 201.396 94.9549C200.556 94.4883 199.896 93.8216 199.416 92.9549C198.95 92.0883 198.716 91.0749 198.716 89.9149ZM222.026 89.7349C222.026 90.0549 222.006 90.3883 221.966 90.7349H214.226C214.279 91.4283 214.499 91.9616 214.886 92.3349C215.286 92.6949 215.772 92.8749 216.346 92.8749C217.199 92.8749 217.792 92.5149 218.126 91.7949H221.766C221.579 92.5283 221.239 93.1883 220.746 93.7749C220.266 94.3616 219.659 94.8216 218.926 95.1549C218.192 95.4883 217.372 95.6549 216.466 95.6549C215.372 95.6549 214.399 95.4216 213.546 94.9549C212.692 94.4883 212.026 93.8216 211.546 92.9549C211.066 92.0883 210.826 91.0749 210.826 89.9149C210.826 88.7549 211.059 87.7416 211.526 86.8749C212.006 86.0083 212.672 85.3416 213.526 84.8749C214.379 84.4083 215.359 84.1749 216.466 84.1749C217.546 84.1749 218.506 84.4016 219.346 84.8549C220.186 85.3083 220.839 85.9549 221.306 86.7949C221.786 87.6349 222.026 88.6149 222.026 89.7349ZM218.526 88.8349C218.526 88.2483 218.326 87.7816 217.926 87.4349C217.526 87.0883 217.026 86.9149 216.426 86.9149C215.852 86.9149 215.366 87.0816 214.966 87.4149C214.579 87.7483 214.339 88.2216 214.246 88.8349H218.526ZM228.37 95.6549C227.397 95.6549 226.53 95.4883 225.77 95.1549C225.01 94.8216 224.41 94.3683 223.97 93.7949C223.53 93.2083 223.283 92.5549 223.23 91.8349H226.61C226.65 92.2216 226.83 92.5349 227.15 92.7749C227.47 93.0149 227.863 93.1349 228.33 93.1349C228.757 93.1349 229.083 93.0549 229.31 92.8949C229.55 92.7216 229.67 92.5016 229.67 92.2349C229.67 91.9149 229.503 91.6816 229.17 91.5349C228.837 91.3749 228.297 91.2016 227.55 91.0149C226.75 90.8283 226.083 90.6349 225.55 90.4349C225.017 90.2216 224.557 89.8949 224.17 89.4549C223.783 89.0016 223.59 88.3949 223.59 87.6349C223.59 86.9949 223.763 86.4149 224.11 85.8949C224.47 85.3616 224.99 84.9416 225.67 84.6349C226.363 84.3283 227.183 84.1749 228.13 84.1749C229.53 84.1749 230.63 84.5216 231.43 85.2149C232.243 85.9083 232.71 86.8283 232.83 87.9749H229.67C229.617 87.5883 229.443 87.2816 229.15 87.0549C228.87 86.8283 228.497 86.7149 228.03 86.7149C227.63 86.7149 227.323 86.7949 227.11 86.9549C226.897 87.1016 226.79 87.3083 226.79 87.5749C226.79 87.8949 226.957 88.1349 227.29 88.2949C227.637 88.4549 228.17 88.6149 228.89 88.7749C229.717 88.9883 230.39 89.2016 230.91 89.4149C231.43 89.6149 231.883 89.9483 232.27 90.4149C232.67 90.8683 232.877 91.4816 232.89 92.2549C232.89 92.9083 232.703 93.4949 232.33 94.0149C231.97 94.5216 231.443 94.9216 230.75 95.2149C230.07 95.5083 229.277 95.6549 228.37 95.6549ZM245.44 92.5949V95.4949H243.7C242.46 95.4949 241.494 95.1949 240.8 94.5949C240.107 93.9816 239.76 92.9883 239.76 91.6149V87.1749H238.4V84.3349H239.76V81.6149H243.18V84.3349H245.42V87.1749H243.18V91.6549C243.18 91.9883 243.26 92.2283 243.42 92.3749C243.58 92.5216 243.847 92.5949 244.22 92.5949H245.44ZM254.205 84.2149C255.485 84.2149 256.512 84.6416 257.285 85.4949C258.059 86.3349 258.445 87.4949 258.445 88.9749V95.4949H255.045V89.4349C255.045 88.6883 254.852 88.1083 254.465 87.6949C254.079 87.2816 253.559 87.0749 252.905 87.0749C252.252 87.0749 251.732 87.2816 251.345 87.6949C250.959 88.1083 250.765 88.6883 250.765 89.4349V95.4949H247.345V80.6949H250.765V85.8349C251.112 85.3416 251.585 84.9483 252.185 84.6549C252.785 84.3616 253.459 84.2149 254.205 84.2149ZM260.142 89.8949C260.142 88.7483 260.355 87.7416 260.782 86.8749C261.222 86.0083 261.815 85.3416 262.562 84.8749C263.309 84.4083 264.142 84.1749 265.062 84.1749C265.849 84.1749 266.535 84.3349 267.122 84.6549C267.722 84.9749 268.182 85.3949 268.502 85.9149V84.3349H271.922V95.4949H268.502V93.9149C268.169 94.4349 267.702 94.8549 267.102 95.1749C266.515 95.4949 265.829 95.6549 265.042 95.6549C264.135 95.6549 263.309 95.4216 262.562 94.9549C261.815 94.4749 261.222 93.8016 260.782 92.9349C260.355 92.0549 260.142 91.0416 260.142 89.8949ZM268.502 89.9149C268.502 89.0616 268.262 88.3883 267.782 87.8949C267.315 87.4016 266.742 87.1549 266.062 87.1549C265.382 87.1549 264.802 87.4016 264.322 87.8949C263.855 88.3749 263.622 89.0416 263.622 89.8949C263.622 90.7483 263.855 91.4283 264.322 91.9349C264.802 92.4283 265.382 92.6749 266.062 92.6749C266.742 92.6749 267.315 92.4283 267.782 91.9349C268.262 91.4416 268.502 90.7683 268.502 89.9149ZM280.616 92.5949V95.4949H278.876C277.636 95.4949 276.67 95.1949 275.976 94.5949C275.283 93.9816 274.936 92.9883 274.936 91.6149V87.1749H273.576V84.3349H274.936V81.6149H278.356V84.3349H280.596V87.1749H278.356V91.6549C278.356 91.9883 278.436 92.2283 278.596 92.3749C278.756 92.5216 279.023 92.5949 279.396 92.5949H280.616ZM28.48 110.175C29.2667 110.175 29.9533 110.335 30.54 110.655C31.14 110.975 31.6 111.395 31.92 111.915V110.335H35.34V121.475C35.34 122.502 35.1333 123.428 34.72 124.255C34.32 125.095 33.7 125.762 32.86 126.255C32.0333 126.748 31 126.995 29.76 126.995C28.1067 126.995 26.7667 126.602 25.74 125.815C24.7133 125.042 24.1267 123.988 23.98 122.655H27.36C27.4667 123.082 27.72 123.415 28.12 123.655C28.52 123.908 29.0133 124.035 29.6 124.035C30.3067 124.035 30.8667 123.828 31.28 123.415C31.7067 123.015 31.92 122.368 31.92 121.475V119.895C31.5867 120.415 31.1267 120.842 30.54 121.175C29.9533 121.495 29.2667 121.655 28.48 121.655C27.56 121.655 26.7267 121.422 25.98 120.955C25.2333 120.475 24.64 119.802 24.2 118.935C23.7733 118.055 23.56 117.042 23.56 115.895C23.56 114.748 23.7733 113.742 24.2 112.875C24.64 112.008 25.2333 111.342 25.98 110.875C26.7267 110.408 27.56 110.175 28.48 110.175ZM31.92 115.915C31.92 115.062 31.68 114.388 31.2 113.895C30.7333 113.402 30.16 113.155 29.48 113.155C28.8 113.155 28.22 113.402 27.74 113.895C27.2733 114.375 27.04 115.042 27.04 115.895C27.04 116.748 27.2733 117.428 27.74 117.935C28.22 118.428 28.8 118.675 29.48 118.675C30.16 118.675 30.7333 118.428 31.2 117.935C31.68 117.442 31.92 116.768 31.92 115.915ZM42.8942 121.655C41.8009 121.655 40.8142 121.422 39.9342 120.955C39.0676 120.488 38.3809 119.822 37.8742 118.955C37.3809 118.088 37.1342 117.075 37.1342 115.915C37.1342 114.768 37.3876 113.762 37.8942 112.895C38.4009 112.015 39.0942 111.342 39.9742 110.875C40.8542 110.408 41.8409 110.175 42.9342 110.175C44.0276 110.175 45.0142 110.408 45.8942 110.875C46.7742 111.342 47.4676 112.015 47.9742 112.895C48.4809 113.762 48.7342 114.768 48.7342 115.915C48.7342 117.062 48.4742 118.075 47.9542 118.955C47.4476 119.822 46.7476 120.488 45.8542 120.955C44.9742 121.422 43.9876 121.655 42.8942 121.655ZM42.8942 118.695C43.5476 118.695 44.1009 118.455 44.5542 117.975C45.0209 117.495 45.2542 116.808 45.2542 115.915C45.2542 115.022 45.0276 114.335 44.5742 113.855C44.1342 113.375 43.5876 113.135 42.9342 113.135C42.2676 113.135 41.7142 113.375 41.2742 113.855C40.8342 114.322 40.6142 115.008 40.6142 115.915C40.6142 116.808 40.8276 117.495 41.2542 117.975C41.6942 118.455 42.2409 118.695 42.8942 118.695ZM56.7686 118.595V121.495H55.0286C53.7886 121.495 52.8219 121.195 52.1286 120.595C51.4353 119.982 51.0886 118.988 51.0886 117.615V113.175H49.7286V110.335H51.0886V107.615H54.5086V110.335H56.7486V113.175H54.5086V117.655C54.5086 117.988 54.5886 118.228 54.7486 118.375C54.9086 118.522 55.1753 118.595 55.5486 118.595H56.7686ZM74.3119 110.335L67.3119 126.795H63.6319L66.1919 121.115L61.6519 110.335H65.4719L68.0519 117.315L70.6119 110.335H74.3119ZM80.6286 121.655C79.5353 121.655 78.5486 121.422 77.6686 120.955C76.8019 120.488 76.1153 119.822 75.6086 118.955C75.1153 118.088 74.8686 117.075 74.8686 115.915C74.8686 114.768 75.1219 113.762 75.6286 112.895C76.1353 112.015 76.8286 111.342 77.7086 110.875C78.5886 110.408 79.5753 110.175 80.6686 110.175C81.7619 110.175 82.7486 110.408 83.6286 110.875C84.5086 111.342 85.2019 112.015 85.7086 112.895C86.2153 113.762 86.4686 114.768 86.4686 115.915C86.4686 117.062 86.2086 118.075 85.6886 118.955C85.1819 119.822 84.4819 120.488 83.5886 120.955C82.7086 121.422 81.7219 121.655 80.6286 121.655ZM80.6286 118.695C81.2819 118.695 81.8353 118.455 82.2886 117.975C82.7553 117.495 82.9886 116.808 82.9886 115.915C82.9886 115.022 82.7619 114.335 82.3086 113.855C81.8686 113.375 81.3219 113.135 80.6686 113.135C80.0019 113.135 79.4486 113.375 79.0086 113.855C78.5686 114.322 78.3486 115.008 78.3486 115.915C78.3486 116.808 78.5619 117.495 78.9886 117.975C79.4286 118.455 79.9753 118.695 80.6286 118.695ZM99.303 110.335V121.495H95.883V119.975C95.5363 120.468 95.063 120.868 94.463 121.175C93.8763 121.468 93.223 121.615 92.503 121.615C91.6496 121.615 90.8963 121.428 90.243 121.055C89.5896 120.668 89.083 120.115 88.723 119.395C88.363 118.675 88.183 117.828 88.183 116.855V110.335H91.583V116.395C91.583 117.142 91.7763 117.722 92.163 118.135C92.5496 118.548 93.0696 118.755 93.723 118.755C94.3896 118.755 94.9163 118.548 95.303 118.135C95.6896 117.722 95.883 117.142 95.883 116.395V110.335H99.303ZM110.538 121.655C109.564 121.655 108.698 121.488 107.938 121.155C107.178 120.822 106.578 120.368 106.138 119.795C105.698 119.208 105.451 118.555 105.398 117.835H108.778C108.818 118.222 108.998 118.535 109.318 118.775C109.638 119.015 110.031 119.135 110.498 119.135C110.924 119.135 111.251 119.055 111.478 118.895C111.718 118.722 111.838 118.502 111.838 118.235C111.838 117.915 111.671 117.682 111.338 117.535C111.004 117.375 110.464 117.202 109.718 117.015C108.918 116.828 108.251 116.635 107.718 116.435C107.184 116.222 106.724 115.895 106.338 115.455C105.951 115.002 105.758 114.395 105.758 113.635C105.758 112.995 105.931 112.415 106.278 111.895C106.638 111.362 107.158 110.942 107.838 110.635C108.531 110.328 109.351 110.175 110.298 110.175C111.698 110.175 112.798 110.522 113.598 111.215C114.411 111.908 114.878 112.828 114.998 113.975H111.838C111.784 113.588 111.611 113.282 111.318 113.055C111.038 112.828 110.664 112.715 110.198 112.715C109.798 112.715 109.491 112.795 109.278 112.955C109.064 113.102 108.958 113.308 108.958 113.575C108.958 113.895 109.124 114.135 109.458 114.295C109.804 114.455 110.338 114.615 111.058 114.775C111.884 114.988 112.558 115.202 113.078 115.415C113.598 115.615 114.051 115.948 114.438 116.415C114.838 116.868 115.044 117.482 115.058 118.255C115.058 118.908 114.871 119.495 114.498 120.015C114.138 120.522 113.611 120.922 112.918 121.215C112.238 121.508 111.444 121.655 110.538 121.655ZM123.97 121.495L120.57 116.815V121.495H117.15V106.695H120.57V114.875L123.95 110.335H128.17L123.53 115.935L128.21 121.495H123.97ZM131.233 109.175C130.633 109.175 130.14 109.002 129.753 108.655C129.38 108.295 129.193 107.855 129.193 107.335C129.193 106.802 129.38 106.362 129.753 106.015C130.14 105.655 130.633 105.475 131.233 105.475C131.82 105.475 132.3 105.655 132.673 106.015C133.06 106.362 133.253 106.802 133.253 107.335C133.253 107.855 133.06 108.295 132.673 108.655C132.3 109.002 131.82 109.175 131.233 109.175ZM132.933 110.335V121.495H129.513V110.335H132.933ZM138.832 106.695V121.495H135.412V106.695H138.832ZM144.73 106.695V121.495H141.31V106.695H144.73ZM157.729 115.735C157.729 116.055 157.709 116.388 157.669 116.735H149.929C149.982 117.428 150.202 117.962 150.589 118.335C150.989 118.695 151.475 118.875 152.049 118.875C152.902 118.875 153.495 118.515 153.829 117.795H157.469C157.282 118.528 156.942 119.188 156.449 119.775C155.969 120.362 155.362 120.822 154.629 121.155C153.895 121.488 153.075 121.655 152.169 121.655C151.075 121.655 150.102 121.422 149.249 120.955C148.395 120.488 147.729 119.822 147.249 118.955C146.769 118.088 146.529 117.075 146.529 115.915C146.529 114.755 146.762 113.742 147.229 112.875C147.709 112.008 148.375 111.342 149.229 110.875C150.082 110.408 151.062 110.175 152.169 110.175C153.249 110.175 154.209 110.402 155.049 110.855C155.889 111.308 156.542 111.955 157.009 112.795C157.489 113.635 157.729 114.615 157.729 115.735ZM154.229 114.835C154.229 114.248 154.029 113.782 153.629 113.435C153.229 113.088 152.729 112.915 152.129 112.915C151.555 112.915 151.069 113.082 150.669 113.415C150.282 113.748 150.042 114.222 149.949 114.835H154.229ZM158.853 115.895C158.853 114.748 159.066 113.742 159.493 112.875C159.933 112.008 160.526 111.342 161.273 110.875C162.02 110.408 162.853 110.175 163.773 110.175C164.506 110.175 165.173 110.328 165.773 110.635C166.386 110.942 166.866 111.355 167.213 111.875V106.695H170.633V121.495H167.213V119.895C166.893 120.428 166.433 120.855 165.833 121.175C165.246 121.495 164.56 121.655 163.773 121.655C162.853 121.655 162.02 121.422 161.273 120.955C160.526 120.475 159.933 119.802 159.493 118.935C159.066 118.055 158.853 117.042 158.853 115.895ZM167.213 115.915C167.213 115.062 166.973 114.388 166.493 113.895C166.026 113.402 165.453 113.155 164.773 113.155C164.093 113.155 163.513 113.402 163.033 113.895C162.566 114.375 162.333 115.042 162.333 115.895C162.333 116.748 162.566 117.428 163.033 117.935C163.513 118.428 164.093 118.675 164.773 118.675C165.453 118.675 166.026 118.428 166.493 117.935C166.973 117.442 167.213 116.768 167.213 115.915ZM176.665 115.895C176.665 114.748 176.879 113.742 177.305 112.875C177.745 112.008 178.339 111.342 179.085 110.875C179.832 110.408 180.665 110.175 181.585 110.175C182.372 110.175 183.059 110.335 183.645 110.655C184.245 110.975 184.705 111.395 185.025 111.915V110.335H188.445V121.495H185.025V119.915C184.692 120.435 184.225 120.855 183.625 121.175C183.039 121.495 182.352 121.655 181.565 121.655C180.659 121.655 179.832 121.422 179.085 120.955C178.339 120.475 177.745 119.802 177.305 118.935C176.879 118.055 176.665 117.042 176.665 115.895ZM185.025 115.915C185.025 115.062 184.785 114.388 184.305 113.895C183.839 113.402 183.265 113.155 182.585 113.155C181.905 113.155 181.325 113.402 180.845 113.895C180.379 114.375 180.145 115.042 180.145 115.895C180.145 116.748 180.379 117.428 180.845 117.935C181.325 118.428 181.905 118.675 182.585 118.675C183.265 118.675 183.839 118.428 184.305 117.935C184.785 117.442 185.025 116.768 185.025 115.915ZM197.14 118.595V121.495H195.4C194.16 121.495 193.193 121.195 192.5 120.595C191.806 119.982 191.46 118.988 191.46 117.615V113.175H190.1V110.335H191.46V107.615H194.88V110.335H197.12V113.175H194.88V117.655C194.88 117.988 194.96 118.228 195.12 118.375C195.28 118.522 195.546 118.595 195.92 118.595H197.14ZM28.78 147.655C27.8067 147.655 26.94 147.488 26.18 147.155C25.42 146.822 24.82 146.368 24.38 145.795C23.94 145.208 23.6933 144.555 23.64 143.835H27.02C27.06 144.222 27.24 144.535 27.56 144.775C27.88 145.015 28.2733 145.135 28.74 145.135C29.1667 145.135 29.4933 145.055 29.72 144.895C29.96 144.722 30.08 144.502 30.08 144.235C30.08 143.915 29.9133 143.682 29.58 143.535C29.2467 143.375 28.7067 143.202 27.96 143.015C27.16 142.828 26.4933 142.635 25.96 142.435C25.4267 142.222 24.9667 141.895 24.58 141.455C24.1933 141.002 24 140.395 24 139.635C24 138.995 24.1733 138.415 24.52 137.895C24.88 137.362 25.4 136.942 26.08 136.635C26.7733 136.328 27.5933 136.175 28.54 136.175C29.94 136.175 31.04 136.522 31.84 137.215C32.6533 137.908 33.12 138.828 33.24 139.975H30.08C30.0267 139.588 29.8533 139.282 29.56 139.055C29.28 138.828 28.9067 138.715 28.44 138.715C28.04 138.715 27.7333 138.795 27.52 138.955C27.3067 139.102 27.2 139.308 27.2 139.575C27.2 139.895 27.3667 140.135 27.7 140.295C28.0467 140.455 28.58 140.615 29.3 140.775C30.1267 140.988 30.8 141.202 31.32 141.415C31.84 141.615 32.2933 141.948 32.68 142.415C33.08 142.868 33.2867 143.482 33.3 144.255C33.3 144.908 33.1133 145.495 32.74 146.015C32.38 146.522 31.8533 146.922 31.16 147.215C30.48 147.508 29.6867 147.655 28.78 147.655ZM40.4723 147.655C39.379 147.655 38.3923 147.422 37.5123 146.955C36.6457 146.488 35.959 145.822 35.4523 144.955C34.959 144.088 34.7123 143.075 34.7123 141.915C34.7123 140.768 34.9657 139.762 35.4723 138.895C35.979 138.015 36.6723 137.342 37.5523 136.875C38.4323 136.408 39.419 136.175 40.5123 136.175C41.6057 136.175 42.5923 136.408 43.4723 136.875C44.3523 137.342 45.0457 138.015 45.5523 138.895C46.059 139.762 46.3123 140.768 46.3123 141.915C46.3123 143.062 46.0523 144.075 45.5323 144.955C45.0257 145.822 44.3257 146.488 43.4323 146.955C42.5523 147.422 41.5657 147.655 40.4723 147.655ZM40.4723 144.695C41.1257 144.695 41.679 144.455 42.1323 143.975C42.599 143.495 42.8323 142.808 42.8323 141.915C42.8323 141.022 42.6057 140.335 42.1523 139.855C41.7123 139.375 41.1657 139.135 40.5123 139.135C39.8457 139.135 39.2923 139.375 38.8523 139.855C38.4123 140.322 38.1923 141.008 38.1923 141.915C38.1923 142.808 38.4057 143.495 38.8323 143.975C39.2723 144.455 39.819 144.695 40.4723 144.695ZM62.3667 136.215C63.7534 136.215 64.8534 136.635 65.6667 137.475C66.4934 138.315 66.9067 139.482 66.9067 140.975V147.495H63.5067V141.435C63.5067 140.715 63.3134 140.162 62.9267 139.775C62.5534 139.375 62.0334 139.175 61.3667 139.175C60.7001 139.175 60.1734 139.375 59.7867 139.775C59.4134 140.162 59.2267 140.715 59.2267 141.435V147.495H55.8267V141.435C55.8267 140.715 55.6334 140.162 55.2467 139.775C54.8734 139.375 54.3534 139.175 53.6867 139.175C53.0201 139.175 52.4934 139.375 52.1067 139.775C51.7334 140.162 51.5467 140.715 51.5467 141.435V147.495H48.1267V136.335H51.5467V137.735C51.8934 137.268 52.3467 136.902 52.9067 136.635C53.4667 136.355 54.1001 136.215 54.8067 136.215C55.6467 136.215 56.3934 136.395 57.0467 136.755C57.7134 137.115 58.2334 137.628 58.6067 138.295C58.9934 137.682 59.5201 137.182 60.1867 136.795C60.8534 136.408 61.5801 136.215 62.3667 136.215ZM79.8186 141.735C79.8186 142.055 79.7986 142.388 79.7586 142.735H72.0186C72.0719 143.428 72.2919 143.962 72.6786 144.335C73.0786 144.695 73.5653 144.875 74.1386 144.875C74.9919 144.875 75.5853 144.515 75.9186 143.795H79.5586C79.3719 144.528 79.0319 145.188 78.5386 145.775C78.0586 146.362 77.4519 146.822 76.7186 147.155C75.9853 147.488 75.1653 147.655 74.2586 147.655C73.1653 147.655 72.1919 147.422 71.3386 146.955C70.4853 146.488 69.8186 145.822 69.3386 144.955C68.8586 144.088 68.6186 143.075 68.6186 141.915C68.6186 140.755 68.8519 139.742 69.3186 138.875C69.7986 138.008 70.4653 137.342 71.3186 136.875C72.1719 136.408 73.1519 136.175 74.2586 136.175C75.3386 136.175 76.2986 136.402 77.1386 136.855C77.9786 137.308 78.6319 137.955 79.0986 138.795C79.5786 139.635 79.8186 140.615 79.8186 141.735ZM76.3186 140.835C76.3186 140.248 76.1186 139.782 75.7186 139.435C75.3186 139.088 74.8186 138.915 74.2186 138.915C73.6453 138.915 73.1586 139.082 72.7586 139.415C72.3719 139.748 72.1319 140.222 72.0386 140.835H76.3186ZM87.8428 144.595V147.495H86.1028C84.8628 147.495 83.8961 147.195 83.2028 146.595C82.5095 145.982 82.1628 144.988 82.1628 143.615V139.175H80.8028V136.335H82.1628V133.615H85.5828V136.335H87.8228V139.175H85.5828V143.655C85.5828 143.988 85.6628 144.228 85.8228 144.375C85.9828 144.522 86.2495 144.595 86.6228 144.595H87.8428ZM96.6078 136.215C97.8878 136.215 98.9145 136.642 99.6878 137.495C100.461 138.335 100.848 139.495 100.848 140.975V147.495H97.4478V141.435C97.4478 140.688 97.2545 140.108 96.8678 139.695C96.4811 139.282 95.9611 139.075 95.3078 139.075C94.6545 139.075 94.1345 139.282 93.7478 139.695C93.3611 140.108 93.1678 140.688 93.1678 141.435V147.495H89.7478V132.695H93.1678V137.835C93.5145 137.342 93.9878 136.948 94.5878 136.655C95.1878 136.362 95.8611 136.215 96.6078 136.215ZM104.944 135.175C104.344 135.175 103.851 135.002 103.464 134.655C103.091 134.295 102.904 133.855 102.904 133.335C102.904 132.802 103.091 132.362 103.464 132.015C103.851 131.655 104.344 131.475 104.944 131.475C105.531 131.475 106.011 131.655 106.384 132.015C106.771 132.362 106.964 132.802 106.964 133.335C106.964 133.855 106.771 134.295 106.384 134.655C106.011 135.002 105.531 135.175 104.944 135.175ZM106.644 136.335V147.495H103.224V136.335H106.644ZM115.923 136.215C117.229 136.215 118.269 136.642 119.043 137.495C119.829 138.335 120.223 139.495 120.223 140.975V147.495H116.823V141.435C116.823 140.688 116.629 140.108 116.243 139.695C115.856 139.282 115.336 139.075 114.683 139.075C114.029 139.075 113.509 139.282 113.123 139.695C112.736 140.108 112.543 140.688 112.543 141.435V147.495H109.123V136.335H112.543V137.815C112.889 137.322 113.356 136.935 113.943 136.655C114.529 136.362 115.189 136.215 115.923 136.215ZM126.839 136.175C127.626 136.175 128.313 136.335 128.899 136.655C129.499 136.975 129.959 137.395 130.279 137.915V136.335H133.699V147.475C133.699 148.502 133.493 149.428 133.079 150.255C132.679 151.095 132.059 151.762 131.219 152.255C130.393 152.748 129.359 152.995 128.119 152.995C126.466 152.995 125.126 152.602 124.099 151.815C123.073 151.042 122.486 149.988 122.339 148.655H125.719C125.826 149.082 126.079 149.415 126.479 149.655C126.879 149.908 127.373 150.035 127.959 150.035C128.666 150.035 129.226 149.828 129.639 149.415C130.066 149.015 130.279 148.368 130.279 147.475V145.895C129.946 146.415 129.486 146.842 128.899 147.175C128.313 147.495 127.626 147.655 126.839 147.655C125.919 147.655 125.086 147.422 124.339 146.955C123.593 146.475 122.999 145.802 122.559 144.935C122.133 144.055 121.919 143.042 121.919 141.895C121.919 140.748 122.133 139.742 122.559 138.875C122.999 138.008 123.593 137.342 124.339 136.875C125.086 136.408 125.919 136.175 126.839 136.175ZM130.279 141.915C130.279 141.062 130.039 140.388 129.559 139.895C129.093 139.402 128.519 139.155 127.839 139.155C127.159 139.155 126.579 139.402 126.099 139.895C125.633 140.375 125.399 141.042 125.399 141.895C125.399 142.748 125.633 143.428 126.099 143.935C126.579 144.428 127.159 144.675 127.839 144.675C128.519 144.675 129.093 144.428 129.559 143.935C130.039 143.442 130.279 142.768 130.279 141.915ZM140.674 132.955L140.274 142.535H137.374L136.974 132.955H140.674ZM138.874 147.655C138.274 147.655 137.78 147.482 137.394 147.135C137.02 146.775 136.834 146.335 136.834 145.815C136.834 145.282 137.02 144.835 137.394 144.475C137.78 144.115 138.274 143.935 138.874 143.935C139.46 143.935 139.94 144.115 140.314 144.475C140.7 144.835 140.894 145.282 140.894 145.815C140.894 146.335 140.7 146.775 140.314 147.135C139.94 147.482 139.46 147.655 138.874 147.655Z" fill="white"/>
</svg>
