<svg width="417" height="482" viewBox="0 0 417 482" fill="none" xmlns="http://www.w3.org/2000/svg">
<rect x="9" width="401" height="482" fill="#F7F7F7"/>
<path d="M51.5381 301.647C37.2513 308.533 28.0635 302.225 22.8833 291.478C17.7031 280.731 18.4921 269.614 32.7789 262.727C47.0658 255.841 74.6204 266.54 74.6204 266.54C74.6204 266.54 65.8249 294.76 51.5381 301.647Z" fill="#0984E3"/>
<path d="M24.2535 289.944L36.3064 284.38L55.0964 285.544L38.1971 283.507L43.6164 281.005L57.0738 281.563L45.0507 280.343L54.7977 275.844L66.2684 277.858L56.3305 275.136L74.1093 266.691L50.3326 277.371L51.3259 276.957L57.6127 266.257L49.4191 277.753L38.3405 282.378L38.6188 282.223L44.9333 270.338L37.5957 282.689L36.2102 283.267L36.1837 283.264L36.0757 283.324L7.96826 295.059L8.91567 297.024L23.1811 290.439L37.3791 292.388L24.2535 289.944Z" fill="#3F3D56"/>
<path d="M355.383 26.7978C376.677 21.6557 386.946 31.5977 390.443 46.0766C393.939 60.5555 389.338 74.0884 368.045 79.2305C346.751 84.3727 313.331 64.6979 313.331 64.6979C313.331 64.6979 334.089 31.94 355.383 26.7978Z" fill="#0984E3"/>
<path d="M388.122 47.6477L370.236 51.6828L345.49 45.8327L367.43 52.3158L359.388 54.1302L341.577 50.2809L357.26 54.6103L342.795 57.8735L328.105 52.6934L340.521 58.3866L314.062 64.6325L349.251 57.0369L347.791 57.3153L335.975 69.0421L350.594 56.7808L366.878 53.6752L366.457 53.8016L354.225 66.9846L367.973 53.4665L370.01 53.0781L370.044 53.0883L370.207 53.0403L411.522 45.1611L410.882 42.513L389.713 47.2888L371.356 41.5485L388.122 47.6477Z" fill="#3F3D56"/>
<g clip-path="url(#clip0)">
<path d="M331.937 373.625C330.18 387.994 326.53 399.53 321.52 408.73C314.853 420.989 303.45 425.928 293.263 431.097C290.32 432.588 287.259 433.858 284.11 434.897C265.573 441.039 244.827 439.409 228.53 436.166C217.1 433.89 205.497 432.489 193.833 431.978C190.507 431.835 187.177 431.764 183.843 431.765C178.703 431.771 86.1533 433.449 63.62 389.893C58.0567 379.149 54.2433 366.025 52.8733 350.027C48.9967 304.797 70.3033 275.092 97.7867 255.676C149.777 218.947 221.04 220.488 272.263 258.184C306.383 283.294 338.33 321.295 331.937 373.625Z" fill="#F2F2F2"/>
<path d="M149 371.803C149 407.754 126.614 420.307 99 420.307C71.3858 420.307 49 407.754 49 371.803C49 335.851 99 290.115 99 290.115C99 290.115 149 335.851 149 371.803Z" fill="#0984E3"/>
<path d="M97.1787 416.06L97.6907 385.972L119.002 348.749L97.771 381.252L98.001 367.723L112.689 340.793L98.062 364.143L98.476 339.811L114.204 318.37L98.541 335.984L98.7997 291.368L97.174 350.432L97.3077 347.996L81.317 324.627L97.0514 352.673L95.5614 379.848L95.517 379.127L77.0827 354.535L95.461 381.675L95.2747 385.073L95.2414 385.124L95.2567 385.403L91.4767 454.349H96.527L97.133 418.737L115.466 391.664L97.1787 416.06Z" fill="#3F3D56"/>
<path d="M369 364.011C369 399.962 346.614 412.515 319 412.515C291.386 412.515 269 399.962 269 364.011C269 328.059 319 282.323 319 282.323C319 282.323 369 328.059 369 364.011Z" fill="#0984E3"/>
<path d="M317.179 422.045L317.691 391.957L339.002 354.734L317.771 387.237L318.001 373.708L332.689 346.778L318.062 370.128L318.476 345.796L334.204 324.356L318.541 341.97L318.8 297.353L317.174 356.417L317.308 353.981L301.317 330.612L317.051 358.658L315.561 385.833L315.517 385.112L297.083 360.52L315.461 387.66L315.275 391.059L315.241 391.109L315.257 391.389L311.477 460.334H316.527L317.133 424.722L335.466 397.649L317.179 422.045Z" fill="#3F3D56"/>
<path d="M265 332.225C265 371.532 240.525 385.256 210.333 385.256C180.142 385.256 155.667 371.532 155.667 332.225C155.667 292.918 210.333 242.913 210.333 242.913C210.333 242.913 265 292.918 265 332.225Z" fill="#0984E3"/>
<path d="M208.342 398.031L208.902 365.134L232.202 324.437L208.99 359.974L209.241 345.182L225.3 315.738L209.308 341.268L209.76 314.665L226.956 291.223L209.832 310.481L210.114 261.701L208.337 326.278L208.483 323.614L191 298.064L208.203 328.727L206.574 358.439L206.525 357.65L186.37 330.763L206.464 360.436L206.26 364.152L206.224 364.208L206.241 364.513L202.108 439.893H207.63L208.292 400.958L228.337 371.357L208.342 398.031Z" fill="#3F3D56"/>
<path d="M326.333 467.351C326.333 475.787 263.762 474.848 192.333 474.848C120.905 474.848 67.6667 475.787 67.6667 467.351C67.6667 458.914 120.905 439.982 192.333 439.982C263.762 439.982 326.333 458.914 326.333 467.351Z" fill="#3F3D56"/>
<path opacity="0.1" d="M326.333 463.593C326.333 472.03 263.762 471.091 192.333 471.091C120.905 471.091 67.6667 472.03 67.6667 463.593C67.6667 455.157 120.905 436.224 192.333 436.224C263.762 436.224 326.333 455.157 326.333 463.593Z" fill="black"/>
<path d="M327.46 466.785C327.46 475.222 269.556 482.061 198.127 482.061C126.698 482.061 68.7938 475.222 68.7938 466.785C68.7938 458.348 122.032 439.416 193.46 439.416C264.889 439.416 327.46 458.348 327.46 466.785Z" fill="#3F3D56"/>
<path d="M240.476 405.01C240.476 417.113 248.429 426.906 258.256 426.906Z" fill="#3F3D56"/>
<path d="M258.257 426.906C258.257 414.667 267.131 404.764 278.098 404.764Z" fill="#0984E3"/>
<path d="M246.918 406.107C246.918 417.603 251.99 426.906 258.257 426.906Z" fill="#0984E3"/>
<path d="M258.257 426.906C258.257 411.268 268.514 398.613 281.19 398.613Z" fill="#3F3D56"/>
<path d="M254.516 427.06C254.516 427.06 257.038 426.986 257.797 426.469C258.557 425.953 261.676 425.336 261.865 426.164C262.053 426.993 265.654 430.285 262.807 430.307C259.961 430.329 256.193 429.884 255.434 429.443C254.676 429.002 254.516 427.06 254.516 427.06Z" fill="#A8A8A8"/>
<path opacity="0.2" d="M262.858 430.019C260.011 430.041 256.243 429.596 255.485 429.154C254.907 428.819 254.677 427.613 254.6 427.057C254.547 427.059 254.516 427.06 254.516 427.06C254.516 427.06 254.676 429.002 255.434 429.443C256.193 429.884 259.961 430.329 262.807 430.307C263.629 430.301 263.913 430.022 263.897 429.608C263.783 429.858 263.47 430.014 262.858 430.019Z" fill="black"/>
<path opacity="0.1" d="M198.667 452.403C222.967 452.403 242.667 449.411 242.667 445.72C242.667 442.029 222.967 439.037 198.667 439.037C174.366 439.037 154.667 442.029 154.667 445.72C154.667 449.411 174.366 452.403 198.667 452.403Z" fill="black"/>
<path d="M218 430.762H213.667V440.31H218V430.762Z" fill="#FFB9B9"/>
<path d="M218.333 301.872H201.667V330.515H218.333V301.872Z" fill="#FF6584"/>
<path d="M230.574 356.08L231.15 360.486L215.96 364.892L214.037 356.814L230.574 356.08Z" fill="#FFB9B9"/>
<path d="M208.076 313.672C208.076 313.672 207.692 316.977 206.923 316.977C206.153 316.977 203.461 318.262 203.461 318.262L202.692 321.75L208.076 324.871L216.921 323.953L219.421 320.281L216.921 317.895C216.921 317.895 214.806 313.489 215.575 312.571C216.344 311.653 208.076 313.672 208.076 313.672Z" fill="#FFB9B9"/>
<path opacity="0.1" d="M208.076 313.672C208.076 313.672 207.692 316.977 206.923 316.977C206.153 316.977 203.461 318.262 203.461 318.262L202.692 321.75L208.076 324.871L216.921 323.953L219.421 320.281L216.921 317.895C216.921 317.895 214.806 313.489 215.575 312.571C216.344 311.653 208.076 313.672 208.076 313.672Z" fill="black"/>
<path d="M184.041 428.044C184.041 428.044 182.31 439.059 180.195 439.793C178.08 440.527 188.271 441.812 188.271 441.812L189.04 437.774C189.04 437.774 189.232 430.43 190.002 429.329C190.771 428.227 184.041 428.044 184.041 428.044Z" fill="#FFB9B9"/>
<path d="M203.654 363.974C203.654 363.974 231.535 359.201 231.727 358.283C231.92 357.365 237.496 365.259 234.035 380.68C230.574 396.101 221.921 432.45 221.921 432.45C221.921 432.45 213.076 435.02 213.268 433C213.46 430.981 216.344 395.917 216.344 395.917L214.422 381.047L211.153 382.883L197.501 408.584L190.578 430.797C190.578 430.797 181.733 432.266 183.079 429.145C184.425 426.024 188.848 401.792 188.848 401.792L200.962 367.645C200.962 367.645 200.577 363.974 203.654 363.974Z" fill="#2F2E41"/>
<path d="M210.672 316.151C215.132 316.151 218.748 312.699 218.748 308.44C218.748 304.182 215.132 300.73 210.672 300.73C206.212 300.73 202.596 304.182 202.596 308.44C202.596 312.699 206.212 316.151 210.672 316.151Z" fill="#FFB9B9"/>
<path d="M219.036 318.078C219.036 318.078 215.191 321.566 206.153 320.649C197.116 319.731 208.653 340.292 208.653 340.292L212.306 361.037C212.306 361.037 228.458 359.201 229.035 355.713C229.612 352.225 219.036 318.078 219.036 318.078Z" fill="#F2F2F2"/>
<path d="M215.191 337.722C215.191 337.722 210.576 335.519 208.845 329.46C207.115 323.402 205.577 317.161 204.615 317.344C203.803 317.499 196.275 320.272 193.835 322.126C193.385 322.467 193.108 322.778 193.078 323.035C192.886 324.687 200 341.21 200 341.21C200 341.21 205.577 353.143 203.269 356.998C200.962 360.853 200.769 365.81 205 365.443C209.23 365.075 223.267 364.341 221.344 354.06C221.344 354.06 224.997 361.22 235.188 356.08C235.188 356.08 241.341 355.162 241.149 353.143C240.957 351.123 231.343 333.683 231.343 333.683C231.343 333.683 229.804 325.972 232.689 323.035L226.151 315.692C226.151 315.692 224.613 313.489 223.074 314.59C221.536 315.692 218.075 317.528 217.498 317.711C216.921 317.895 216.542 317.051 216.542 317.051C215.21 319.712 214.676 322.673 214.999 325.605C215.575 330.378 215.191 337.722 215.191 337.722Z" fill="#2F2E41"/>
<path d="M184.618 437.59C184.618 437.59 184.188 436.305 181.711 437.59C181.711 437.59 182.502 433.551 179.81 433.551C177.118 433.551 176.157 438.324 176.157 438.324C176.157 438.324 175.388 441.445 170.196 442.73C165.004 444.015 169.042 448.421 172.696 448.421C176.349 448.421 181.156 445.668 181.156 445.668C181.156 445.668 191.155 445.851 191.347 444.015C191.54 442.18 190.386 436.672 189.617 436.672C188.848 436.672 187.31 439.242 187.31 439.242L184.618 437.59Z" fill="#2F2E41"/>
<path d="M217.306 434.359C217.306 434.359 214.614 431.606 213.076 436.195C211.537 440.785 210.384 442.62 211.345 443.355C212.307 444.089 213.076 443.722 212.691 445.191C212.306 446.659 213.845 449.78 217.306 449.78C220.767 449.78 221.728 447.394 221.536 445.741C221.344 444.089 219.806 442.07 219.806 442.07L218.267 436.929L217.306 434.359Z" fill="#2F2E41"/>
<path d="M232.496 305.228L222.305 308.532C222.305 308.532 213.076 313.672 217.114 314.774C221.152 315.875 224.613 311.469 224.613 311.469L233.458 309.266L232.496 305.228Z" fill="#FFB9B9"/>
<path d="M205.177 296.517C203.967 297.309 203.004 298.393 202.088 299.486C200.227 301.709 198.404 304.363 198.863 307.174C199.037 308.242 199.534 309.236 199.814 310.283C200.191 311.696 200.166 313.175 200.139 314.633C200.162 315.253 200.081 315.872 199.901 316.467C199.631 317.048 199.315 317.607 198.953 318.139C198.027 319.786 198.005 321.743 198.004 323.612C197.959 324.242 198.049 324.873 198.267 325.468C198.52 326.03 198.991 326.471 199.381 326.956C200.028 327.775 200.46 328.731 200.64 329.742C200.821 330.754 200.744 331.792 200.417 332.77C200.919 332.772 201.411 332.637 201.836 332.382C202.26 332.126 202.6 331.76 202.814 331.327C202.881 331.793 202.839 332.267 202.691 332.715C202.543 333.164 202.294 333.576 201.96 333.921C204.161 333.297 206.52 332.244 207.324 330.19C207.56 329.492 207.693 328.767 207.719 328.034C208.146 322.882 208.39 317.538 206.455 312.712C205.836 311.167 204.993 309.673 204.786 308.031C204.578 306.39 205.213 304.493 206.792 303.815C206.829 304.235 207.024 304.629 207.342 304.921C207.694 305.171 208.344 305.014 208.35 304.596L209.113 305.611C209.406 305.473 209.656 305.265 209.838 305.007L210.361 305.618L211.473 304.846L212.439 305.84C212.811 305.638 213.108 305.33 213.287 304.959C213.495 305.256 213.752 305.581 214.124 305.614C214.934 305.683 215.101 304.456 215.809 304.073C216.07 303.963 216.364 303.946 216.638 304.025C216.911 304.104 217.146 304.274 217.299 304.505C217.591 304.979 217.697 305.536 217.599 306.078C217.306 308.602 215.05 310.905 215.719 313.364C216.095 314.746 217.362 315.854 217.458 317.279C217.534 318.418 216.833 319.496 216.844 320.637C216.856 321.975 217.824 323.111 218.769 324.098C220.451 325.856 222.221 327.531 224.079 329.124L223.505 328.165C223.773 328.145 224.043 328.18 224.295 328.269C224.547 328.358 224.777 328.497 224.967 328.678C225.132 328.127 224.858 327.553 224.6 327.035C223.054 323.936 221.806 320.636 221.62 317.208C221.361 312.442 223.155 307.603 222.018 302.957C221.364 300.355 219.839 298.028 217.675 296.328C216.623 295.501 215.826 295.006 214.464 294.915C212.941 294.789 211.409 294.8 209.889 294.949C208.209 295.102 206.592 295.64 205.177 296.517Z" fill="#FF6584"/>
<path d="M224.613 315.875C224.613 315.875 226.728 316.059 227.689 315.875C228.651 315.692 229.997 314.774 229.997 314.774L237.304 309.634L230.958 310.552C230.958 310.552 232.112 302.107 231.727 301.923C231.343 301.74 250.379 298.252 249.994 303.943C249.61 309.634 238.842 320.832 232.689 323.035L228.651 323.586L224.613 315.875Z" fill="#2F2E41"/>
<path d="M245.333 380.96H154.667V401.327H245.333V380.96Z" fill="white"/>
<path d="M233.5 385.574H166.167V396.395H233.5V385.574Z" fill="#3F3D56"/>
<path d="M181.814 390.747C181.787 390.47 180.502 390.346 178.738 390.416C179.76 389.042 180.352 387.945 180.123 387.772C179.907 387.61 179.023 388.314 177.947 389.458C177.845 387.923 177.609 386.847 177.333 386.847C177.033 386.847 176.779 388.127 176.696 389.887C175.198 388.859 173.989 388.255 173.802 388.48C173.625 388.695 174.434 389.602 175.721 390.687C174.023 390.928 172.826 391.268 172.853 391.54C172.879 391.818 174.165 391.941 175.929 391.872C174.907 393.246 174.315 394.342 174.544 394.515C174.76 394.678 175.644 393.973 176.72 392.829C176.822 394.364 177.058 395.44 177.333 395.44C177.634 395.44 177.887 394.16 177.971 392.4C179.469 393.429 180.678 394.032 180.864 393.807C181.042 393.592 180.233 392.685 178.946 391.6C180.644 391.359 181.841 391.02 181.814 390.747Z" fill="white"/>
<path d="M193.147 390.747C193.121 390.47 191.835 390.346 190.072 390.416C191.093 389.042 191.685 387.945 191.456 387.772C191.24 387.61 190.356 388.314 189.28 389.458C189.178 387.923 188.942 386.847 188.667 386.847C188.366 386.847 188.113 388.127 188.029 389.887C186.531 388.859 185.322 388.255 185.136 388.48C184.958 388.695 185.767 389.602 187.054 390.687C185.356 390.928 184.159 391.268 184.186 391.54C184.213 391.818 185.498 391.941 187.262 391.872C186.24 393.246 185.648 394.342 185.877 394.515C186.093 394.678 186.977 393.973 188.053 392.829C188.155 394.364 188.391 395.44 188.667 395.44C188.967 395.44 189.221 394.16 189.304 392.4C190.802 393.429 192.011 394.032 192.198 393.807C192.375 393.592 191.566 392.685 190.279 391.6C191.977 391.359 193.174 391.02 193.147 390.747Z" fill="white"/>
<path d="M204.481 390.747C204.454 390.47 203.168 390.346 201.405 390.416C202.427 389.042 203.019 387.945 202.79 387.772C202.574 387.61 201.69 388.314 200.613 389.458C200.512 387.923 200.275 386.847 200 386.847C199.7 386.847 199.446 388.127 199.362 389.887C197.865 388.859 196.655 388.255 196.469 388.48C196.291 388.695 197.101 389.602 198.388 390.687C196.689 390.928 195.493 391.268 195.519 391.54C195.546 391.818 196.832 391.941 198.595 391.872C197.573 393.246 196.981 394.342 197.21 394.515C197.426 394.678 198.31 393.973 199.387 392.829C199.488 394.364 199.725 395.44 200 395.44C200.3 395.44 200.554 394.16 200.638 392.4C202.135 393.429 203.345 394.032 203.531 393.807C203.709 393.592 202.899 392.685 201.612 391.6C203.311 391.359 204.507 391.02 204.481 390.747Z" fill="white"/>
<path d="M215.814 390.747C215.787 390.47 214.502 390.346 212.738 390.416C213.76 389.042 214.352 387.945 214.123 387.772C213.907 387.61 213.023 388.314 211.947 389.458C211.845 387.923 211.609 386.847 211.333 386.847C211.033 386.847 210.779 388.127 210.696 389.887C209.198 388.859 207.989 388.255 207.802 388.48C207.625 388.695 208.434 389.602 209.721 390.687C208.023 390.928 206.826 391.268 206.853 391.54C206.879 391.818 208.165 391.941 209.929 391.872C208.907 393.246 208.315 394.342 208.544 394.515C208.76 394.678 209.644 393.973 210.72 392.829C210.822 394.364 211.058 395.44 211.333 395.44C211.634 395.44 211.887 394.16 211.971 392.4C213.469 393.429 214.678 394.032 214.864 393.807C215.042 393.592 214.233 392.685 212.946 391.6C214.644 391.359 215.841 391.02 215.814 390.747Z" fill="white"/>
<path d="M227.147 390.747C227.121 390.47 225.835 390.346 224.072 390.416C225.093 389.042 225.685 387.945 225.456 387.772C225.24 387.61 224.356 388.314 223.28 389.458C223.178 387.923 222.942 386.847 222.667 386.847C222.366 386.847 222.113 388.127 222.029 389.887C220.531 388.859 219.322 388.255 219.136 388.48C218.958 388.695 219.768 389.602 221.054 390.687C219.356 390.928 218.159 391.268 218.186 391.54C218.213 391.818 219.498 391.941 221.262 391.872C220.24 393.246 219.648 394.342 219.877 394.515C220.093 394.678 220.977 393.973 222.053 392.829C222.155 394.364 222.391 395.44 222.667 395.44C222.967 395.44 223.221 394.16 223.304 392.4C224.802 393.429 226.011 394.032 226.198 393.807C226.375 393.592 225.566 392.685 224.279 391.6C225.977 391.359 227.174 391.02 227.147 390.747Z" fill="white"/>
<path d="M191.924 372.235C191.924 372.235 190.963 384.351 195.578 384.902C200.193 385.453 195.962 371.133 195.962 371.133L191.924 372.235Z" fill="#FFB9B9"/>
<path d="M194.424 322.668L193.078 323.035C193.078 323.035 187.502 365.626 191.155 373.887C191.155 373.887 195.001 371.868 196.924 372.235L200 337.538L194.424 322.668Z" fill="#2F2E41"/>
</g>
<defs>
<clipPath id="clip0">
<rect width="320" height="253" fill="white" transform="translate(49 229)"/>
</clipPath>
</defs>
</svg>
