<svg width="220" height="53" viewBox="0 0 220 53" fill="none" xmlns="http://www.w3.org/2000/svg">
<path d="M27.155 34.38H34.995V39H21.17V14.43H27.155V34.38ZM43.8347 19.225V24.195H51.8497V28.815H43.8347V34.205H52.8997V39H37.8497V14.43H52.8997V19.225H43.8347ZM72.0802 34.66H62.9102L61.4402 39H55.1752L64.0652 14.43H70.9952L79.8852 39H73.5502L72.0802 34.66ZM70.5402 30.04L67.4952 21.045L64.4852 30.04H70.5402ZM95.1209 39L90.0109 29.725H88.5759V39H82.5909V14.43H92.6359C94.5726 14.43 96.2176 14.7683 97.5709 15.445C98.9476 16.1217 99.9742 17.055 100.651 18.245C101.328 19.4117 101.666 20.7183 101.666 22.165C101.666 23.7983 101.199 25.2567 100.266 26.54C99.3559 27.8233 98.0026 28.7333 96.2059 29.27L101.876 39H95.1209ZM88.5759 25.49H92.2859C93.3826 25.49 94.1992 25.2217 94.7359 24.685C95.2959 24.1483 95.5759 23.39 95.5759 22.41C95.5759 21.4767 95.2959 20.7417 94.7359 20.205C94.1992 19.6683 93.3826 19.4 92.2859 19.4H88.5759V25.49ZM127.403 39H121.418L111.408 23.845V39H105.423V14.43H111.408L121.418 29.655V14.43H127.403V39Z" fill="#0275D8"/>
<path d="M140.946 14.43C143.536 14.43 145.8 14.9433 147.736 15.97C149.673 16.9967 151.166 18.4433 152.216 20.31C153.29 22.1533 153.826 24.2883 153.826 26.715C153.826 29.1183 153.29 31.2533 152.216 33.12C151.166 34.9867 149.661 36.4333 147.701 37.46C145.765 38.4867 143.513 39 140.946 39H131.741V14.43H140.946ZM140.561 33.82C142.825 33.82 144.586 33.2017 145.846 31.965C147.106 30.7283 147.736 28.9783 147.736 26.715C147.736 24.4517 147.106 22.69 145.846 21.43C144.586 20.17 142.825 19.54 140.561 19.54H137.726V33.82H140.561ZM163.156 19.225V24.195H171.171V28.815H163.156V34.205H172.221V39H157.171V14.43H172.221V19.225H163.156ZM199.172 14.43L190.457 39H182.967L174.252 14.43H180.622L186.712 32.98L192.837 14.43H199.172Z" fill="#292929"/>
<rect x="209.77" y="14" width="5.11482" height="25" fill="#005BAA"/>
<rect x="209.77" y="23.2593" width="10.2296" height="6.48148" fill="#005BAA"/>
<rect x="206" y="14" width="10.2296" height="6.48148" fill="#005BAA"/>
<rect x="206" y="32.5185" width="10.2296" height="6.48148" fill="#005BAA"/>
<rect x="4.90038" y="14" width="4.90038" height="25" fill="#005BAA"/>
<rect x="3.61229" y="32.5185" width="9.80076" height="6.48148" fill="#005BAA"/>
<rect x="3.61228" y="14" width="9.80076" height="6.48148" fill="#005BAA"/>
<rect y="23.2593" width="9.80076" height="6.48148" fill="#005BAA"/>
</svg>
