<svg width="557" height="302" viewBox="0 0 557 302" fill="none" xmlns="http://www.w3.org/2000/svg">
<rect width="557" height="302" fill="url(#paint0_linear)"/>
<path d="M46.4 118.96V133H42.98V127.22H37.66V133H34.24V118.96H37.66V124.46H42.98V118.96H46.4ZM59.3889 127.24C59.3889 127.56 59.3689 127.893 59.3289 128.24H51.5889C51.6422 128.933 51.8622 129.467 52.2489 129.84C52.6489 130.2 53.1356 130.38 53.7089 130.38C54.5622 130.38 55.1556 130.02 55.4889 129.3H59.1289C58.9422 130.033 58.6022 130.693 58.1089 131.28C57.6289 131.867 57.0222 132.327 56.2889 132.66C55.5556 132.993 54.7356 133.16 53.8289 133.16C52.7356 133.16 51.7622 132.927 50.9089 132.46C50.0556 131.993 49.3889 131.327 48.9089 130.46C48.4289 129.593 48.1889 128.58 48.1889 127.42C48.1889 126.26 48.4222 125.247 48.8889 124.38C49.3689 123.513 50.0356 122.847 50.8889 122.38C51.7422 121.913 52.7222 121.68 53.8289 121.68C54.9089 121.68 55.8689 121.907 56.7089 122.36C57.5489 122.813 58.2022 123.46 58.6689 124.3C59.1489 125.14 59.3889 126.12 59.3889 127.24ZM55.8889 126.34C55.8889 125.753 55.6889 125.287 55.2889 124.94C54.8889 124.593 54.3889 124.42 53.7889 124.42C53.2156 124.42 52.7289 124.587 52.3289 124.92C51.9422 125.253 51.7022 125.727 51.6089 126.34H55.8889ZM64.6131 118.2V133H61.1931V118.2H64.6131ZM70.5116 123.42C70.8449 122.9 71.3049 122.48 71.8916 122.16C72.4782 121.84 73.1649 121.68 73.9516 121.68C74.8716 121.68 75.7049 121.913 76.4516 122.38C77.1982 122.847 77.7849 123.513 78.2116 124.38C78.6516 125.247 78.8716 126.253 78.8716 127.4C78.8716 128.547 78.6516 129.56 78.2116 130.44C77.7849 131.307 77.1982 131.98 76.4516 132.46C75.7049 132.927 74.8716 133.16 73.9516 133.16C73.1782 133.16 72.4916 133 71.8916 132.68C71.3049 132.36 70.8449 131.947 70.5116 131.44V138.32H67.0916V121.84H70.5116V123.42ZM75.3916 127.4C75.3916 126.547 75.1516 125.88 74.6716 125.4C74.2049 124.907 73.6249 124.66 72.9316 124.66C72.2516 124.66 71.6716 124.907 71.1916 125.4C70.7249 125.893 70.4916 126.567 70.4916 127.42C70.4916 128.273 70.7249 128.947 71.1916 129.44C71.6716 129.933 72.2516 130.18 72.9316 130.18C73.6116 130.18 74.1916 129.933 74.6716 129.44C75.1516 128.933 75.3916 128.253 75.3916 127.4ZM95.9241 121.84V133H92.5041V131.48C92.1574 131.973 91.6841 132.373 91.0841 132.68C90.4974 132.973 89.8441 133.12 89.1241 133.12C88.2707 133.12 87.5174 132.933 86.8641 132.56C86.2107 132.173 85.7041 131.62 85.3441 130.9C84.9841 130.18 84.8041 129.333 84.8041 128.36V121.84H88.2041V127.9C88.2041 128.647 88.3974 129.227 88.7841 129.64C89.1707 130.053 89.6907 130.26 90.3441 130.26C91.0107 130.26 91.5374 130.053 91.9241 129.64C92.3107 129.227 92.5041 128.647 92.5041 127.9V121.84H95.9241ZM102.921 133.16C101.947 133.16 101.081 132.993 100.321 132.66C99.5606 132.327 98.9606 131.873 98.5206 131.3C98.0806 130.713 97.834 130.06 97.7806 129.34H101.161C101.201 129.727 101.381 130.04 101.701 130.28C102.021 130.52 102.414 130.64 102.881 130.64C103.307 130.64 103.634 130.56 103.861 130.4C104.101 130.227 104.221 130.007 104.221 129.74C104.221 129.42 104.054 129.187 103.721 129.04C103.387 128.88 102.847 128.707 102.101 128.52C101.301 128.333 100.634 128.14 100.101 127.94C99.5673 127.727 99.1073 127.4 98.7206 126.96C98.334 126.507 98.1406 125.9 98.1406 125.14C98.1406 124.5 98.314 123.92 98.6606 123.4C99.0206 122.867 99.5406 122.447 100.221 122.14C100.914 121.833 101.734 121.68 102.681 121.68C104.081 121.68 105.181 122.027 105.981 122.72C106.794 123.413 107.261 124.333 107.381 125.48H104.221C104.167 125.093 103.994 124.787 103.701 124.56C103.421 124.333 103.047 124.22 102.581 124.22C102.181 124.22 101.874 124.3 101.661 124.46C101.447 124.607 101.341 124.813 101.341 125.08C101.341 125.4 101.507 125.64 101.841 125.8C102.187 125.96 102.721 126.12 103.441 126.28C104.267 126.493 104.941 126.707 105.461 126.92C105.981 127.12 106.434 127.453 106.821 127.92C107.221 128.373 107.427 128.987 107.441 129.76C107.441 130.413 107.254 131 106.881 131.52C106.521 132.027 105.994 132.427 105.301 132.72C104.621 133.013 103.827 133.16 102.921 133.16ZM118.011 121.68C118.798 121.68 119.485 121.84 120.071 122.16C120.671 122.48 121.131 122.9 121.451 123.42V121.84H124.871V132.98C124.871 134.007 124.665 134.933 124.251 135.76C123.851 136.6 123.231 137.267 122.391 137.76C121.565 138.253 120.531 138.5 119.291 138.5C117.638 138.5 116.298 138.107 115.271 137.32C114.245 136.547 113.658 135.493 113.511 134.16H116.891C116.998 134.587 117.251 134.92 117.651 135.16C118.051 135.413 118.545 135.54 119.131 135.54C119.838 135.54 120.398 135.333 120.811 134.92C121.238 134.52 121.451 133.873 121.451 132.98V131.4C121.118 131.92 120.658 132.347 120.071 132.68C119.485 133 118.798 133.16 118.011 133.16C117.091 133.16 116.258 132.927 115.511 132.46C114.765 131.98 114.171 131.307 113.731 130.44C113.305 129.56 113.091 128.547 113.091 127.4C113.091 126.253 113.305 125.247 113.731 124.38C114.171 123.513 114.765 122.847 115.511 122.38C116.258 121.913 117.091 121.68 118.011 121.68ZM121.451 127.42C121.451 126.567 121.211 125.893 120.731 125.4C120.265 124.907 119.691 124.66 119.011 124.66C118.331 124.66 117.751 124.907 117.271 125.4C116.805 125.88 116.571 126.547 116.571 127.4C116.571 128.253 116.805 128.933 117.271 129.44C117.751 129.933 118.331 130.18 119.011 130.18C119.691 130.18 120.265 129.933 120.731 129.44C121.211 128.947 121.451 128.273 121.451 127.42ZM130.765 123.7C131.165 123.087 131.665 122.607 132.265 122.26C132.865 121.9 133.532 121.72 134.265 121.72V125.34H133.325C132.472 125.34 131.832 125.527 131.405 125.9C130.979 126.26 130.765 126.9 130.765 127.82V133H127.345V121.84H130.765V123.7ZM140.98 133.16C139.887 133.16 138.9 132.927 138.02 132.46C137.153 131.993 136.467 131.327 135.96 130.46C135.467 129.593 135.22 128.58 135.22 127.42C135.22 126.273 135.473 125.267 135.98 124.4C136.487 123.52 137.18 122.847 138.06 122.38C138.94 121.913 139.927 121.68 141.02 121.68C142.113 121.68 143.1 121.913 143.98 122.38C144.86 122.847 145.553 123.52 146.06 124.4C146.567 125.267 146.82 126.273 146.82 127.42C146.82 128.567 146.56 129.58 146.04 130.46C145.533 131.327 144.833 131.993 143.94 132.46C143.06 132.927 142.073 133.16 140.98 133.16ZM140.98 130.2C141.633 130.2 142.187 129.96 142.64 129.48C143.107 129 143.34 128.313 143.34 127.42C143.34 126.527 143.113 125.84 142.66 125.36C142.22 124.88 141.673 124.64 141.02 124.64C140.353 124.64 139.8 124.88 139.36 125.36C138.92 125.827 138.7 126.513 138.7 127.42C138.7 128.313 138.913 129 139.34 129.48C139.78 129.96 140.327 130.2 140.98 130.2ZM164.655 121.84L161.635 133H157.855L156.095 125.76L154.275 133H150.515L147.475 121.84H150.895L152.475 129.82L154.355 121.84H157.975L159.875 129.78L161.435 121.84H164.655ZM167.679 120.68C167.079 120.68 166.585 120.507 166.199 120.16C165.825 119.8 165.639 119.36 165.639 118.84C165.639 118.307 165.825 117.867 166.199 117.52C166.585 117.16 167.079 116.98 167.679 116.98C168.265 116.98 168.745 117.16 169.119 117.52C169.505 117.867 169.699 118.307 169.699 118.84C169.699 119.36 169.505 119.8 169.119 120.16C168.745 120.507 168.265 120.68 167.679 120.68ZM169.379 121.84V133H165.959V121.84H169.379ZM178.657 121.72C179.964 121.72 181.004 122.147 181.777 123C182.564 123.84 182.957 125 182.957 126.48V133H179.557V126.94C179.557 126.193 179.364 125.613 178.977 125.2C178.591 124.787 178.071 124.58 177.417 124.58C176.764 124.58 176.244 124.787 175.857 125.2C175.471 125.613 175.277 126.193 175.277 126.94V133H171.857V121.84H175.277V123.32C175.624 122.827 176.091 122.44 176.677 122.16C177.264 121.867 177.924 121.72 178.657 121.72ZM189.574 121.68C190.36 121.68 191.047 121.84 191.634 122.16C192.234 122.48 192.694 122.9 193.014 123.42V121.84H196.434V132.98C196.434 134.007 196.227 134.933 195.814 135.76C195.414 136.6 194.794 137.267 193.954 137.76C193.127 138.253 192.094 138.5 190.854 138.5C189.2 138.5 187.86 138.107 186.834 137.32C185.807 136.547 185.22 135.493 185.074 134.16H188.454C188.56 134.587 188.814 134.92 189.214 135.16C189.614 135.413 190.107 135.54 190.694 135.54C191.4 135.54 191.96 135.333 192.374 134.92C192.8 134.52 193.014 133.873 193.014 132.98V131.4C192.68 131.92 192.22 132.347 191.634 132.68C191.047 133 190.36 133.16 189.574 133.16C188.654 133.16 187.82 132.927 187.074 132.46C186.327 131.98 185.734 131.307 185.294 130.44C184.867 129.56 184.654 128.547 184.654 127.4C184.654 126.253 184.867 125.247 185.294 124.38C185.734 123.513 186.327 122.847 187.074 122.38C187.82 121.913 188.654 121.68 189.574 121.68ZM193.014 127.42C193.014 126.567 192.774 125.893 192.294 125.4C191.827 124.907 191.254 124.66 190.574 124.66C189.894 124.66 189.314 124.907 188.834 125.4C188.367 125.88 188.134 126.547 188.134 127.4C188.134 128.253 188.367 128.933 188.834 129.44C189.314 129.933 189.894 130.18 190.574 130.18C191.254 130.18 191.827 129.933 192.294 129.44C192.774 128.947 193.014 128.273 193.014 127.42ZM209.366 130.1V133H207.626C206.386 133 205.42 132.7 204.726 132.1C204.033 131.487 203.686 130.493 203.686 129.12V124.68H202.326V121.84H203.686V119.12H207.106V121.84H209.346V124.68H207.106V129.16C207.106 129.493 207.186 129.733 207.346 129.88C207.506 130.027 207.773 130.1 208.146 130.1H209.366ZM218.131 121.72C219.411 121.72 220.438 122.147 221.211 123C221.985 123.84 222.371 125 222.371 126.48V133H218.971V126.94C218.971 126.193 218.778 125.613 218.391 125.2C218.005 124.787 217.485 124.58 216.831 124.58C216.178 124.58 215.658 124.787 215.271 125.2C214.885 125.613 214.691 126.193 214.691 126.94V133H211.271V118.2H214.691V123.34C215.038 122.847 215.511 122.453 216.111 122.16C216.711 121.867 217.385 121.72 218.131 121.72ZM226.468 120.68C225.868 120.68 225.374 120.507 224.988 120.16C224.614 119.8 224.428 119.36 224.428 118.84C224.428 118.307 224.614 117.867 224.988 117.52C225.374 117.16 225.868 116.98 226.468 116.98C227.054 116.98 227.534 117.16 227.908 117.52C228.294 117.867 228.488 118.307 228.488 118.84C228.488 119.36 228.294 119.8 227.908 120.16C227.534 120.507 227.054 120.68 226.468 120.68ZM228.168 121.84V133H224.748V121.84H228.168ZM235.186 133.16C234.213 133.16 233.346 132.993 232.586 132.66C231.826 132.327 231.226 131.873 230.786 131.3C230.346 130.713 230.1 130.06 230.046 129.34H233.426C233.466 129.727 233.646 130.04 233.966 130.28C234.286 130.52 234.68 130.64 235.146 130.64C235.573 130.64 235.9 130.56 236.126 130.4C236.366 130.227 236.486 130.007 236.486 129.74C236.486 129.42 236.32 129.187 235.986 129.04C235.653 128.88 235.113 128.707 234.366 128.52C233.566 128.333 232.9 128.14 232.366 127.94C231.833 127.727 231.373 127.4 230.986 126.96C230.6 126.507 230.406 125.9 230.406 125.14C230.406 124.5 230.58 123.92 230.926 123.4C231.286 122.867 231.806 122.447 232.486 122.14C233.18 121.833 234 121.68 234.946 121.68C236.346 121.68 237.446 122.027 238.246 122.72C239.06 123.413 239.526 124.333 239.646 125.48H236.486C236.433 125.093 236.26 124.787 235.966 124.56C235.686 124.333 235.313 124.22 234.846 124.22C234.446 124.22 234.14 124.3 233.926 124.46C233.713 124.607 233.606 124.813 233.606 125.08C233.606 125.4 233.773 125.64 234.106 125.8C234.453 125.96 234.986 126.12 235.706 126.28C236.533 126.493 237.206 126.707 237.726 126.92C238.246 127.12 238.7 127.453 239.086 127.92C239.486 128.373 239.693 128.987 239.706 129.76C239.706 130.413 239.52 131 239.146 131.52C238.786 132.027 238.26 132.427 237.566 132.72C236.886 133.013 236.093 133.16 235.186 133.16ZM262.057 121.84L259.037 133H255.257L253.497 125.76L251.677 133H247.917L244.877 121.84H248.297L249.877 129.82L251.757 121.84H255.377L257.277 129.78L258.837 121.84H262.057ZM273.881 127.24C273.881 127.56 273.861 127.893 273.821 128.24H266.081C266.134 128.933 266.354 129.467 266.741 129.84C267.141 130.2 267.628 130.38 268.201 130.38C269.054 130.38 269.648 130.02 269.981 129.3H273.621C273.434 130.033 273.094 130.693 272.601 131.28C272.121 131.867 271.514 132.327 270.781 132.66C270.048 132.993 269.228 133.16 268.321 133.16C267.228 133.16 266.254 132.927 265.401 132.46C264.548 131.993 263.881 131.327 263.401 130.46C262.921 129.593 262.681 128.58 262.681 127.42C262.681 126.26 262.914 125.247 263.381 124.38C263.861 123.513 264.528 122.847 265.381 122.38C266.234 121.913 267.214 121.68 268.321 121.68C269.401 121.68 270.361 121.907 271.201 122.36C272.041 122.813 272.694 123.46 273.161 124.3C273.641 125.14 273.881 126.12 273.881 127.24ZM270.381 126.34C270.381 125.753 270.181 125.287 269.781 124.94C269.381 124.593 268.881 124.42 268.281 124.42C267.708 124.42 267.221 124.587 266.821 124.92C266.434 125.253 266.194 125.727 266.101 126.34H270.381ZM279.105 123.42C279.425 122.9 279.885 122.48 280.485 122.16C281.085 121.84 281.772 121.68 282.545 121.68C283.465 121.68 284.299 121.913 285.045 122.38C285.792 122.847 286.379 123.513 286.805 124.38C287.245 125.247 287.465 126.253 287.465 127.4C287.465 128.547 287.245 129.56 286.805 130.44C286.379 131.307 285.792 131.98 285.045 132.46C284.299 132.927 283.465 133.16 282.545 133.16C281.759 133.16 281.072 133.007 280.485 132.7C279.899 132.38 279.439 131.96 279.105 131.44V133H275.685V118.2H279.105V123.42ZM283.985 127.4C283.985 126.547 283.745 125.88 283.265 125.4C282.799 124.907 282.219 124.66 281.525 124.66C280.845 124.66 280.265 124.907 279.785 125.4C279.319 125.893 279.085 126.567 279.085 127.42C279.085 128.273 279.319 128.947 279.785 129.44C280.265 129.933 280.845 130.18 281.525 130.18C282.205 130.18 282.785 129.933 283.265 129.44C283.745 128.933 283.985 128.253 283.985 127.4ZM293.8 133.16C292.826 133.16 291.96 132.993 291.2 132.66C290.44 132.327 289.84 131.873 289.4 131.3C288.96 130.713 288.713 130.06 288.66 129.34H292.04C292.08 129.727 292.26 130.04 292.58 130.28C292.9 130.52 293.293 130.64 293.76 130.64C294.186 130.64 294.513 130.56 294.74 130.4C294.98 130.227 295.1 130.007 295.1 129.74C295.1 129.42 294.933 129.187 294.6 129.04C294.266 128.88 293.726 128.707 292.98 128.52C292.18 128.333 291.513 128.14 290.98 127.94C290.446 127.727 289.986 127.4 289.6 126.96C289.213 126.507 289.02 125.9 289.02 125.14C289.02 124.5 289.193 123.92 289.54 123.4C289.9 122.867 290.42 122.447 291.1 122.14C291.793 121.833 292.613 121.68 293.56 121.68C294.96 121.68 296.06 122.027 296.86 122.72C297.673 123.413 298.14 124.333 298.26 125.48H295.1C295.046 125.093 294.873 124.787 294.58 124.56C294.3 124.333 293.926 124.22 293.46 124.22C293.06 124.22 292.753 124.3 292.54 124.46C292.326 124.607 292.22 124.813 292.22 125.08C292.22 125.4 292.386 125.64 292.72 125.8C293.066 125.96 293.6 126.12 294.32 126.28C295.146 126.493 295.82 126.707 296.34 126.92C296.86 127.12 297.313 127.453 297.7 127.92C298.1 128.373 298.306 128.987 298.32 129.76C298.32 130.413 298.133 131 297.76 131.52C297.4 132.027 296.873 132.427 296.18 132.72C295.5 133.013 294.706 133.16 293.8 133.16ZM302.132 120.68C301.532 120.68 301.039 120.507 300.652 120.16C300.279 119.8 300.092 119.36 300.092 118.84C300.092 118.307 300.279 117.867 300.652 117.52C301.039 117.16 301.532 116.98 302.132 116.98C302.719 116.98 303.199 117.16 303.572 117.52C303.959 117.867 304.152 118.307 304.152 118.84C304.152 119.36 303.959 119.8 303.572 120.16C303.199 120.507 302.719 120.68 302.132 120.68ZM303.832 121.84V133H300.412V121.84H303.832ZM312.53 130.1V133H310.79C309.55 133 308.584 132.7 307.89 132.1C307.197 131.487 306.85 130.493 306.85 129.12V124.68H305.49V121.84H306.85V119.12H310.27V121.84H312.51V124.68H310.27V129.16C310.27 129.493 310.35 129.733 310.51 129.88C310.67 130.027 310.937 130.1 311.31 130.1H312.53ZM324.955 127.24C324.955 127.56 324.935 127.893 324.895 128.24H317.155C317.209 128.933 317.429 129.467 317.815 129.84C318.215 130.2 318.702 130.38 319.275 130.38C320.129 130.38 320.722 130.02 321.055 129.3H324.695C324.509 130.033 324.169 130.693 323.675 131.28C323.195 131.867 322.589 132.327 321.855 132.66C321.122 132.993 320.302 133.16 319.395 133.16C318.302 133.16 317.329 132.927 316.475 132.46C315.622 131.993 314.955 131.327 314.475 130.46C313.995 129.593 313.755 128.58 313.755 127.42C313.755 126.26 313.989 125.247 314.455 124.38C314.935 123.513 315.602 122.847 316.455 122.38C317.309 121.913 318.289 121.68 319.395 121.68C320.475 121.68 321.435 121.907 322.275 122.36C323.115 122.813 323.769 123.46 324.235 124.3C324.715 125.14 324.955 126.12 324.955 127.24ZM321.455 126.34C321.455 125.753 321.255 125.287 320.855 124.94C320.455 124.593 319.955 124.42 319.355 124.42C318.782 124.42 318.295 124.587 317.895 124.92C317.509 125.253 317.269 125.727 317.175 126.34H321.455ZM334.418 123.42C334.738 122.9 335.198 122.48 335.798 122.16C336.398 121.84 337.084 121.68 337.858 121.68C338.778 121.68 339.611 121.913 340.358 122.38C341.104 122.847 341.691 123.513 342.118 124.38C342.558 125.247 342.778 126.253 342.778 127.4C342.778 128.547 342.558 129.56 342.118 130.44C341.691 131.307 341.104 131.98 340.358 132.46C339.611 132.927 338.778 133.16 337.858 133.16C337.071 133.16 336.384 133.007 335.798 132.7C335.211 132.38 334.751 131.96 334.418 131.44V133H330.998V118.2H334.418V123.42ZM339.298 127.4C339.298 126.547 339.058 125.88 338.578 125.4C338.111 124.907 337.531 124.66 336.838 124.66C336.158 124.66 335.578 124.907 335.098 125.4C334.631 125.893 334.398 126.567 334.398 127.42C334.398 128.273 334.631 128.947 335.098 129.44C335.578 129.933 336.158 130.18 336.838 130.18C337.518 130.18 338.098 129.933 338.578 129.44C339.058 128.933 339.298 128.253 339.298 127.4ZM355.972 121.84L348.972 138.3H345.292L347.852 132.62L343.312 121.84H347.132L349.712 128.82L352.272 121.84H355.972ZM360.767 127.4C360.767 126.253 360.98 125.247 361.407 124.38C361.847 123.513 362.44 122.847 363.187 122.38C363.934 121.913 364.767 121.68 365.687 121.68C366.474 121.68 367.16 121.84 367.747 122.16C368.347 122.48 368.807 122.9 369.127 123.42V121.84H372.547V133H369.127V131.42C368.794 131.94 368.327 132.36 367.727 132.68C367.14 133 366.454 133.16 365.667 133.16C364.76 133.16 363.934 132.927 363.187 132.46C362.44 131.98 361.847 131.307 361.407 130.44C360.98 129.56 360.767 128.547 360.767 127.4ZM369.127 127.42C369.127 126.567 368.887 125.893 368.407 125.4C367.94 124.907 367.367 124.66 366.687 124.66C366.007 124.66 365.427 124.907 364.947 125.4C364.48 125.88 364.247 126.547 364.247 127.4C364.247 128.253 364.48 128.933 364.947 129.44C365.427 129.933 366.007 130.18 366.687 130.18C367.367 130.18 367.94 129.933 368.407 129.44C368.887 128.947 369.127 128.273 369.127 127.42ZM374.341 127.4C374.341 126.253 374.555 125.247 374.981 124.38C375.421 123.513 376.015 122.847 376.761 122.38C377.508 121.913 378.341 121.68 379.261 121.68C379.995 121.68 380.661 121.833 381.261 122.14C381.875 122.447 382.355 122.86 382.701 123.38V118.2H386.121V133H382.701V131.4C382.381 131.933 381.921 132.36 381.321 132.68C380.735 133 380.048 133.16 379.261 133.16C378.341 133.16 377.508 132.927 376.761 132.46C376.015 131.98 375.421 131.307 374.981 130.44C374.555 129.56 374.341 128.547 374.341 127.4ZM382.701 127.42C382.701 126.567 382.461 125.893 381.981 125.4C381.515 124.907 380.941 124.66 380.261 124.66C379.581 124.66 379.001 124.907 378.521 125.4C378.055 125.88 377.821 126.547 377.821 127.4C377.821 128.253 378.055 128.933 378.521 129.44C379.001 129.933 379.581 130.18 380.261 130.18C380.941 130.18 381.515 129.933 381.981 129.44C382.461 128.947 382.701 128.273 382.701 127.42ZM387.915 127.4C387.915 126.253 388.129 125.247 388.555 124.38C388.995 123.513 389.589 122.847 390.335 122.38C391.082 121.913 391.915 121.68 392.835 121.68C393.569 121.68 394.235 121.833 394.835 122.14C395.449 122.447 395.929 122.86 396.275 123.38V118.2H399.695V133H396.275V131.4C395.955 131.933 395.495 132.36 394.895 132.68C394.309 133 393.622 133.16 392.835 133.16C391.915 133.16 391.082 132.927 390.335 132.46C389.589 131.98 388.995 131.307 388.555 130.44C388.129 129.56 387.915 128.547 387.915 127.4ZM396.275 127.42C396.275 126.567 396.035 125.893 395.555 125.4C395.089 124.907 394.515 124.66 393.835 124.66C393.155 124.66 392.575 124.907 392.095 125.4C391.629 125.88 391.395 126.547 391.395 127.4C391.395 128.253 391.629 128.933 392.095 129.44C392.575 129.933 393.155 130.18 393.835 130.18C394.515 130.18 395.089 129.933 395.555 129.44C396.035 128.947 396.275 128.273 396.275 127.42ZM403.89 120.68C403.29 120.68 402.796 120.507 402.41 120.16C402.036 119.8 401.85 119.36 401.85 118.84C401.85 118.307 402.036 117.867 402.41 117.52C402.796 117.16 403.29 116.98 403.89 116.98C404.476 116.98 404.956 117.16 405.33 117.52C405.716 117.867 405.91 118.307 405.91 118.84C405.91 119.36 405.716 119.8 405.33 120.16C404.956 120.507 404.476 120.68 403.89 120.68ZM405.59 121.84V133H402.17V121.84H405.59ZM414.868 121.72C416.175 121.72 417.215 122.147 417.988 123C418.775 123.84 419.168 125 419.168 126.48V133H415.768V126.94C415.768 126.193 415.575 125.613 415.188 125.2C414.801 124.787 414.281 124.58 413.628 124.58C412.975 124.58 412.455 124.787 412.068 125.2C411.681 125.613 411.488 126.193 411.488 126.94V133H408.068V121.84H411.488V123.32C411.835 122.827 412.301 122.44 412.888 122.16C413.475 121.867 414.135 121.72 414.868 121.72ZM425.785 121.68C426.571 121.68 427.258 121.84 427.845 122.16C428.445 122.48 428.905 122.9 429.225 123.42V121.84H432.645V132.98C432.645 134.007 432.438 134.933 432.025 135.76C431.625 136.6 431.005 137.267 430.165 137.76C429.338 138.253 428.305 138.5 427.065 138.5C425.411 138.5 424.071 138.107 423.045 137.32C422.018 136.547 421.431 135.493 421.285 134.16H424.665C424.771 134.587 425.025 134.92 425.425 135.16C425.825 135.413 426.318 135.54 426.905 135.54C427.611 135.54 428.171 135.333 428.585 134.92C429.011 134.52 429.225 133.873 429.225 132.98V131.4C428.891 131.92 428.431 132.347 427.845 132.68C427.258 133 426.571 133.16 425.785 133.16C424.865 133.16 424.031 132.927 423.285 132.46C422.538 131.98 421.945 131.307 421.505 130.44C421.078 129.56 420.865 128.547 420.865 127.4C420.865 126.253 421.078 125.247 421.505 124.38C421.945 123.513 422.538 122.847 423.285 122.38C424.031 121.913 424.865 121.68 425.785 121.68ZM429.225 127.42C429.225 126.567 428.985 125.893 428.505 125.4C428.038 124.907 427.465 124.66 426.785 124.66C426.105 124.66 425.525 124.907 425.045 125.4C424.578 125.88 424.345 126.547 424.345 127.4C424.345 128.253 424.578 128.933 425.045 129.44C425.525 129.933 426.105 130.18 426.785 130.18C427.465 130.18 428.038 129.933 428.505 129.44C428.985 128.947 429.225 128.273 429.225 127.42ZM40.46 156.1V159H38.72C37.48 159 36.5133 158.7 35.82 158.1C35.1267 157.487 34.78 156.493 34.78 155.12V150.68H33.42V147.84H34.78V145.12H38.2V147.84H40.44V150.68H38.2V155.16C38.2 155.493 38.28 155.733 38.44 155.88C38.6 156.027 38.8667 156.1 39.24 156.1H40.46ZM49.225 147.72C50.505 147.72 51.5317 148.147 52.305 149C53.0783 149.84 53.465 151 53.465 152.48V159H50.065V152.94C50.065 152.193 49.8717 151.613 49.485 151.2C49.0983 150.787 48.5783 150.58 47.925 150.58C47.2717 150.58 46.7517 150.787 46.365 151.2C45.9783 151.613 45.785 152.193 45.785 152.94V159H42.365V144.2H45.785V149.34C46.1317 148.847 46.605 148.453 47.205 148.16C47.805 147.867 48.4783 147.72 49.225 147.72ZM66.3616 153.24C66.3616 153.56 66.3416 153.893 66.3016 154.24H58.5616C58.6149 154.933 58.8349 155.467 59.2216 155.84C59.6216 156.2 60.1082 156.38 60.6816 156.38C61.5349 156.38 62.1282 156.02 62.4616 155.3H66.1016C65.9149 156.033 65.5749 156.693 65.0816 157.28C64.6016 157.867 63.9949 158.327 63.2616 158.66C62.5282 158.993 61.7082 159.16 60.8016 159.16C59.7082 159.16 58.7349 158.927 57.8816 158.46C57.0282 157.993 56.3616 157.327 55.8816 156.46C55.4016 155.593 55.1616 154.58 55.1616 153.42C55.1616 152.26 55.3949 151.247 55.8616 150.38C56.3416 149.513 57.0082 148.847 57.8616 148.38C58.7149 147.913 59.6949 147.68 60.8016 147.68C61.8816 147.68 62.8416 147.907 63.6816 148.36C64.5216 148.813 65.1749 149.46 65.6416 150.3C66.1216 151.14 66.3616 152.12 66.3616 153.24ZM62.8616 152.34C62.8616 151.753 62.6616 151.287 62.2616 150.94C61.8616 150.593 61.3616 150.42 60.7616 150.42C60.1882 150.42 59.7016 150.587 59.3016 150.92C58.9149 151.253 58.6749 151.727 58.5816 152.34H62.8616ZM75.8241 149.42C76.1441 148.9 76.6041 148.48 77.2041 148.16C77.8041 147.84 78.4907 147.68 79.2641 147.68C80.1841 147.68 81.0174 147.913 81.7641 148.38C82.5107 148.847 83.0974 149.513 83.5241 150.38C83.9641 151.247 84.1841 152.253 84.1841 153.4C84.1841 154.547 83.9641 155.56 83.5241 156.44C83.0974 157.307 82.5107 157.98 81.7641 158.46C81.0174 158.927 80.1841 159.16 79.2641 159.16C78.4774 159.16 77.7907 159.007 77.2041 158.7C76.6174 158.38 76.1574 157.96 75.8241 157.44V159H72.4041V144.2H75.8241V149.42ZM80.7041 153.4C80.7041 152.547 80.4641 151.88 79.9841 151.4C79.5174 150.907 78.9374 150.66 78.2441 150.66C77.5641 150.66 76.9841 150.907 76.5041 151.4C76.0374 151.893 75.8041 152.567 75.8041 153.42C75.8041 154.273 76.0374 154.947 76.5041 155.44C76.9841 155.933 77.5641 156.18 78.2441 156.18C78.9241 156.18 79.5041 155.933 79.9841 155.44C80.4641 154.933 80.7041 154.253 80.7041 153.4ZM96.4983 153.24C96.4983 153.56 96.4783 153.893 96.4383 154.24H88.6983C88.7516 154.933 88.9716 155.467 89.3583 155.84C89.7583 156.2 90.2449 156.38 90.8183 156.38C91.6716 156.38 92.2649 156.02 92.5983 155.3H96.2383C96.0516 156.033 95.7116 156.693 95.2183 157.28C94.7383 157.867 94.1316 158.327 93.3983 158.66C92.6649 158.993 91.8449 159.16 90.9383 159.16C89.8449 159.16 88.8716 158.927 88.0183 158.46C87.1649 157.993 86.4983 157.327 86.0183 156.46C85.5383 155.593 85.2983 154.58 85.2983 153.42C85.2983 152.26 85.5316 151.247 85.9983 150.38C86.4783 149.513 87.1449 148.847 87.9983 148.38C88.8516 147.913 89.8316 147.68 90.9383 147.68C92.0183 147.68 92.9783 147.907 93.8183 148.36C94.6583 148.813 95.3116 149.46 95.7783 150.3C96.2583 151.14 96.4983 152.12 96.4983 153.24ZM92.9983 152.34C92.9983 151.753 92.7983 151.287 92.3983 150.94C91.9983 150.593 91.4983 150.42 90.8983 150.42C90.3249 150.42 89.8383 150.587 89.4383 150.92C89.0516 151.253 88.8116 151.727 88.7183 152.34H92.9983ZM102.843 159.16C101.869 159.16 101.003 158.993 100.243 158.66C99.4825 158.327 98.8825 157.873 98.4425 157.3C98.0025 156.713 97.7558 156.06 97.7025 155.34H101.083C101.123 155.727 101.303 156.04 101.623 156.28C101.943 156.52 102.336 156.64 102.803 156.64C103.229 156.64 103.556 156.56 103.783 156.4C104.023 156.227 104.143 156.007 104.143 155.74C104.143 155.42 103.976 155.187 103.643 155.04C103.309 154.88 102.769 154.707 102.023 154.52C101.223 154.333 100.556 154.14 100.023 153.94C99.4892 153.727 99.0292 153.4 98.6425 152.96C98.2558 152.507 98.0625 151.9 98.0625 151.14C98.0625 150.5 98.2358 149.92 98.5825 149.4C98.9425 148.867 99.4625 148.447 100.143 148.14C100.836 147.833 101.656 147.68 102.603 147.68C104.003 147.68 105.103 148.027 105.903 148.72C106.716 149.413 107.183 150.333 107.303 151.48H104.143C104.089 151.093 103.916 150.787 103.623 150.56C103.343 150.333 102.969 150.22 102.503 150.22C102.103 150.22 101.796 150.3 101.583 150.46C101.369 150.607 101.263 150.813 101.263 151.08C101.263 151.4 101.429 151.64 101.763 151.8C102.109 151.96 102.643 152.12 103.363 152.28C104.189 152.493 104.863 152.707 105.383 152.92C105.903 153.12 106.356 153.453 106.743 153.92C107.143 154.373 107.349 154.987 107.363 155.76C107.363 156.413 107.176 157 106.803 157.52C106.443 158.027 105.916 158.427 105.223 158.72C104.543 159.013 103.749 159.16 102.843 159.16ZM115.675 156.1V159H113.935C112.695 159 111.728 158.7 111.035 158.1C110.342 157.487 109.995 156.493 109.995 155.12V150.68H108.635V147.84H109.995V145.12H113.415V147.84H115.655V150.68H113.415V155.16C113.415 155.493 113.495 155.733 113.655 155.88C113.815 156.027 114.082 156.1 114.455 156.1H115.675ZM125.238 149.7C125.638 149.087 126.138 148.607 126.738 148.26C127.338 147.9 128.005 147.72 128.738 147.72V151.34H127.798C126.945 151.34 126.305 151.527 125.878 151.9C125.451 152.26 125.238 152.9 125.238 153.82V159H121.818V147.84H125.238V149.7ZM140.893 153.24C140.893 153.56 140.873 153.893 140.833 154.24H133.093C133.146 154.933 133.366 155.467 133.753 155.84C134.153 156.2 134.639 156.38 135.213 156.38C136.066 156.38 136.659 156.02 136.993 155.3H140.633C140.446 156.033 140.106 156.693 139.613 157.28C139.133 157.867 138.526 158.327 137.793 158.66C137.059 158.993 136.239 159.16 135.333 159.16C134.239 159.16 133.266 158.927 132.413 158.46C131.559 157.993 130.893 157.327 130.413 156.46C129.933 155.593 129.693 154.58 129.693 153.42C129.693 152.26 129.926 151.247 130.393 150.38C130.873 149.513 131.539 148.847 132.393 148.38C133.246 147.913 134.226 147.68 135.333 147.68C136.413 147.68 137.373 147.907 138.213 148.36C139.053 148.813 139.706 149.46 140.173 150.3C140.653 151.14 140.893 152.12 140.893 153.24ZM137.393 152.34C137.393 151.753 137.193 151.287 136.793 150.94C136.393 150.593 135.893 150.42 135.293 150.42C134.719 150.42 134.233 150.587 133.833 150.92C133.446 151.253 133.206 151.727 133.113 152.34H137.393ZM147.237 159.16C146.264 159.16 145.397 158.993 144.637 158.66C143.877 158.327 143.277 157.873 142.837 157.3C142.397 156.713 142.15 156.06 142.097 155.34H145.477C145.517 155.727 145.697 156.04 146.017 156.28C146.337 156.52 146.73 156.64 147.197 156.64C147.624 156.64 147.95 156.56 148.177 156.4C148.417 156.227 148.537 156.007 148.537 155.74C148.537 155.42 148.37 155.187 148.037 155.04C147.704 154.88 147.164 154.707 146.417 154.52C145.617 154.333 144.95 154.14 144.417 153.94C143.884 153.727 143.424 153.4 143.037 152.96C142.65 152.507 142.457 151.9 142.457 151.14C142.457 150.5 142.63 149.92 142.977 149.4C143.337 148.867 143.857 148.447 144.537 148.14C145.23 147.833 146.05 147.68 146.997 147.68C148.397 147.68 149.497 148.027 150.297 148.72C151.11 149.413 151.577 150.333 151.697 151.48H148.537C148.484 151.093 148.31 150.787 148.017 150.56C147.737 150.333 147.364 150.22 146.897 150.22C146.497 150.22 146.19 150.3 145.977 150.46C145.764 150.607 145.657 150.813 145.657 151.08C145.657 151.4 145.824 151.64 146.157 151.8C146.504 151.96 147.037 152.12 147.757 152.28C148.584 152.493 149.257 152.707 149.777 152.92C150.297 153.12 150.75 153.453 151.137 153.92C151.537 154.373 151.744 154.987 151.757 155.76C151.757 156.413 151.57 157 151.197 157.52C150.837 158.027 150.31 158.427 149.617 158.72C148.937 159.013 148.144 159.16 147.237 159.16ZM158.929 159.16C157.836 159.16 156.849 158.927 155.969 158.46C155.103 157.993 154.416 157.327 153.909 156.46C153.416 155.593 153.169 154.58 153.169 153.42C153.169 152.273 153.423 151.267 153.929 150.4C154.436 149.52 155.129 148.847 156.009 148.38C156.889 147.913 157.876 147.68 158.969 147.68C160.063 147.68 161.049 147.913 161.929 148.38C162.809 148.847 163.503 149.52 164.009 150.4C164.516 151.267 164.769 152.273 164.769 153.42C164.769 154.567 164.509 155.58 163.989 156.46C163.483 157.327 162.783 157.993 161.889 158.46C161.009 158.927 160.023 159.16 158.929 159.16ZM158.929 156.2C159.583 156.2 160.136 155.96 160.589 155.48C161.056 155 161.289 154.313 161.289 153.42C161.289 152.527 161.063 151.84 160.609 151.36C160.169 150.88 159.623 150.64 158.969 150.64C158.303 150.64 157.749 150.88 157.309 151.36C156.869 151.827 156.649 152.513 156.649 153.42C156.649 154.313 156.863 155 157.289 155.48C157.729 155.96 158.276 156.2 158.929 156.2ZM177.604 147.84V159H174.184V157.48C173.837 157.973 173.364 158.373 172.764 158.68C172.177 158.973 171.524 159.12 170.804 159.12C169.95 159.12 169.197 158.933 168.544 158.56C167.89 158.173 167.384 157.62 167.024 156.9C166.664 156.18 166.484 155.333 166.484 154.36V147.84H169.884V153.9C169.884 154.647 170.077 155.227 170.464 155.64C170.85 156.053 171.37 156.26 172.024 156.26C172.69 156.26 173.217 156.053 173.604 155.64C173.99 155.227 174.184 154.647 174.184 153.9V147.84H177.604ZM183.48 149.7C183.88 149.087 184.38 148.607 184.98 148.26C185.58 147.9 186.247 147.72 186.98 147.72V151.34H186.04C185.187 151.34 184.547 151.527 184.12 151.9C183.694 152.26 183.48 152.9 183.48 153.82V159H180.06V147.84H183.48V149.7ZM187.935 153.42C187.935 152.26 188.168 151.247 188.635 150.38C189.115 149.513 189.775 148.847 190.615 148.38C191.468 147.913 192.442 147.68 193.535 147.68C194.935 147.68 196.102 148.047 197.035 148.78C197.982 149.513 198.602 150.547 198.895 151.88H195.255C194.948 151.027 194.355 150.6 193.475 150.6C192.848 150.6 192.348 150.847 191.975 151.34C191.602 151.82 191.415 152.513 191.415 153.42C191.415 154.327 191.602 155.027 191.975 155.52C192.348 156 192.848 156.24 193.475 156.24C194.355 156.24 194.948 155.813 195.255 154.96H198.895C198.602 156.267 197.982 157.293 197.035 158.04C196.088 158.787 194.922 159.16 193.535 159.16C192.442 159.16 191.468 158.927 190.615 158.46C189.775 157.993 189.115 157.327 188.635 156.46C188.168 155.593 187.935 154.58 187.935 153.42ZM211.244 153.24C211.244 153.56 211.224 153.893 211.184 154.24H203.444C203.498 154.933 203.718 155.467 204.104 155.84C204.504 156.2 204.991 156.38 205.564 156.38C206.418 156.38 207.011 156.02 207.344 155.3H210.984C210.798 156.033 210.458 156.693 209.964 157.28C209.484 157.867 208.878 158.327 208.144 158.66C207.411 158.993 206.591 159.16 205.684 159.16C204.591 159.16 203.618 158.927 202.764 158.46C201.911 157.993 201.244 157.327 200.764 156.46C200.284 155.593 200.044 154.58 200.044 153.42C200.044 152.26 200.278 151.247 200.744 150.38C201.224 149.513 201.891 148.847 202.744 148.38C203.598 147.913 204.578 147.68 205.684 147.68C206.764 147.68 207.724 147.907 208.564 148.36C209.404 148.813 210.058 149.46 210.524 150.3C211.004 151.14 211.244 152.12 211.244 153.24ZM207.744 152.34C207.744 151.753 207.544 151.287 207.144 150.94C206.744 150.593 206.244 150.42 205.644 150.42C205.071 150.42 204.584 150.587 204.184 150.92C203.798 151.253 203.558 151.727 203.464 152.34H207.744ZM223.507 156.1V159H221.767C220.527 159 219.56 158.7 218.867 158.1C218.174 157.487 217.827 156.493 217.827 155.12V150.68H216.467V147.84H217.827V145.12H221.247V147.84H223.487V150.68H221.247V155.16C221.247 155.493 221.327 155.733 221.487 155.88C221.647 156.027 221.914 156.1 222.287 156.1H223.507ZM232.272 147.72C233.552 147.72 234.579 148.147 235.352 149C236.125 149.84 236.512 151 236.512 152.48V159H233.112V152.94C233.112 152.193 232.919 151.613 232.532 151.2C232.145 150.787 231.625 150.58 230.972 150.58C230.319 150.58 229.799 150.787 229.412 151.2C229.025 151.613 228.832 152.193 228.832 152.94V159H225.412V144.2H228.832V149.34C229.179 148.847 229.652 148.453 230.252 148.16C230.852 147.867 231.525 147.72 232.272 147.72ZM238.208 153.4C238.208 152.253 238.422 151.247 238.848 150.38C239.288 149.513 239.882 148.847 240.628 148.38C241.375 147.913 242.208 147.68 243.128 147.68C243.915 147.68 244.602 147.84 245.188 148.16C245.788 148.48 246.248 148.9 246.568 149.42V147.84H249.988V159H246.568V157.42C246.235 157.94 245.768 158.36 245.168 158.68C244.582 159 243.895 159.16 243.108 159.16C242.202 159.16 241.375 158.927 240.628 158.46C239.882 157.98 239.288 157.307 238.848 156.44C238.422 155.56 238.208 154.547 238.208 153.4ZM246.568 153.42C246.568 152.567 246.328 151.893 245.848 151.4C245.382 150.907 244.808 150.66 244.128 150.66C243.448 150.66 242.868 150.907 242.388 151.4C241.922 151.88 241.688 152.547 241.688 153.4C241.688 154.253 241.922 154.933 242.388 155.44C242.868 155.933 243.448 156.18 244.128 156.18C244.808 156.18 245.382 155.933 245.848 155.44C246.328 154.947 246.568 154.273 246.568 153.42ZM258.683 156.1V159H256.943C255.703 159 254.736 158.7 254.043 158.1C253.349 157.487 253.003 156.493 253.003 155.12V150.68H251.643V147.84H253.003V145.12H256.423V147.84H258.663V150.68H256.423V155.16C256.423 155.493 256.503 155.733 256.663 155.88C256.823 156.027 257.089 156.1 257.463 156.1H258.683ZM269.066 147.68C269.853 147.68 270.539 147.84 271.126 148.16C271.726 148.48 272.186 148.9 272.506 149.42V147.84H275.926V158.98C275.926 160.007 275.719 160.933 275.306 161.76C274.906 162.6 274.286 163.267 273.446 163.76C272.619 164.253 271.586 164.5 270.346 164.5C268.693 164.5 267.353 164.107 266.326 163.32C265.299 162.547 264.713 161.493 264.566 160.16H267.946C268.053 160.587 268.306 160.92 268.706 161.16C269.106 161.413 269.599 161.54 270.186 161.54C270.893 161.54 271.453 161.333 271.866 160.92C272.293 160.52 272.506 159.873 272.506 158.98V157.4C272.173 157.92 271.713 158.347 271.126 158.68C270.539 159 269.853 159.16 269.066 159.16C268.146 159.16 267.313 158.927 266.566 158.46C265.819 157.98 265.226 157.307 264.786 156.44C264.359 155.56 264.146 154.547 264.146 153.4C264.146 152.253 264.359 151.247 264.786 150.38C265.226 149.513 265.819 148.847 266.566 148.38C267.313 147.913 268.146 147.68 269.066 147.68ZM272.506 153.42C272.506 152.567 272.266 151.893 271.786 151.4C271.319 150.907 270.746 150.66 270.066 150.66C269.386 150.66 268.806 150.907 268.326 151.4C267.859 151.88 267.626 152.547 267.626 153.4C267.626 154.253 267.859 154.933 268.326 155.44C268.806 155.933 269.386 156.18 270.066 156.18C270.746 156.18 271.319 155.933 271.786 155.44C272.266 154.947 272.506 154.273 272.506 153.42ZM283.48 159.16C282.387 159.16 281.4 158.927 280.52 158.46C279.653 157.993 278.967 157.327 278.46 156.46C277.967 155.593 277.72 154.58 277.72 153.42C277.72 152.273 277.973 151.267 278.48 150.4C278.987 149.52 279.68 148.847 280.56 148.38C281.44 147.913 282.427 147.68 283.52 147.68C284.613 147.68 285.6 147.913 286.48 148.38C287.36 148.847 288.053 149.52 288.56 150.4C289.067 151.267 289.32 152.273 289.32 153.42C289.32 154.567 289.06 155.58 288.54 156.46C288.033 157.327 287.333 157.993 286.44 158.46C285.56 158.927 284.573 159.16 283.48 159.16ZM283.48 156.2C284.133 156.2 284.687 155.96 285.14 155.48C285.607 155 285.84 154.313 285.84 153.42C285.84 152.527 285.613 151.84 285.16 151.36C284.72 150.88 284.173 150.64 283.52 150.64C282.853 150.64 282.3 150.88 281.86 151.36C281.42 151.827 281.2 152.513 281.2 153.42C281.2 154.313 281.413 155 281.84 155.48C282.28 155.96 282.827 156.2 283.48 156.2ZM297.355 156.1V159H295.615C294.375 159 293.408 158.7 292.715 158.1C292.021 157.487 291.675 156.493 291.675 155.12V150.68H290.315V147.84H291.675V145.12H295.095V147.84H297.335V150.68H295.095V155.16C295.095 155.493 295.175 155.733 295.335 155.88C295.495 156.027 295.761 156.1 296.135 156.1H297.355ZM314.898 147.84L307.898 164.3H304.218L306.778 158.62L302.238 147.84H306.058L308.638 154.82L311.198 147.84H314.898ZM321.215 159.16C320.121 159.16 319.135 158.927 318.255 158.46C317.388 157.993 316.701 157.327 316.195 156.46C315.701 155.593 315.455 154.58 315.455 153.42C315.455 152.273 315.708 151.267 316.215 150.4C316.721 149.52 317.415 148.847 318.295 148.38C319.175 147.913 320.161 147.68 321.255 147.68C322.348 147.68 323.335 147.913 324.215 148.38C325.095 148.847 325.788 149.52 326.295 150.4C326.801 151.267 327.055 152.273 327.055 153.42C327.055 154.567 326.795 155.58 326.275 156.46C325.768 157.327 325.068 157.993 324.175 158.46C323.295 158.927 322.308 159.16 321.215 159.16ZM321.215 156.2C321.868 156.2 322.421 155.96 322.875 155.48C323.341 155 323.575 154.313 323.575 153.42C323.575 152.527 323.348 151.84 322.895 151.36C322.455 150.88 321.908 150.64 321.255 150.64C320.588 150.64 320.035 150.88 319.595 151.36C319.155 151.827 318.935 152.513 318.935 153.42C318.935 154.313 319.148 155 319.575 155.48C320.015 155.96 320.561 156.2 321.215 156.2ZM339.889 147.84V159H336.469V157.48C336.122 157.973 335.649 158.373 335.049 158.68C334.462 158.973 333.809 159.12 333.089 159.12C332.236 159.12 331.482 158.933 330.829 158.56C330.176 158.173 329.669 157.62 329.309 156.9C328.949 156.18 328.769 155.333 328.769 154.36V147.84H332.169V153.9C332.169 154.647 332.362 155.227 332.749 155.64C333.136 156.053 333.656 156.26 334.309 156.26C334.976 156.26 335.502 156.053 335.889 155.64C336.276 155.227 336.469 154.647 336.469 153.9V147.84H339.889ZM351.124 159.16C350.15 159.16 349.284 158.993 348.524 158.66C347.764 158.327 347.164 157.873 346.724 157.3C346.284 156.713 346.037 156.06 345.984 155.34H349.364C349.404 155.727 349.584 156.04 349.904 156.28C350.224 156.52 350.617 156.64 351.084 156.64C351.51 156.64 351.837 156.56 352.064 156.4C352.304 156.227 352.424 156.007 352.424 155.74C352.424 155.42 352.257 155.187 351.924 155.04C351.59 154.88 351.05 154.707 350.304 154.52C349.504 154.333 348.837 154.14 348.304 153.94C347.77 153.727 347.31 153.4 346.924 152.96C346.537 152.507 346.344 151.9 346.344 151.14C346.344 150.5 346.517 149.92 346.864 149.4C347.224 148.867 347.744 148.447 348.424 148.14C349.117 147.833 349.937 147.68 350.884 147.68C352.284 147.68 353.384 148.027 354.184 148.72C354.997 149.413 355.464 150.333 355.584 151.48H352.424C352.37 151.093 352.197 150.787 351.904 150.56C351.624 150.333 351.25 150.22 350.784 150.22C350.384 150.22 350.077 150.3 349.864 150.46C349.65 150.607 349.544 150.813 349.544 151.08C349.544 151.4 349.71 151.64 350.044 151.8C350.39 151.96 350.924 152.12 351.644 152.28C352.47 152.493 353.144 152.707 353.664 152.92C354.184 153.12 354.637 153.453 355.024 153.92C355.424 154.373 355.63 154.987 355.644 155.76C355.644 156.413 355.457 157 355.084 157.52C354.724 158.027 354.197 158.427 353.504 158.72C352.824 159.013 352.03 159.16 351.124 159.16ZM364.556 159L361.156 154.32V159H357.736V144.2H361.156V152.38L364.536 147.84H368.756L364.116 153.44L368.796 159H364.556ZM371.819 146.68C371.219 146.68 370.726 146.507 370.339 146.16C369.966 145.8 369.779 145.36 369.779 144.84C369.779 144.307 369.966 143.867 370.339 143.52C370.726 143.16 371.219 142.98 371.819 142.98C372.406 142.98 372.886 143.16 373.259 143.52C373.646 143.867 373.839 144.307 373.839 144.84C373.839 145.36 373.646 145.8 373.259 146.16C372.886 146.507 372.406 146.68 371.819 146.68ZM373.519 147.84V159H370.099V147.84H373.519ZM379.418 144.2V159H375.998V144.2H379.418ZM385.316 144.2V159H381.896V144.2H385.316ZM398.315 153.24C398.315 153.56 398.295 153.893 398.255 154.24H390.515C390.568 154.933 390.788 155.467 391.175 155.84C391.575 156.2 392.061 156.38 392.635 156.38C393.488 156.38 394.081 156.02 394.415 155.3H398.055C397.868 156.033 397.528 156.693 397.035 157.28C396.555 157.867 395.948 158.327 395.215 158.66C394.481 158.993 393.661 159.16 392.755 159.16C391.661 159.16 390.688 158.927 389.835 158.46C388.981 157.993 388.315 157.327 387.835 156.46C387.355 155.593 387.115 154.58 387.115 153.42C387.115 152.26 387.348 151.247 387.815 150.38C388.295 149.513 388.961 148.847 389.815 148.38C390.668 147.913 391.648 147.68 392.755 147.68C393.835 147.68 394.795 147.907 395.635 148.36C396.475 148.813 397.128 149.46 397.595 150.3C398.075 151.14 398.315 152.12 398.315 153.24ZM394.815 152.34C394.815 151.753 394.615 151.287 394.215 150.94C393.815 150.593 393.315 150.42 392.715 150.42C392.141 150.42 391.655 150.587 391.255 150.92C390.868 151.253 390.628 151.727 390.535 152.34H394.815ZM399.439 153.4C399.439 152.253 399.652 151.247 400.079 150.38C400.519 149.513 401.112 148.847 401.859 148.38C402.606 147.913 403.439 147.68 404.359 147.68C405.092 147.68 405.759 147.833 406.359 148.14C406.972 148.447 407.452 148.86 407.799 149.38V144.2H411.219V159H407.799V157.4C407.479 157.933 407.019 158.36 406.419 158.68C405.832 159 405.146 159.16 404.359 159.16C403.439 159.16 402.606 158.927 401.859 158.46C401.112 157.98 400.519 157.307 400.079 156.44C399.652 155.56 399.439 154.547 399.439 153.4ZM407.799 153.42C407.799 152.567 407.559 151.893 407.079 151.4C406.612 150.907 406.039 150.66 405.359 150.66C404.679 150.66 404.099 150.907 403.619 151.4C403.152 151.88 402.919 152.547 402.919 153.4C402.919 154.253 403.152 154.933 403.619 155.44C404.099 155.933 404.679 156.18 405.359 156.18C406.039 156.18 406.612 155.933 407.079 155.44C407.559 154.947 407.799 154.273 407.799 153.42ZM417.251 153.4C417.251 152.253 417.465 151.247 417.891 150.38C418.331 149.513 418.925 148.847 419.671 148.38C420.418 147.913 421.251 147.68 422.171 147.68C422.958 147.68 423.645 147.84 424.231 148.16C424.831 148.48 425.291 148.9 425.611 149.42V147.84H429.031V159H425.611V157.42C425.278 157.94 424.811 158.36 424.211 158.68C423.625 159 422.938 159.16 422.151 159.16C421.245 159.16 420.418 158.927 419.671 158.46C418.925 157.98 418.331 157.307 417.891 156.44C417.465 155.56 417.251 154.547 417.251 153.4ZM425.611 153.42C425.611 152.567 425.371 151.893 424.891 151.4C424.425 150.907 423.851 150.66 423.171 150.66C422.491 150.66 421.911 150.907 421.431 151.4C420.965 151.88 420.731 152.547 420.731 153.4C420.731 154.253 420.965 154.933 421.431 155.44C421.911 155.933 422.491 156.18 423.171 156.18C423.851 156.18 424.425 155.933 424.891 155.44C425.371 154.947 425.611 154.273 425.611 153.42ZM437.726 156.1V159H435.986C434.746 159 433.779 158.7 433.086 158.1C432.392 157.487 432.046 156.493 432.046 155.12V150.68H430.686V147.84H432.046V145.12H435.466V147.84H437.706V150.68H435.466V155.16C435.466 155.493 435.546 155.733 435.706 155.88C435.866 156.027 436.132 156.1 436.506 156.1H437.726ZM38.78 185.16C37.8067 185.16 36.94 184.993 36.18 184.66C35.42 184.327 34.82 183.873 34.38 183.3C33.94 182.713 33.6933 182.06 33.64 181.34H37.02C37.06 181.727 37.24 182.04 37.56 182.28C37.88 182.52 38.2733 182.64 38.74 182.64C39.1667 182.64 39.4933 182.56 39.72 182.4C39.96 182.227 40.08 182.007 40.08 181.74C40.08 181.42 39.9133 181.187 39.58 181.04C39.2467 180.88 38.7067 180.707 37.96 180.52C37.16 180.333 36.4933 180.14 35.96 179.94C35.4267 179.727 34.9667 179.4 34.58 178.96C34.1933 178.507 34 177.9 34 177.14C34 176.5 34.1733 175.92 34.52 175.4C34.88 174.867 35.4 174.447 36.08 174.14C36.7733 173.833 37.5933 173.68 38.54 173.68C39.94 173.68 41.04 174.027 41.84 174.72C42.6533 175.413 43.12 176.333 43.24 177.48H40.08C40.0267 177.093 39.8533 176.787 39.56 176.56C39.28 176.333 38.9067 176.22 38.44 176.22C38.04 176.22 37.7333 176.3 37.52 176.46C37.3067 176.607 37.2 176.813 37.2 177.08C37.2 177.4 37.3667 177.64 37.7 177.8C38.0467 177.96 38.58 178.12 39.3 178.28C40.1267 178.493 40.8 178.707 41.32 178.92C41.84 179.12 42.2933 179.453 42.68 179.92C43.08 180.373 43.2867 180.987 43.3 181.76C43.3 182.413 43.1133 183 42.74 183.52C42.38 184.027 41.8533 184.427 41.16 184.72C40.48 185.013 39.6867 185.16 38.78 185.16ZM50.4723 185.16C49.379 185.16 48.3923 184.927 47.5123 184.46C46.6457 183.993 45.959 183.327 45.4523 182.46C44.959 181.593 44.7123 180.58 44.7123 179.42C44.7123 178.273 44.9657 177.267 45.4723 176.4C45.979 175.52 46.6723 174.847 47.5523 174.38C48.4323 173.913 49.419 173.68 50.5123 173.68C51.6057 173.68 52.5923 173.913 53.4723 174.38C54.3523 174.847 55.0457 175.52 55.5523 176.4C56.059 177.267 56.3123 178.273 56.3123 179.42C56.3123 180.567 56.0523 181.58 55.5323 182.46C55.0257 183.327 54.3257 183.993 53.4323 184.46C52.5523 184.927 51.5657 185.16 50.4723 185.16ZM50.4723 182.2C51.1257 182.2 51.679 181.96 52.1323 181.48C52.599 181 52.8323 180.313 52.8323 179.42C52.8323 178.527 52.6057 177.84 52.1523 177.36C51.7123 176.88 51.1657 176.64 50.5123 176.64C49.8457 176.64 49.2923 176.88 48.8523 177.36C48.4123 177.827 48.1923 178.513 48.1923 179.42C48.1923 180.313 48.4057 181 48.8323 181.48C49.2723 181.96 49.819 182.2 50.4723 182.2ZM72.3667 173.72C73.7534 173.72 74.8534 174.14 75.6667 174.98C76.4934 175.82 76.9067 176.987 76.9067 178.48V185H73.5067V178.94C73.5067 178.22 73.3134 177.667 72.9267 177.28C72.5534 176.88 72.0334 176.68 71.3667 176.68C70.7001 176.68 70.1734 176.88 69.7867 177.28C69.4134 177.667 69.2267 178.22 69.2267 178.94V185H65.8267V178.94C65.8267 178.22 65.6334 177.667 65.2467 177.28C64.8734 176.88 64.3534 176.68 63.6867 176.68C63.0201 176.68 62.4934 176.88 62.1067 177.28C61.7334 177.667 61.5467 178.22 61.5467 178.94V185H58.1267V173.84H61.5467V175.24C61.8934 174.773 62.3467 174.407 62.9067 174.14C63.4667 173.86 64.1001 173.72 64.8067 173.72C65.6467 173.72 66.3934 173.9 67.0467 174.26C67.7134 174.62 68.2334 175.133 68.6067 175.8C68.9934 175.187 69.5201 174.687 70.1867 174.3C70.8534 173.913 71.5801 173.72 72.3667 173.72ZM89.8186 179.24C89.8186 179.56 89.7986 179.893 89.7586 180.24H82.0186C82.0719 180.933 82.2919 181.467 82.6786 181.84C83.0786 182.2 83.5653 182.38 84.1386 182.38C84.9919 182.38 85.5853 182.02 85.9186 181.3H89.5586C89.3719 182.033 89.0319 182.693 88.5386 183.28C88.0586 183.867 87.4519 184.327 86.7186 184.66C85.9853 184.993 85.1653 185.16 84.2586 185.16C83.1653 185.16 82.1919 184.927 81.3386 184.46C80.4853 183.993 79.8186 183.327 79.3386 182.46C78.8586 181.593 78.6186 180.58 78.6186 179.42C78.6186 178.26 78.8519 177.247 79.3186 176.38C79.7986 175.513 80.4653 174.847 81.3186 174.38C82.1719 173.913 83.1519 173.68 84.2586 173.68C85.3386 173.68 86.2986 173.907 87.1386 174.36C87.9786 174.813 88.6319 175.46 89.0986 176.3C89.5786 177.14 89.8186 178.12 89.8186 179.24ZM86.3186 178.34C86.3186 177.753 86.1186 177.287 85.7186 176.94C85.3186 176.593 84.8186 176.42 84.2186 176.42C83.6453 176.42 83.1586 176.587 82.7586 176.92C82.3719 177.253 82.1319 177.727 82.0386 178.34H86.3186ZM97.8428 182.1V185H96.1028C94.8628 185 93.8961 184.7 93.2028 184.1C92.5095 183.487 92.1628 182.493 92.1628 181.12V176.68H90.8028V173.84H92.1628V171.12H95.5828V173.84H97.8228V176.68H95.5828V181.16C95.5828 181.493 95.6628 181.733 95.8228 181.88C95.9828 182.027 96.2495 182.1 96.6228 182.1H97.8428ZM106.608 173.72C107.888 173.72 108.914 174.147 109.688 175C110.461 175.84 110.848 177 110.848 178.48V185H107.448V178.94C107.448 178.193 107.254 177.613 106.868 177.2C106.481 176.787 105.961 176.58 105.308 176.58C104.654 176.58 104.134 176.787 103.748 177.2C103.361 177.613 103.168 178.193 103.168 178.94V185H99.7478V170.2H103.168V175.34C103.514 174.847 103.988 174.453 104.588 174.16C105.188 173.867 105.861 173.72 106.608 173.72ZM114.944 172.68C114.344 172.68 113.851 172.507 113.464 172.16C113.091 171.8 112.904 171.36 112.904 170.84C112.904 170.307 113.091 169.867 113.464 169.52C113.851 169.16 114.344 168.98 114.944 168.98C115.531 168.98 116.011 169.16 116.384 169.52C116.771 169.867 116.964 170.307 116.964 170.84C116.964 171.36 116.771 171.8 116.384 172.16C116.011 172.507 115.531 172.68 114.944 172.68ZM116.644 173.84V185H113.224V173.84H116.644ZM125.923 173.72C127.229 173.72 128.269 174.147 129.043 175C129.829 175.84 130.223 177 130.223 178.48V185H126.823V178.94C126.823 178.193 126.629 177.613 126.243 177.2C125.856 176.787 125.336 176.58 124.683 176.58C124.029 176.58 123.509 176.787 123.123 177.2C122.736 177.613 122.543 178.193 122.543 178.94V185H119.123V173.84H122.543V175.32C122.889 174.827 123.356 174.44 123.943 174.16C124.529 173.867 125.189 173.72 125.923 173.72ZM136.839 173.68C137.626 173.68 138.313 173.84 138.899 174.16C139.499 174.48 139.959 174.9 140.279 175.42V173.84H143.699V184.98C143.699 186.007 143.493 186.933 143.079 187.76C142.679 188.6 142.059 189.267 141.219 189.76C140.393 190.253 139.359 190.5 138.119 190.5C136.466 190.5 135.126 190.107 134.099 189.32C133.073 188.547 132.486 187.493 132.339 186.16H135.719C135.826 186.587 136.079 186.92 136.479 187.16C136.879 187.413 137.373 187.54 137.959 187.54C138.666 187.54 139.226 187.333 139.639 186.92C140.066 186.52 140.279 185.873 140.279 184.98V183.4C139.946 183.92 139.486 184.347 138.899 184.68C138.313 185 137.626 185.16 136.839 185.16C135.919 185.16 135.086 184.927 134.339 184.46C133.593 183.98 132.999 183.307 132.559 182.44C132.133 181.56 131.919 180.547 131.919 179.4C131.919 178.253 132.133 177.247 132.559 176.38C132.999 175.513 133.593 174.847 134.339 174.38C135.086 173.913 135.919 173.68 136.839 173.68ZM140.279 179.42C140.279 178.567 140.039 177.893 139.559 177.4C139.093 176.907 138.519 176.66 137.839 176.66C137.159 176.66 136.579 176.907 136.099 177.4C135.633 177.88 135.399 178.547 135.399 179.4C135.399 180.253 135.633 180.933 136.099 181.44C136.579 181.933 137.159 182.18 137.839 182.18C138.519 182.18 139.093 181.933 139.559 181.44C140.039 180.947 140.279 180.273 140.279 179.42ZM150.674 170.46L150.274 180.04H147.374L146.974 170.46H150.674ZM148.874 185.16C148.274 185.16 147.78 184.987 147.394 184.64C147.02 184.28 146.834 183.84 146.834 183.32C146.834 182.787 147.02 182.34 147.394 181.98C147.78 181.62 148.274 181.44 148.874 181.44C149.46 181.44 149.94 181.62 150.314 181.98C150.7 182.34 150.894 182.787 150.894 183.32C150.894 183.84 150.7 184.28 150.314 184.64C149.94 184.987 149.46 185.16 148.874 185.16Z" fill="white"/>
<rect x="527.323" y="209.732" width="3.22472" height="12.7079" transform="rotate(-3.73005 527.323 209.732)" fill="#0C5D8D"/>
<path d="M534.56 210.577C533.61 209.234 529.077 190.735 525.991 186.544L523.476 211.3C529.087 211.081 535.509 211.921 534.56 210.577Z" fill="#155175"/>
<rect x="541.625" y="208.799" width="3.22472" height="12.7079" transform="rotate(-3.73005 541.625 208.799)" fill="#0C5D8D"/>
<path d="M548.861 209.645C547.912 208.302 543.379 189.802 540.293 185.612L537.777 210.368C543.388 210.148 549.811 210.988 548.861 209.645Z" fill="#155175"/>
<rect x="510.819" y="209.929" width="3.22472" height="12.7079" transform="rotate(-3.73005 510.819 209.929)" fill="#0C5D8D"/>
<path d="M518.056 210.775C517.106 209.432 512.573 190.932 509.487 186.742L506.972 211.498C512.583 211.278 519.005 212.118 518.056 210.775Z" fill="#155175"/>
<rect x="257.785" y="250.687" width="3.22472" height="12.7079" transform="rotate(1.67239 257.785 250.687)" fill="#0C5D8D"/>
<path d="M264.91 252.21C264.091 250.783 261.32 231.939 258.642 227.477L253.807 251.886C259.414 252.196 265.729 253.637 264.91 252.21Z" fill="#155175"/>
<rect x="272.111" y="251.105" width="3.22472" height="12.7079" transform="rotate(1.67239 272.111 251.105)" fill="#0C5D8D"/>
<path d="M279.236 252.628C278.417 251.202 275.646 232.358 272.968 227.896L268.133 252.304C273.74 252.614 280.055 254.055 279.236 252.628Z" fill="#155175"/>
<rect x="241.336" y="249.33" width="3.22472" height="12.7079" transform="rotate(1.67239 241.336 249.33)" fill="#0C5D8D"/>
<path d="M248.461 250.853C247.642 249.426 244.871 230.582 242.193 226.12L237.358 250.529C242.965 250.839 249.279 252.28 248.461 250.853Z" fill="#155175"/>
<rect x="114.785" y="243.687" width="3.22472" height="12.7079" transform="rotate(1.67239 114.785 243.687)" fill="#0C5D8D"/>
<path d="M121.91 245.21C121.091 243.783 118.32 224.939 115.642 220.477L110.807 244.886C116.414 245.196 122.729 246.637 121.91 245.21Z" fill="#155175"/>
<rect x="129.111" y="244.105" width="3.22472" height="12.7079" transform="rotate(1.67239 129.111 244.105)" fill="#0C5D8D"/>
<path d="M136.236 245.628C135.417 244.202 132.646 225.358 129.968 220.896L125.133 245.304C130.74 245.614 137.055 247.055 136.236 245.628Z" fill="#155175"/>
<rect x="98.3361" y="242.33" width="3.22472" height="12.7079" transform="rotate(1.67239 98.3361 242.33)" fill="#0C5D8D"/>
<path d="M105.461 243.853C104.642 242.426 101.871 223.582 99.193 219.12L94.3581 243.529C99.9648 243.839 106.279 245.28 105.461 243.853Z" fill="#155175"/>
<rect x="33" y="98" width="79" height="6" fill="#1B6BFF"/>
<path d="M1 55C91.4 59.8 142 20.3333 156 0H1V55Z" fill="#1B5C84"/>
<circle cx="481" cy="75" r="75" fill="#C4C4C4" fill-opacity="0.11"/>
<circle cx="480" cy="74" r="65" fill="#C4C4C4" fill-opacity="0.13"/>
<circle cx="480" cy="72" r="55" fill="#C4C4C4" fill-opacity="0.19"/>
<circle cx="480" cy="71" r="43" fill="white"/>
<circle cx="505.5" cy="48.5" r="4.5" fill="#D7D7D7"/>
<circle cx="492.5" cy="80.5" r="4.5" fill="#D7D7D7"/>
<circle cx="475.5" cy="57.5" r="4.5" fill="#D7D7D7"/>
<circle cx="478.5" cy="69.5" r="2.5" fill="#D7D7D7"/>
<circle cx="504.5" cy="94.5" r="4.5" fill="#D7D7D7"/>
<circle cx="466.5" cy="84.5" r="4.5" fill="#D7D7D7"/>
<circle cx="462.5" cy="98.5" r="4.5" fill="#D7D7D7"/>
<circle cx="493.5" cy="57.5" r="5.5" fill="#D7D7D7"/>
<circle cx="506.5" cy="75.5" r="1.5" fill="#D7D7D7"/>
<circle cx="482.5" cy="38.5" r="3.5" fill="#D7D7D7"/>
<circle cx="462.5" cy="44.5" r="4.5" fill="#D7D7D7"/>
<circle cx="449.5" cy="82.5" r="4.5" fill="#D7D7D7"/>
<circle cx="482" cy="97" r="2" fill="#D7D7D7"/>
<circle cx="513.5" cy="62.5" r="4.5" fill="#D7D7D7"/>
<circle cx="449.5" cy="60.5" r="4.5" fill="#D7D7D7"/>
<circle cx="461" cy="68" r="2" fill="#D7D7D7"/>
<path d="M193 44C213.404 37 260.37 23 285 23" stroke="white" stroke-width="0.5"/>
<circle cx="170.5" cy="62.5" r="0.5" fill="white"/>
<circle cx="265.5" cy="65.5" r="0.5" fill="white"/>
<circle cx="296.5" cy="34.5" r="0.5" fill="white"/>
<circle cx="316.5" cy="68.5" r="0.5" fill="white"/>
<circle cx="352.5" cy="65.5" r="0.5" fill="white"/>
<circle cx="278.5" cy="93.5" r="0.5" fill="white"/>
<circle cx="332.5" cy="12.5" r="0.5" fill="white"/>
<circle cx="431.5" cy="21.5" r="0.5" fill="white"/>
<circle cx="514.5" cy="18.5" r="0.5" fill="white"/>
<circle cx="538.5" cy="90.5" r="0.5" fill="white"/>
<circle cx="475.5" cy="14.5" r="0.5" fill="white"/>
<circle cx="360.5" cy="35.5" r="0.5" fill="white"/>
<circle cx="402.5" cy="67.5" r="0.5" fill="white"/>
<circle cx="424.5" cy="90.5" r="0.5" fill="white"/>
<circle cx="339.5" cy="102.5" r="0.5" fill="white"/>
<circle cx="389.5" cy="22.5" r="0.5" fill="white"/>
<circle cx="241.5" cy="44.5" r="0.5" fill="white"/>
<circle cx="202.5" cy="82.5" r="0.5" fill="white"/>
<circle cx="136.5" cy="34.5" r="0.5" fill="white"/>
<circle cx="250.5" cy="13.5" r="0.5" fill="white"/>
<circle cx="240.5" cy="89.5" r="0.5" fill="white"/>
<circle cx="161.5" cy="89.5" r="0.5" fill="white"/>
<circle cx="112.5" cy="71.5" r="0.5" fill="white"/>
<circle cx="51.5" cy="68.5" r="0.5" fill="white"/>
<circle cx="184.5" cy="25.5" r="0.5" fill="white"/>
<circle cx="378.5" cy="95.5" r="0.5" fill="white"/>
<path d="M361 277C351 269 264.8 253.2 0 254V302H388L361 277Z" fill="#155175"/>
<path d="M339 302C368.6 242.8 496.667 220.667 557 217V302H339Z" fill="#084468"/>
<path d="M426.578 274.382H430.498V276.736H423.585V264.219H426.578V274.382ZM434.917 266.662V269.194H438.925V271.547H434.917V274.293H439.45V276.736H431.925V264.219H439.45V266.662H434.917ZM449.04 274.525H444.455L443.72 276.736H440.588L445.033 264.219H448.498L452.943 276.736H449.775L449.04 274.525ZM448.27 272.171L446.748 267.589L445.243 272.171H448.27ZM460.56 276.736L458.005 272.011H457.288V276.736H454.295V264.219H459.318C460.286 264.219 461.109 264.391 461.785 264.736C462.474 265.081 462.987 265.556 463.326 266.163C463.664 266.757 463.833 267.423 463.833 268.16C463.833 268.992 463.6 269.735 463.133 270.388C462.678 271.042 462.001 271.506 461.103 271.779L463.938 276.736H460.56ZM457.288 269.853H459.143C459.691 269.853 460.1 269.717 460.368 269.443C460.648 269.17 460.788 268.784 460.788 268.284C460.788 267.809 460.648 267.434 460.368 267.161C460.1 266.888 459.691 266.751 459.143 266.751H457.288V269.853ZM476.702 276.736H473.709L468.704 269.015V276.736H465.712V264.219H468.704L473.709 271.975V264.219H476.702V276.736ZM483.473 264.219C484.768 264.219 485.9 264.481 486.868 265.004C487.837 265.527 488.583 266.264 489.108 267.215C489.645 268.154 489.913 269.241 489.913 270.477C489.913 271.702 489.645 272.789 489.108 273.74C488.583 274.691 487.831 275.428 486.851 275.951C485.883 276.474 484.757 276.736 483.473 276.736H478.871V264.219H483.473ZM483.281 274.097C484.413 274.097 485.293 273.782 485.923 273.152C486.553 272.522 486.868 271.63 486.868 270.477C486.868 269.324 486.553 268.427 485.923 267.785C485.293 267.143 484.413 266.822 483.281 266.822H481.863V274.097H483.281ZM494.578 266.662V269.194H498.586V271.547H494.578V274.293H499.111V276.736H491.586V264.219H499.111V266.662H494.578ZM512.586 264.219L508.229 276.736H504.484L500.126 264.219H503.311L506.356 273.669L509.419 264.219H512.586Z" fill="white"/>
<path d="M520.442 264H517.885V276.736H520.442V264Z" fill="white"/>
<path d="M523 268.717H517.885V272.019H523V268.717Z" fill="white"/>
<path d="M521.115 264H516V267.302H521.115V264Z" fill="white"/>
<path d="M521.115 273.434H516V276.736H521.115V273.434Z" fill="white"/>
<path d="M417.9 264H415.45V276.736H417.9V264Z" fill="white"/>
<path d="M419.707 273.434H414.806V276.736H419.707V273.434Z" fill="white"/>
<path d="M419.707 264H414.806V267.302H419.707V264Z" fill="white"/>
<path d="M417.9 268.717H413V272.019H417.9V268.717Z" fill="white"/>
<defs>
<linearGradient id="paint0_linear" x1="278.5" y1="0" x2="278.5" y2="302" gradientUnits="userSpaceOnUse">
<stop stop-color="#084468"/>
<stop offset="1" stop-color="#2F6A8D"/>
</linearGradient>
</defs>
</svg>
