<svg width="407" height="100" viewBox="0 0 407 100" fill="none" xmlns="http://www.w3.org/2000/svg">
<path d="M77.2202 58.08H90.6602V66H66.9602V23.88H77.2202V58.08ZM105.814 32.1V40.62H119.554V48.54H105.814V57.78H121.354V66H95.554V23.88H121.354V32.1H105.814ZM154.235 58.56H138.515L135.995 66H125.255L140.495 23.88H152.375L167.615 66H156.755L154.235 58.56ZM151.595 50.64L146.375 35.22L141.215 50.64H151.595ZM193.733 66L184.973 50.1H182.513V66H172.253V23.88H189.473C192.793 23.88 195.613 24.46 197.933 25.62C200.293 26.78 202.053 28.38 203.213 30.42C204.373 32.42 204.953 34.66 204.953 37.14C204.953 39.94 204.153 42.44 202.553 44.64C200.993 46.84 198.673 48.4 195.593 49.32L205.313 66H193.733ZM182.513 42.84H188.873C190.753 42.84 192.153 42.38 193.073 41.46C194.033 40.54 194.513 39.24 194.513 37.56C194.513 35.96 194.033 34.7 193.073 33.78C192.153 32.86 190.753 32.4 188.873 32.4H182.513V42.84ZM249.074 66H238.814L221.654 40.02V66H211.394V23.88H221.654L238.814 49.98V23.88H249.074V66Z" fill="#0275D8"/>
<path d="M272.291 23.88C276.731 23.88 280.611 24.76 283.931 26.52C287.251 28.28 289.811 30.76 291.611 33.96C293.451 37.12 294.371 40.78 294.371 44.94C294.371 49.06 293.451 52.72 291.611 55.92C289.811 59.12 287.231 61.6 283.871 63.36C280.551 65.12 276.691 66 272.291 66H256.511V23.88H272.291ZM271.631 57.12C275.511 57.12 278.531 56.06 280.691 53.94C282.851 51.82 283.931 48.82 283.931 44.94C283.931 41.06 282.851 38.04 280.691 35.88C278.531 33.72 275.511 32.64 271.631 32.64H266.771V57.12H271.631ZM310.365 32.1V40.62H324.105V48.54H310.365V57.78H325.905V66H300.105V23.88H325.905V32.1H310.365ZM372.106 23.88L357.166 66H344.326L329.386 23.88H340.306L350.746 55.68L361.246 23.88H372.106Z" fill="#292929"/>
<rect x="36.9302" y="23.1247" width="9.13358" height="43.8752" fill="#005BAA"/>
<rect x="36.9302" y="39.3748" width="18.2672" height="11.3751" fill="#005BAA"/>
<rect x="30.1973" y="23.1247" width="18.2672" height="11.3751" fill="#005BAA"/>
<rect x="30.1973" y="55.6249" width="18.2672" height="11.3751" fill="#005BAA"/>
<rect x="9.13364" y="23" width="9.13359" height="44" fill="#005BAA"/>
<rect x="6.73285" y="55.5926" width="18.2672" height="11.4074" fill="#005BAA"/>
<rect x="6.73285" y="23" width="18.2672" height="11.4074" fill="#005BAA"/>
<rect y="39.2963" width="18.2672" height="11.4074" fill="#005BAA"/>
</svg>
